M48
; DRILL file {KiCad 9.0.6} date 2025-11-17T13:56:23+0100
; FORMAT={-:-/ absolute / metric / decimal}
; #@! TF.CreationDate,2025-11-17T13:56:23+01:00
; #@! TF.GenerationSoftware,Kicad,Pcbnew,9.0.6
; #@! TF.FileFunction,Plated,1,2,PTH
FMAT,2
METRIC
; #@! TA.AperFunction,Plated,PTH,ViaDrill
T1C0.300
; #@! TA.AperFunction,Plated,PTH,ViaDrill
T2C0.400
; #@! TA.AperFunction,Plated,PTH,ComponentDrill
T3C0.600
%
G90
G05
T1
X115.25Y-78.0
X121.75Y-72.0
X131.25Y-73.5
X132.5Y-72.25
X159.75Y-81.75
X160.5Y-81.0
X160.5Y-88.0
X161.25Y-80.25
X161.25Y-87.75
X162.0Y-87.5
X162.75Y-87.25
X163.5Y-87.0
X163.75Y-92.5
X167.0Y-86.25
X167.75Y-89.25
X168.567Y-84.75
X170.0Y-85.0
X170.0Y-87.5
X170.5Y-89.25
X171.112Y-91.888
X172.25Y-84.25
X173.15Y-89.0
X173.5Y-89.75
X173.95Y-87.85
X175.25Y-83.25
T2
X127.85Y-81.25
X152.25Y-81.5
X153.0Y-82.25
X162.75Y-70.0
X163.0Y-65.75
X167.45Y-71.0
X173.275Y-92.5
X175.35Y-81.25
X178.975Y-73.5
X180.387Y-70.75
T3
X180.05Y-75.48G85X179.45Y-75.48
G05
X180.05Y-84.12G85X179.45Y-84.12
G05
X183.85Y-75.48G85X183.25Y-75.48
G05
X183.85Y-84.12G85X183.25Y-84.12
G05
M30
