%TF.GenerationSoftware,KiCad,Pcbnew,9.0.6*%
%TF.CreationDate,2025-11-17T13:54:39+01:00*%
%TF.ProjectId,CH32Console,43483332-436f-46e7-936f-6c652e6b6963,rev?*%
%TF.SameCoordinates,Original*%
%TF.FileFunction,Legend,Bot*%
%TF.FilePolarity,Positive*%
%FSLAX46Y46*%
G04 Gerber Fmt 4.6, Leading zero omitted, Abs format (unit mm)*
G04 Created by KiCad (PCBNEW 9.0.6) date 2025-11-17 13:54:39*
%MOMM*%
%LPD*%
G01*
G04 APERTURE LIST*
G04 Aperture macros list*
%AMRoundRect*
0 Rectangle with rounded corners*
0 $1 Rounding radius*
0 $2 $3 $4 $5 $6 $7 $8 $9 X,Y pos of 4 corners*
0 Add a 4 corners polygon primitive as box body*
4,1,4,$2,$3,$4,$5,$6,$7,$8,$9,$2,$3,0*
0 Add four circle primitives for the rounded corners*
1,1,$1+$1,$2,$3*
1,1,$1+$1,$4,$5*
1,1,$1+$1,$6,$7*
1,1,$1+$1,$8,$9*
0 Add four rect primitives between the rounded corners*
20,1,$1+$1,$2,$3,$4,$5,0*
20,1,$1+$1,$4,$5,$6,$7,0*
20,1,$1+$1,$6,$7,$8,$9,0*
20,1,$1+$1,$8,$9,$2,$3,0*%
G04 Aperture macros list end*
%ADD10C,0.150000*%
%ADD11C,0.120000*%
%ADD12C,0.127000*%
%ADD13C,0.900000*%
%ADD14RoundRect,0.150000X0.512500X0.150000X-0.512500X0.150000X-0.512500X-0.150000X0.512500X-0.150000X0*%
%ADD15RoundRect,0.102000X0.660000X0.295000X-0.660000X0.295000X-0.660000X-0.295000X0.660000X-0.295000X0*%
%ADD16RoundRect,0.225000X-0.250000X0.225000X-0.250000X-0.225000X0.250000X-0.225000X0.250000X0.225000X0*%
%ADD17RoundRect,0.225000X-0.225000X-0.250000X0.225000X-0.250000X0.225000X0.250000X-0.225000X0.250000X0*%
%ADD18R,1.700000X1.700000*%
%ADD19C,1.700000*%
%ADD20RoundRect,0.225000X0.225000X0.250000X-0.225000X0.250000X-0.225000X-0.250000X0.225000X-0.250000X0*%
%ADD21RoundRect,0.100000X0.637500X0.100000X-0.637500X0.100000X-0.637500X-0.100000X0.637500X-0.100000X0*%
%ADD22RoundRect,0.200000X-0.200000X-0.275000X0.200000X-0.275000X0.200000X0.275000X-0.200000X0.275000X0*%
%ADD23RoundRect,0.250000X0.350000X-0.450000X0.350000X0.450000X-0.350000X0.450000X-0.350000X-0.450000X0*%
%ADD24RoundRect,0.200000X0.200000X0.275000X-0.200000X0.275000X-0.200000X-0.275000X0.200000X-0.275000X0*%
%ADD25RoundRect,0.175000X-0.425000X0.175000X-0.425000X-0.175000X0.425000X-0.175000X0.425000X0.175000X0*%
%ADD26RoundRect,0.190000X0.410000X-0.190000X0.410000X0.190000X-0.410000X0.190000X-0.410000X-0.190000X0*%
%ADD27RoundRect,0.200000X0.400000X-0.200000X0.400000X0.200000X-0.400000X0.200000X-0.400000X-0.200000X0*%
%ADD28RoundRect,0.175000X0.425000X-0.175000X0.425000X0.175000X-0.425000X0.175000X-0.425000X-0.175000X0*%
%ADD29RoundRect,0.190000X-0.410000X0.190000X-0.410000X-0.190000X0.410000X-0.190000X0.410000X0.190000X0*%
%ADD30RoundRect,0.200000X-0.400000X0.200000X-0.400000X-0.200000X0.400000X-0.200000X0.400000X0.200000X0*%
%ADD31O,1.700000X1.100000*%
%ADD32RoundRect,0.200000X-0.275000X0.200000X-0.275000X-0.200000X0.275000X-0.200000X0.275000X0.200000X0*%
G04 APERTURE END LIST*
D10*
X180011904Y-67804819D02*
X180011904Y-68614342D01*
X180011904Y-68614342D02*
X179964285Y-68709580D01*
X179964285Y-68709580D02*
X179916666Y-68757200D01*
X179916666Y-68757200D02*
X179821428Y-68804819D01*
X179821428Y-68804819D02*
X179630952Y-68804819D01*
X179630952Y-68804819D02*
X179535714Y-68757200D01*
X179535714Y-68757200D02*
X179488095Y-68709580D01*
X179488095Y-68709580D02*
X179440476Y-68614342D01*
X179440476Y-68614342D02*
X179440476Y-67804819D01*
X179011904Y-67900057D02*
X178964285Y-67852438D01*
X178964285Y-67852438D02*
X178869047Y-67804819D01*
X178869047Y-67804819D02*
X178630952Y-67804819D01*
X178630952Y-67804819D02*
X178535714Y-67852438D01*
X178535714Y-67852438D02*
X178488095Y-67900057D01*
X178488095Y-67900057D02*
X178440476Y-67995295D01*
X178440476Y-67995295D02*
X178440476Y-68090533D01*
X178440476Y-68090533D02*
X178488095Y-68233390D01*
X178488095Y-68233390D02*
X179059523Y-68804819D01*
X179059523Y-68804819D02*
X178440476Y-68804819D01*
X169011904Y-75954819D02*
X169011904Y-76764342D01*
X169011904Y-76764342D02*
X168964285Y-76859580D01*
X168964285Y-76859580D02*
X168916666Y-76907200D01*
X168916666Y-76907200D02*
X168821428Y-76954819D01*
X168821428Y-76954819D02*
X168630952Y-76954819D01*
X168630952Y-76954819D02*
X168535714Y-76907200D01*
X168535714Y-76907200D02*
X168488095Y-76859580D01*
X168488095Y-76859580D02*
X168440476Y-76764342D01*
X168440476Y-76764342D02*
X168440476Y-75954819D01*
X168059523Y-75954819D02*
X167440476Y-75954819D01*
X167440476Y-75954819D02*
X167773809Y-76335771D01*
X167773809Y-76335771D02*
X167630952Y-76335771D01*
X167630952Y-76335771D02*
X167535714Y-76383390D01*
X167535714Y-76383390D02*
X167488095Y-76431009D01*
X167488095Y-76431009D02*
X167440476Y-76526247D01*
X167440476Y-76526247D02*
X167440476Y-76764342D01*
X167440476Y-76764342D02*
X167488095Y-76859580D01*
X167488095Y-76859580D02*
X167535714Y-76907200D01*
X167535714Y-76907200D02*
X167630952Y-76954819D01*
X167630952Y-76954819D02*
X167916666Y-76954819D01*
X167916666Y-76954819D02*
X168011904Y-76907200D01*
X168011904Y-76907200D02*
X168059523Y-76859580D01*
X164179580Y-73583333D02*
X164227200Y-73535714D01*
X164227200Y-73535714D02*
X164274819Y-73392857D01*
X164274819Y-73392857D02*
X164274819Y-73297619D01*
X164274819Y-73297619D02*
X164227200Y-73154762D01*
X164227200Y-73154762D02*
X164131961Y-73059524D01*
X164131961Y-73059524D02*
X164036723Y-73011905D01*
X164036723Y-73011905D02*
X163846247Y-72964286D01*
X163846247Y-72964286D02*
X163703390Y-72964286D01*
X163703390Y-72964286D02*
X163512914Y-73011905D01*
X163512914Y-73011905D02*
X163417676Y-73059524D01*
X163417676Y-73059524D02*
X163322438Y-73154762D01*
X163322438Y-73154762D02*
X163274819Y-73297619D01*
X163274819Y-73297619D02*
X163274819Y-73392857D01*
X163274819Y-73392857D02*
X163322438Y-73535714D01*
X163322438Y-73535714D02*
X163370057Y-73583333D01*
X163703390Y-74154762D02*
X163655771Y-74059524D01*
X163655771Y-74059524D02*
X163608152Y-74011905D01*
X163608152Y-74011905D02*
X163512914Y-73964286D01*
X163512914Y-73964286D02*
X163465295Y-73964286D01*
X163465295Y-73964286D02*
X163370057Y-74011905D01*
X163370057Y-74011905D02*
X163322438Y-74059524D01*
X163322438Y-74059524D02*
X163274819Y-74154762D01*
X163274819Y-74154762D02*
X163274819Y-74345238D01*
X163274819Y-74345238D02*
X163322438Y-74440476D01*
X163322438Y-74440476D02*
X163370057Y-74488095D01*
X163370057Y-74488095D02*
X163465295Y-74535714D01*
X163465295Y-74535714D02*
X163512914Y-74535714D01*
X163512914Y-74535714D02*
X163608152Y-74488095D01*
X163608152Y-74488095D02*
X163655771Y-74440476D01*
X163655771Y-74440476D02*
X163703390Y-74345238D01*
X163703390Y-74345238D02*
X163703390Y-74154762D01*
X163703390Y-74154762D02*
X163751009Y-74059524D01*
X163751009Y-74059524D02*
X163798628Y-74011905D01*
X163798628Y-74011905D02*
X163893866Y-73964286D01*
X163893866Y-73964286D02*
X164084342Y-73964286D01*
X164084342Y-73964286D02*
X164179580Y-74011905D01*
X164179580Y-74011905D02*
X164227200Y-74059524D01*
X164227200Y-74059524D02*
X164274819Y-74154762D01*
X164274819Y-74154762D02*
X164274819Y-74345238D01*
X164274819Y-74345238D02*
X164227200Y-74440476D01*
X164227200Y-74440476D02*
X164179580Y-74488095D01*
X164179580Y-74488095D02*
X164084342Y-74535714D01*
X164084342Y-74535714D02*
X163893866Y-74535714D01*
X163893866Y-74535714D02*
X163798628Y-74488095D01*
X163798628Y-74488095D02*
X163751009Y-74440476D01*
X163751009Y-74440476D02*
X163703390Y-74345238D01*
X170166666Y-92859580D02*
X170214285Y-92907200D01*
X170214285Y-92907200D02*
X170357142Y-92954819D01*
X170357142Y-92954819D02*
X170452380Y-92954819D01*
X170452380Y-92954819D02*
X170595237Y-92907200D01*
X170595237Y-92907200D02*
X170690475Y-92811961D01*
X170690475Y-92811961D02*
X170738094Y-92716723D01*
X170738094Y-92716723D02*
X170785713Y-92526247D01*
X170785713Y-92526247D02*
X170785713Y-92383390D01*
X170785713Y-92383390D02*
X170738094Y-92192914D01*
X170738094Y-92192914D02*
X170690475Y-92097676D01*
X170690475Y-92097676D02*
X170595237Y-92002438D01*
X170595237Y-92002438D02*
X170452380Y-91954819D01*
X170452380Y-91954819D02*
X170357142Y-91954819D01*
X170357142Y-91954819D02*
X170214285Y-92002438D01*
X170214285Y-92002438D02*
X170166666Y-92050057D01*
X169214285Y-92954819D02*
X169785713Y-92954819D01*
X169499999Y-92954819D02*
X169499999Y-91954819D01*
X169499999Y-91954819D02*
X169595237Y-92097676D01*
X169595237Y-92097676D02*
X169690475Y-92192914D01*
X169690475Y-92192914D02*
X169785713Y-92240533D01*
X170559523Y-69573866D02*
X169797619Y-69573866D01*
X170178571Y-69954819D02*
X170178571Y-69192914D01*
X168988095Y-69431009D02*
X168845238Y-69478628D01*
X168845238Y-69478628D02*
X168797619Y-69526247D01*
X168797619Y-69526247D02*
X168750000Y-69621485D01*
X168750000Y-69621485D02*
X168750000Y-69764342D01*
X168750000Y-69764342D02*
X168797619Y-69859580D01*
X168797619Y-69859580D02*
X168845238Y-69907200D01*
X168845238Y-69907200D02*
X168940476Y-69954819D01*
X168940476Y-69954819D02*
X169321428Y-69954819D01*
X169321428Y-69954819D02*
X169321428Y-68954819D01*
X169321428Y-68954819D02*
X168988095Y-68954819D01*
X168988095Y-68954819D02*
X168892857Y-69002438D01*
X168892857Y-69002438D02*
X168845238Y-69050057D01*
X168845238Y-69050057D02*
X168797619Y-69145295D01*
X168797619Y-69145295D02*
X168797619Y-69240533D01*
X168797619Y-69240533D02*
X168845238Y-69335771D01*
X168845238Y-69335771D02*
X168892857Y-69383390D01*
X168892857Y-69383390D02*
X168988095Y-69431009D01*
X168988095Y-69431009D02*
X169321428Y-69431009D01*
X168369047Y-69669104D02*
X167892857Y-69669104D01*
X168464285Y-69954819D02*
X168130952Y-68954819D01*
X168130952Y-68954819D02*
X167797619Y-69954819D01*
X167607142Y-68954819D02*
X167035714Y-68954819D01*
X167321428Y-69954819D02*
X167321428Y-68954819D01*
X166702380Y-69573866D02*
X165940476Y-69573866D01*
X178916666Y-86359580D02*
X178964285Y-86407200D01*
X178964285Y-86407200D02*
X179107142Y-86454819D01*
X179107142Y-86454819D02*
X179202380Y-86454819D01*
X179202380Y-86454819D02*
X179345237Y-86407200D01*
X179345237Y-86407200D02*
X179440475Y-86311961D01*
X179440475Y-86311961D02*
X179488094Y-86216723D01*
X179488094Y-86216723D02*
X179535713Y-86026247D01*
X179535713Y-86026247D02*
X179535713Y-85883390D01*
X179535713Y-85883390D02*
X179488094Y-85692914D01*
X179488094Y-85692914D02*
X179440475Y-85597676D01*
X179440475Y-85597676D02*
X179345237Y-85502438D01*
X179345237Y-85502438D02*
X179202380Y-85454819D01*
X179202380Y-85454819D02*
X179107142Y-85454819D01*
X179107142Y-85454819D02*
X178964285Y-85502438D01*
X178964285Y-85502438D02*
X178916666Y-85550057D01*
X178011904Y-85454819D02*
X178488094Y-85454819D01*
X178488094Y-85454819D02*
X178535713Y-85931009D01*
X178535713Y-85931009D02*
X178488094Y-85883390D01*
X178488094Y-85883390D02*
X178392856Y-85835771D01*
X178392856Y-85835771D02*
X178154761Y-85835771D01*
X178154761Y-85835771D02*
X178059523Y-85883390D01*
X178059523Y-85883390D02*
X178011904Y-85931009D01*
X178011904Y-85931009D02*
X177964285Y-86026247D01*
X177964285Y-86026247D02*
X177964285Y-86264342D01*
X177964285Y-86264342D02*
X178011904Y-86359580D01*
X178011904Y-86359580D02*
X178059523Y-86407200D01*
X178059523Y-86407200D02*
X178154761Y-86454819D01*
X178154761Y-86454819D02*
X178392856Y-86454819D01*
X178392856Y-86454819D02*
X178488094Y-86407200D01*
X178488094Y-86407200D02*
X178535713Y-86359580D01*
X165916666Y-71359580D02*
X165964285Y-71407200D01*
X165964285Y-71407200D02*
X166107142Y-71454819D01*
X166107142Y-71454819D02*
X166202380Y-71454819D01*
X166202380Y-71454819D02*
X166345237Y-71407200D01*
X166345237Y-71407200D02*
X166440475Y-71311961D01*
X166440475Y-71311961D02*
X166488094Y-71216723D01*
X166488094Y-71216723D02*
X166535713Y-71026247D01*
X166535713Y-71026247D02*
X166535713Y-70883390D01*
X166535713Y-70883390D02*
X166488094Y-70692914D01*
X166488094Y-70692914D02*
X166440475Y-70597676D01*
X166440475Y-70597676D02*
X166345237Y-70502438D01*
X166345237Y-70502438D02*
X166202380Y-70454819D01*
X166202380Y-70454819D02*
X166107142Y-70454819D01*
X166107142Y-70454819D02*
X165964285Y-70502438D01*
X165964285Y-70502438D02*
X165916666Y-70550057D01*
X165583332Y-70454819D02*
X164916666Y-70454819D01*
X164916666Y-70454819D02*
X165345237Y-71454819D01*
X169624404Y-83229819D02*
X169624404Y-84039342D01*
X169624404Y-84039342D02*
X169576785Y-84134580D01*
X169576785Y-84134580D02*
X169529166Y-84182200D01*
X169529166Y-84182200D02*
X169433928Y-84229819D01*
X169433928Y-84229819D02*
X169243452Y-84229819D01*
X169243452Y-84229819D02*
X169148214Y-84182200D01*
X169148214Y-84182200D02*
X169100595Y-84134580D01*
X169100595Y-84134580D02*
X169052976Y-84039342D01*
X169052976Y-84039342D02*
X169052976Y-83229819D01*
X168052976Y-84229819D02*
X168624404Y-84229819D01*
X168338690Y-84229819D02*
X168338690Y-83229819D01*
X168338690Y-83229819D02*
X168433928Y-83372676D01*
X168433928Y-83372676D02*
X168529166Y-83467914D01*
X168529166Y-83467914D02*
X168624404Y-83515533D01*
X182416666Y-73859580D02*
X182464285Y-73907200D01*
X182464285Y-73907200D02*
X182607142Y-73954819D01*
X182607142Y-73954819D02*
X182702380Y-73954819D01*
X182702380Y-73954819D02*
X182845237Y-73907200D01*
X182845237Y-73907200D02*
X182940475Y-73811961D01*
X182940475Y-73811961D02*
X182988094Y-73716723D01*
X182988094Y-73716723D02*
X183035713Y-73526247D01*
X183035713Y-73526247D02*
X183035713Y-73383390D01*
X183035713Y-73383390D02*
X182988094Y-73192914D01*
X182988094Y-73192914D02*
X182940475Y-73097676D01*
X182940475Y-73097676D02*
X182845237Y-73002438D01*
X182845237Y-73002438D02*
X182702380Y-72954819D01*
X182702380Y-72954819D02*
X182607142Y-72954819D01*
X182607142Y-72954819D02*
X182464285Y-73002438D01*
X182464285Y-73002438D02*
X182416666Y-73050057D01*
X181559523Y-72954819D02*
X181749999Y-72954819D01*
X181749999Y-72954819D02*
X181845237Y-73002438D01*
X181845237Y-73002438D02*
X181892856Y-73050057D01*
X181892856Y-73050057D02*
X181988094Y-73192914D01*
X181988094Y-73192914D02*
X182035713Y-73383390D01*
X182035713Y-73383390D02*
X182035713Y-73764342D01*
X182035713Y-73764342D02*
X181988094Y-73859580D01*
X181988094Y-73859580D02*
X181940475Y-73907200D01*
X181940475Y-73907200D02*
X181845237Y-73954819D01*
X181845237Y-73954819D02*
X181654761Y-73954819D01*
X181654761Y-73954819D02*
X181559523Y-73907200D01*
X181559523Y-73907200D02*
X181511904Y-73859580D01*
X181511904Y-73859580D02*
X181464285Y-73764342D01*
X181464285Y-73764342D02*
X181464285Y-73526247D01*
X181464285Y-73526247D02*
X181511904Y-73431009D01*
X181511904Y-73431009D02*
X181559523Y-73383390D01*
X181559523Y-73383390D02*
X181654761Y-73335771D01*
X181654761Y-73335771D02*
X181845237Y-73335771D01*
X181845237Y-73335771D02*
X181940475Y-73383390D01*
X181940475Y-73383390D02*
X181988094Y-73431009D01*
X181988094Y-73431009D02*
X182035713Y-73526247D01*
X172916666Y-71204819D02*
X173249999Y-70728628D01*
X173488094Y-71204819D02*
X173488094Y-70204819D01*
X173488094Y-70204819D02*
X173107142Y-70204819D01*
X173107142Y-70204819D02*
X173011904Y-70252438D01*
X173011904Y-70252438D02*
X172964285Y-70300057D01*
X172964285Y-70300057D02*
X172916666Y-70395295D01*
X172916666Y-70395295D02*
X172916666Y-70538152D01*
X172916666Y-70538152D02*
X172964285Y-70633390D01*
X172964285Y-70633390D02*
X173011904Y-70681009D01*
X173011904Y-70681009D02*
X173107142Y-70728628D01*
X173107142Y-70728628D02*
X173488094Y-70728628D01*
X172011904Y-70204819D02*
X172488094Y-70204819D01*
X172488094Y-70204819D02*
X172535713Y-70681009D01*
X172535713Y-70681009D02*
X172488094Y-70633390D01*
X172488094Y-70633390D02*
X172392856Y-70585771D01*
X172392856Y-70585771D02*
X172154761Y-70585771D01*
X172154761Y-70585771D02*
X172059523Y-70633390D01*
X172059523Y-70633390D02*
X172011904Y-70681009D01*
X172011904Y-70681009D02*
X171964285Y-70776247D01*
X171964285Y-70776247D02*
X171964285Y-71014342D01*
X171964285Y-71014342D02*
X172011904Y-71109580D01*
X172011904Y-71109580D02*
X172059523Y-71157200D01*
X172059523Y-71157200D02*
X172154761Y-71204819D01*
X172154761Y-71204819D02*
X172392856Y-71204819D01*
X172392856Y-71204819D02*
X172488094Y-71157200D01*
X172488094Y-71157200D02*
X172535713Y-71109580D01*
X178678628Y-88773809D02*
X179154819Y-88773809D01*
X178154819Y-88440476D02*
X178678628Y-88773809D01*
X178678628Y-88773809D02*
X178154819Y-89107142D01*
X179154819Y-89964285D02*
X179154819Y-89392857D01*
X179154819Y-89678571D02*
X178154819Y-89678571D01*
X178154819Y-89678571D02*
X178297676Y-89583333D01*
X178297676Y-89583333D02*
X178392914Y-89488095D01*
X178392914Y-89488095D02*
X178440533Y-89392857D01*
X172916666Y-74859580D02*
X172964285Y-74907200D01*
X172964285Y-74907200D02*
X173107142Y-74954819D01*
X173107142Y-74954819D02*
X173202380Y-74954819D01*
X173202380Y-74954819D02*
X173345237Y-74907200D01*
X173345237Y-74907200D02*
X173440475Y-74811961D01*
X173440475Y-74811961D02*
X173488094Y-74716723D01*
X173488094Y-74716723D02*
X173535713Y-74526247D01*
X173535713Y-74526247D02*
X173535713Y-74383390D01*
X173535713Y-74383390D02*
X173488094Y-74192914D01*
X173488094Y-74192914D02*
X173440475Y-74097676D01*
X173440475Y-74097676D02*
X173345237Y-74002438D01*
X173345237Y-74002438D02*
X173202380Y-73954819D01*
X173202380Y-73954819D02*
X173107142Y-73954819D01*
X173107142Y-73954819D02*
X172964285Y-74002438D01*
X172964285Y-74002438D02*
X172916666Y-74050057D01*
X172535713Y-74050057D02*
X172488094Y-74002438D01*
X172488094Y-74002438D02*
X172392856Y-73954819D01*
X172392856Y-73954819D02*
X172154761Y-73954819D01*
X172154761Y-73954819D02*
X172059523Y-74002438D01*
X172059523Y-74002438D02*
X172011904Y-74050057D01*
X172011904Y-74050057D02*
X171964285Y-74145295D01*
X171964285Y-74145295D02*
X171964285Y-74240533D01*
X171964285Y-74240533D02*
X172011904Y-74383390D01*
X172011904Y-74383390D02*
X172583332Y-74954819D01*
X172583332Y-74954819D02*
X171964285Y-74954819D01*
X172916666Y-73359580D02*
X172964285Y-73407200D01*
X172964285Y-73407200D02*
X173107142Y-73454819D01*
X173107142Y-73454819D02*
X173202380Y-73454819D01*
X173202380Y-73454819D02*
X173345237Y-73407200D01*
X173345237Y-73407200D02*
X173440475Y-73311961D01*
X173440475Y-73311961D02*
X173488094Y-73216723D01*
X173488094Y-73216723D02*
X173535713Y-73026247D01*
X173535713Y-73026247D02*
X173535713Y-72883390D01*
X173535713Y-72883390D02*
X173488094Y-72692914D01*
X173488094Y-72692914D02*
X173440475Y-72597676D01*
X173440475Y-72597676D02*
X173345237Y-72502438D01*
X173345237Y-72502438D02*
X173202380Y-72454819D01*
X173202380Y-72454819D02*
X173107142Y-72454819D01*
X173107142Y-72454819D02*
X172964285Y-72502438D01*
X172964285Y-72502438D02*
X172916666Y-72550057D01*
X172583332Y-72454819D02*
X171964285Y-72454819D01*
X171964285Y-72454819D02*
X172297618Y-72835771D01*
X172297618Y-72835771D02*
X172154761Y-72835771D01*
X172154761Y-72835771D02*
X172059523Y-72883390D01*
X172059523Y-72883390D02*
X172011904Y-72931009D01*
X172011904Y-72931009D02*
X171964285Y-73026247D01*
X171964285Y-73026247D02*
X171964285Y-73264342D01*
X171964285Y-73264342D02*
X172011904Y-73359580D01*
X172011904Y-73359580D02*
X172059523Y-73407200D01*
X172059523Y-73407200D02*
X172154761Y-73454819D01*
X172154761Y-73454819D02*
X172440475Y-73454819D01*
X172440475Y-73454819D02*
X172535713Y-73407200D01*
X172535713Y-73407200D02*
X172583332Y-73359580D01*
X178916666Y-92859580D02*
X178964285Y-92907200D01*
X178964285Y-92907200D02*
X179107142Y-92954819D01*
X179107142Y-92954819D02*
X179202380Y-92954819D01*
X179202380Y-92954819D02*
X179345237Y-92907200D01*
X179345237Y-92907200D02*
X179440475Y-92811961D01*
X179440475Y-92811961D02*
X179488094Y-92716723D01*
X179488094Y-92716723D02*
X179535713Y-92526247D01*
X179535713Y-92526247D02*
X179535713Y-92383390D01*
X179535713Y-92383390D02*
X179488094Y-92192914D01*
X179488094Y-92192914D02*
X179440475Y-92097676D01*
X179440475Y-92097676D02*
X179345237Y-92002438D01*
X179345237Y-92002438D02*
X179202380Y-91954819D01*
X179202380Y-91954819D02*
X179107142Y-91954819D01*
X179107142Y-91954819D02*
X178964285Y-92002438D01*
X178964285Y-92002438D02*
X178916666Y-92050057D01*
X178059523Y-92288152D02*
X178059523Y-92954819D01*
X178297618Y-91907200D02*
X178535713Y-92621485D01*
X178535713Y-92621485D02*
X177916666Y-92621485D01*
X173491666Y-76954819D02*
X173824999Y-76478628D01*
X174063094Y-76954819D02*
X174063094Y-75954819D01*
X174063094Y-75954819D02*
X173682142Y-75954819D01*
X173682142Y-75954819D02*
X173586904Y-76002438D01*
X173586904Y-76002438D02*
X173539285Y-76050057D01*
X173539285Y-76050057D02*
X173491666Y-76145295D01*
X173491666Y-76145295D02*
X173491666Y-76288152D01*
X173491666Y-76288152D02*
X173539285Y-76383390D01*
X173539285Y-76383390D02*
X173586904Y-76431009D01*
X173586904Y-76431009D02*
X173682142Y-76478628D01*
X173682142Y-76478628D02*
X174063094Y-76478628D01*
X173158332Y-75954819D02*
X172539285Y-75954819D01*
X172539285Y-75954819D02*
X172872618Y-76335771D01*
X172872618Y-76335771D02*
X172729761Y-76335771D01*
X172729761Y-76335771D02*
X172634523Y-76383390D01*
X172634523Y-76383390D02*
X172586904Y-76431009D01*
X172586904Y-76431009D02*
X172539285Y-76526247D01*
X172539285Y-76526247D02*
X172539285Y-76764342D01*
X172539285Y-76764342D02*
X172586904Y-76859580D01*
X172586904Y-76859580D02*
X172634523Y-76907200D01*
X172634523Y-76907200D02*
X172729761Y-76954819D01*
X172729761Y-76954819D02*
X173015475Y-76954819D01*
X173015475Y-76954819D02*
X173110713Y-76907200D01*
X173110713Y-76907200D02*
X173158332Y-76859580D01*
X181954819Y-79416666D02*
X182669104Y-79416666D01*
X182669104Y-79416666D02*
X182811961Y-79369047D01*
X182811961Y-79369047D02*
X182907200Y-79273809D01*
X182907200Y-79273809D02*
X182954819Y-79130952D01*
X182954819Y-79130952D02*
X182954819Y-79035714D01*
X182954819Y-80416666D02*
X182954819Y-79845238D01*
X182954819Y-80130952D02*
X181954819Y-80130952D01*
X181954819Y-80130952D02*
X182097676Y-80035714D01*
X182097676Y-80035714D02*
X182192914Y-79940476D01*
X182192914Y-79940476D02*
X182240533Y-79845238D01*
X164274819Y-78583333D02*
X163798628Y-78250000D01*
X164274819Y-78011905D02*
X163274819Y-78011905D01*
X163274819Y-78011905D02*
X163274819Y-78392857D01*
X163274819Y-78392857D02*
X163322438Y-78488095D01*
X163322438Y-78488095D02*
X163370057Y-78535714D01*
X163370057Y-78535714D02*
X163465295Y-78583333D01*
X163465295Y-78583333D02*
X163608152Y-78583333D01*
X163608152Y-78583333D02*
X163703390Y-78535714D01*
X163703390Y-78535714D02*
X163751009Y-78488095D01*
X163751009Y-78488095D02*
X163798628Y-78392857D01*
X163798628Y-78392857D02*
X163798628Y-78011905D01*
X163274819Y-78916667D02*
X163274819Y-79583333D01*
X163274819Y-79583333D02*
X164274819Y-79154762D01*
X173491666Y-78704819D02*
X173824999Y-78228628D01*
X174063094Y-78704819D02*
X174063094Y-77704819D01*
X174063094Y-77704819D02*
X173682142Y-77704819D01*
X173682142Y-77704819D02*
X173586904Y-77752438D01*
X173586904Y-77752438D02*
X173539285Y-77800057D01*
X173539285Y-77800057D02*
X173491666Y-77895295D01*
X173491666Y-77895295D02*
X173491666Y-78038152D01*
X173491666Y-78038152D02*
X173539285Y-78133390D01*
X173539285Y-78133390D02*
X173586904Y-78181009D01*
X173586904Y-78181009D02*
X173682142Y-78228628D01*
X173682142Y-78228628D02*
X174063094Y-78228628D01*
X173110713Y-77800057D02*
X173063094Y-77752438D01*
X173063094Y-77752438D02*
X172967856Y-77704819D01*
X172967856Y-77704819D02*
X172729761Y-77704819D01*
X172729761Y-77704819D02*
X172634523Y-77752438D01*
X172634523Y-77752438D02*
X172586904Y-77800057D01*
X172586904Y-77800057D02*
X172539285Y-77895295D01*
X172539285Y-77895295D02*
X172539285Y-77990533D01*
X172539285Y-77990533D02*
X172586904Y-78133390D01*
X172586904Y-78133390D02*
X173158332Y-78704819D01*
X173158332Y-78704819D02*
X172539285Y-78704819D01*
D11*
%TO.C,U2*%
X178340000Y-69190000D02*
X178340000Y-69240000D01*
X178340000Y-70360000D02*
X178340000Y-71140000D01*
X178340000Y-72260000D02*
X178340000Y-72310000D01*
X178340000Y-72310000D02*
X180160000Y-72310000D01*
X180160000Y-69190000D02*
X178340000Y-69190000D01*
X180160000Y-69240000D02*
X180160000Y-69190000D01*
X180160000Y-72310000D02*
X180160000Y-72260000D01*
X180700000Y-69240000D02*
X180460000Y-68910000D01*
X180940000Y-68910000D01*
X180700000Y-69240000D01*
G36*
X180700000Y-69240000D02*
G01*
X180460000Y-68910000D01*
X180940000Y-68910000D01*
X180700000Y-69240000D01*
G37*
D12*
%TO.C,U3*%
X167450000Y-75309000D02*
X169050000Y-75309000D01*
X169050000Y-72191000D02*
X167450000Y-72191000D01*
D10*
X170840000Y-72800000D02*
G75*
G02*
X170740000Y-72800000I-50000J0D01*
G01*
X170740000Y-72800000D02*
G75*
G02*
X170840000Y-72800000I50000J0D01*
G01*
D11*
%TO.C,C8*%
X164740000Y-73609420D02*
X164740000Y-73890580D01*
X165760000Y-73609420D02*
X165760000Y-73890580D01*
%TO.C,C1*%
X172359420Y-91990000D02*
X172640580Y-91990000D01*
X172359420Y-93010000D02*
X172640580Y-93010000D01*
%TO.C,+BAT-*%
X165630000Y-68580000D02*
X165630000Y-65920000D01*
X168230000Y-65920000D02*
X165630000Y-65920000D01*
X168230000Y-68580000D02*
X165630000Y-68580000D01*
X168230000Y-68580000D02*
X168230000Y-65920000D01*
X170830000Y-65920000D02*
X169500000Y-65920000D01*
X170830000Y-67250000D02*
X170830000Y-65920000D01*
%TO.C,C5*%
X176390580Y-85490000D02*
X176109420Y-85490000D01*
X176390580Y-86510000D02*
X176109420Y-86510000D01*
%TO.C,C7*%
X168365580Y-70490000D02*
X168084420Y-70490000D01*
X168365580Y-71510000D02*
X168084420Y-71510000D01*
%TO.C,U1*%
X166552500Y-91360000D02*
X171172500Y-91360000D01*
X171172500Y-84590000D02*
X166552500Y-84590000D01*
X173052500Y-85285000D02*
X172722500Y-85045000D01*
X173052500Y-84805000D01*
X173052500Y-85285000D01*
G36*
X173052500Y-85285000D02*
G01*
X172722500Y-85045000D01*
X173052500Y-84805000D01*
X173052500Y-85285000D01*
G37*
%TO.C,C6*%
X179890580Y-72990000D02*
X179609420Y-72990000D01*
X179890580Y-74010000D02*
X179609420Y-74010000D01*
%TO.C,R5*%
X175012742Y-70227500D02*
X175487258Y-70227500D01*
X175012742Y-71272500D02*
X175487258Y-71272500D01*
%TO.C,Y1*%
X174540000Y-91310000D02*
X174540000Y-87190000D01*
X177960000Y-91310000D02*
X174540000Y-91310000D01*
%TO.C,C2*%
X175390580Y-73990000D02*
X175109420Y-73990000D01*
X175390580Y-75010000D02*
X175109420Y-75010000D01*
%TO.C,C3*%
X175390580Y-72490000D02*
X175109420Y-72490000D01*
X175390580Y-73510000D02*
X175109420Y-73510000D01*
%TO.C,C4*%
X176109420Y-91990000D02*
X176390580Y-91990000D01*
X176109420Y-93010000D02*
X176390580Y-93010000D01*
%TO.C,R3*%
X176237258Y-75977500D02*
X175762742Y-75977500D01*
X176237258Y-77022500D02*
X175762742Y-77022500D01*
%TO.C,J1*%
X182500000Y-75130000D02*
X180800000Y-75130000D01*
X182500000Y-84470000D02*
X180800000Y-84470000D01*
%TO.C,R7*%
X164727500Y-78512742D02*
X164727500Y-78987258D01*
X165772500Y-78512742D02*
X165772500Y-78987258D01*
%TO.C,R2*%
X176237258Y-77727500D02*
X175762742Y-77727500D01*
X176237258Y-78772500D02*
X175762742Y-78772500D01*
%TD*%
%LPC*%
D13*
%TO.C,S1*%
X148000000Y-66250000D03*
X145000000Y-66250000D03*
%TD*%
D14*
%TO.C,U2*%
X180387500Y-69800000D03*
X180387500Y-70750000D03*
X180387500Y-71700000D03*
X178112500Y-71700000D03*
X178112500Y-69800000D03*
%TD*%
D15*
%TO.C,U3*%
X169395000Y-72800000D03*
X169395000Y-73750000D03*
X169395000Y-74700000D03*
X167105000Y-74700000D03*
X167105000Y-72800000D03*
%TD*%
D16*
%TO.C,C8*%
X165250000Y-72975000D03*
X165250000Y-74525000D03*
%TD*%
D17*
%TO.C,C1*%
X171725000Y-92500000D03*
X173275000Y-92500000D03*
%TD*%
D18*
%TO.C,+BAT-*%
X169500000Y-67250000D03*
D19*
X166960000Y-67250000D03*
%TD*%
D20*
%TO.C,C5*%
X177025000Y-86000000D03*
X175475000Y-86000000D03*
%TD*%
%TO.C,C7*%
X169000000Y-71000000D03*
X167450000Y-71000000D03*
%TD*%
D21*
%TO.C,U1*%
X171725000Y-85050000D03*
X171725000Y-85700000D03*
X171725000Y-86350000D03*
X171725000Y-87000000D03*
X171725000Y-87650000D03*
X171725000Y-88300000D03*
X171725000Y-88950000D03*
X171725000Y-89600000D03*
X171725000Y-90250000D03*
X171725000Y-90900000D03*
X166000000Y-90900000D03*
X166000000Y-90250000D03*
X166000000Y-89600000D03*
X166000000Y-88950000D03*
X166000000Y-88300000D03*
X166000000Y-87650000D03*
X166000000Y-87000000D03*
X166000000Y-86350000D03*
X166000000Y-85700000D03*
X166000000Y-85050000D03*
%TD*%
D20*
%TO.C,C6*%
X180525000Y-73500000D03*
X178975000Y-73500000D03*
%TD*%
D22*
%TO.C,R5*%
X174425000Y-70750000D03*
X176075000Y-70750000D03*
%TD*%
D23*
%TO.C,Y1*%
X175400000Y-90350000D03*
X175400000Y-88150000D03*
X177100000Y-88150000D03*
X177100000Y-90350000D03*
%TD*%
D20*
%TO.C,C2*%
X176025000Y-74500000D03*
X174475000Y-74500000D03*
%TD*%
%TO.C,C3*%
X176025000Y-73000000D03*
X174475000Y-73000000D03*
%TD*%
D17*
%TO.C,C4*%
X175475000Y-92500000D03*
X177025000Y-92500000D03*
%TD*%
D24*
%TO.C,R3*%
X176825000Y-76500000D03*
X175175000Y-76500000D03*
%TD*%
D25*
%TO.C,J1*%
X179670000Y-79300000D03*
D26*
X179670000Y-81320000D03*
D27*
X179670000Y-82550000D03*
D28*
X179670000Y-80300000D03*
D29*
X179670000Y-78280000D03*
D30*
X179670000Y-77050000D03*
D31*
X183550000Y-75480000D03*
X179750000Y-75480000D03*
X183550000Y-84120000D03*
X179750000Y-84120000D03*
%TD*%
D32*
%TO.C,R7*%
X165250000Y-77925000D03*
X165250000Y-79575000D03*
%TD*%
D24*
%TO.C,R2*%
X176825000Y-78250000D03*
X175175000Y-78250000D03*
%TD*%
%LPD*%
M02*
