%TF.GenerationSoftware,KiCad,Pcbnew,9.0.6*%
%TF.CreationDate,2025-11-17T13:54:39+01:00*%
%TF.ProjectId,CH32Console,43483332-436f-46e7-936f-6c652e6b6963,rev?*%
%TF.SameCoordinates,Original*%
%TF.FileFunction,Legend,Top*%
%TF.FilePolarity,Positive*%
%FSLAX46Y46*%
G04 Gerber Fmt 4.6, Leading zero omitted, Abs format (unit mm)*
G04 Created by KiCad (PCBNEW 9.0.6) date 2025-11-17 13:54:39*
%MOMM*%
%LPD*%
G01*
G04 APERTURE LIST*
G04 Aperture macros list*
%AMRoundRect*
0 Rectangle with rounded corners*
0 $1 Rounding radius*
0 $2 $3 $4 $5 $6 $7 $8 $9 X,Y pos of 4 corners*
0 Add a 4 corners polygon primitive as box body*
4,1,4,$2,$3,$4,$5,$6,$7,$8,$9,$2,$3,0*
0 Add four circle primitives for the rounded corners*
1,1,$1+$1,$2,$3*
1,1,$1+$1,$4,$5*
1,1,$1+$1,$6,$7*
1,1,$1+$1,$8,$9*
0 Add four rect primitives between the rounded corners*
20,1,$1+$1,$2,$3,$4,$5,0*
20,1,$1+$1,$4,$5,$6,$7,0*
20,1,$1+$1,$6,$7,$8,$9,0*
20,1,$1+$1,$8,$9,$2,$3,0*%
G04 Aperture macros list end*
%ADD10C,0.100000*%
%ADD11C,0.150000*%
%ADD12C,0.127000*%
%ADD13C,0.200000*%
%ADD14C,0.120000*%
%ADD15RoundRect,0.052500X1.447500X0.122500X-1.447500X0.122500X-1.447500X-0.122500X1.447500X-0.122500X0*%
%ADD16RoundRect,0.102000X-0.800000X-0.700000X0.800000X-0.700000X0.800000X0.700000X-0.800000X0.700000X0*%
%ADD17RoundRect,0.237500X-0.287500X-0.237500X0.287500X-0.237500X0.287500X0.237500X-0.287500X0.237500X0*%
%ADD18R,1.000000X1.000000*%
%ADD19RoundRect,0.315000X1.885000X-0.735000X1.885000X0.735000X-1.885000X0.735000X-1.885000X-0.735000X0*%
%ADD20C,0.900000*%
%ADD21RoundRect,0.102000X0.450000X0.625000X-0.450000X0.625000X-0.450000X-0.625000X0.450000X-0.625000X0*%
%ADD22RoundRect,0.102000X0.400000X0.450000X-0.400000X0.450000X-0.400000X-0.450000X0.400000X-0.450000X0*%
%ADD23RoundRect,0.200000X0.200000X0.275000X-0.200000X0.275000X-0.200000X-0.275000X0.200000X-0.275000X0*%
%ADD24RoundRect,0.200000X-0.200000X-0.275000X0.200000X-0.275000X0.200000X0.275000X-0.200000X0.275000X0*%
%ADD25RoundRect,0.200000X0.275000X-0.200000X0.275000X0.200000X-0.275000X0.200000X-0.275000X-0.200000X0*%
%ADD26O,1.700000X1.100000*%
G04 APERTURE END LIST*
D10*
G36*
X111925000Y-67660000D02*
G01*
X111925000Y-67484877D01*
X112445603Y-67484877D01*
X112445603Y-67660000D01*
X111925000Y-67660000D01*
G37*
G36*
X112450366Y-67483412D02*
G01*
X112450366Y-67308290D01*
X112625366Y-67308290D01*
X112625366Y-67483412D01*
X112450366Y-67483412D01*
G37*
G36*
X111750000Y-67483412D02*
G01*
X111750000Y-66609511D01*
X111925000Y-66609511D01*
X111925000Y-67483412D01*
X111750000Y-67483412D01*
G37*
G36*
X112450366Y-66784633D02*
G01*
X112450366Y-66609511D01*
X112625366Y-66609511D01*
X112625366Y-66784633D01*
X112450366Y-66784633D01*
G37*
G36*
X111925000Y-66608046D02*
G01*
X111925000Y-66432923D01*
X112445603Y-66432923D01*
X112445603Y-66608046D01*
X111925000Y-66608046D01*
G37*
G36*
X112799267Y-67660000D02*
G01*
X112799267Y-66432923D01*
X112974267Y-66432923D01*
X112974267Y-66961221D01*
X113499633Y-66961221D01*
X113499633Y-66432923D01*
X113674633Y-66432923D01*
X113674633Y-67660000D01*
X113499633Y-67660000D01*
X113499633Y-67136343D01*
X112974267Y-67136343D01*
X112974267Y-67660000D01*
X112799267Y-67660000D01*
G37*
G36*
X114023534Y-67660000D02*
G01*
X114023534Y-67484877D01*
X114544138Y-67484877D01*
X114544138Y-67660000D01*
X114023534Y-67660000D01*
G37*
G36*
X113848534Y-67483412D02*
G01*
X113848534Y-67308290D01*
X114023534Y-67308290D01*
X114023534Y-67483412D01*
X113848534Y-67483412D01*
G37*
G36*
X114548900Y-67483412D02*
G01*
X114548900Y-67131702D01*
X114723900Y-67131702D01*
X114723900Y-67483412D01*
X114548900Y-67483412D01*
G37*
G36*
X114023534Y-67131702D02*
G01*
X114023534Y-66961221D01*
X114197191Y-66961221D01*
X114197191Y-66784633D01*
X114372191Y-66784633D01*
X114372191Y-66961221D01*
X114544138Y-66961221D01*
X114544138Y-67131702D01*
X114023534Y-67131702D01*
G37*
G36*
X114372191Y-66784633D02*
G01*
X114372191Y-66608046D01*
X113848534Y-66608046D01*
X113848534Y-66432923D01*
X114723900Y-66432923D01*
X114723900Y-66608046D01*
X114544138Y-66608046D01*
X114544138Y-66784633D01*
X114372191Y-66784633D01*
G37*
G36*
X114897801Y-67660000D02*
G01*
X114897801Y-67484877D01*
X115074511Y-67484877D01*
X115074511Y-67309877D01*
X115249511Y-67309877D01*
X115249511Y-67484877D01*
X115773168Y-67484877D01*
X115773168Y-67660000D01*
X114897801Y-67660000D01*
G37*
G36*
X115249511Y-67309877D02*
G01*
X115249511Y-67136343D01*
X115421458Y-67136343D01*
X115421458Y-67309877D01*
X115249511Y-67309877D01*
G37*
G36*
X115421458Y-67136343D02*
G01*
X115421458Y-66961221D01*
X115596458Y-66961221D01*
X115596458Y-67136343D01*
X115421458Y-67136343D01*
G37*
G36*
X114897801Y-66961221D02*
G01*
X114897801Y-66612686D01*
X115072801Y-66612686D01*
X115072801Y-66961221D01*
X114897801Y-66961221D01*
G37*
G36*
X115598168Y-66961221D02*
G01*
X115598168Y-66612686D01*
X115773168Y-66612686D01*
X115773168Y-66961221D01*
X115598168Y-66961221D01*
G37*
G36*
X115074511Y-66608046D02*
G01*
X115074511Y-66432923D01*
X115596458Y-66432923D01*
X115596458Y-66608046D01*
X115074511Y-66608046D01*
G37*
G36*
X116298778Y-67660000D02*
G01*
X116298778Y-67484877D01*
X116470725Y-67484877D01*
X116470725Y-67660000D01*
X116298778Y-67660000D01*
G37*
G36*
X116123778Y-67484877D02*
G01*
X116123778Y-67136343D01*
X116298778Y-67136343D01*
X116298778Y-67484877D01*
X116123778Y-67484877D01*
G37*
G36*
X116470725Y-67484877D02*
G01*
X116470725Y-67136343D01*
X116645725Y-67136343D01*
X116645725Y-67484877D01*
X116470725Y-67484877D01*
G37*
G36*
X115947069Y-67136343D02*
G01*
X115947069Y-66432923D01*
X116122069Y-66432923D01*
X116122069Y-67136343D01*
X115947069Y-67136343D01*
G37*
G36*
X116647435Y-67136343D02*
G01*
X116647435Y-66432923D01*
X116822435Y-66432923D01*
X116822435Y-67136343D01*
X116647435Y-67136343D01*
G37*
G36*
X117171336Y-67660000D02*
G01*
X117171336Y-67484877D01*
X117691939Y-67484877D01*
X117691939Y-67660000D01*
X117171336Y-67660000D01*
G37*
G36*
X117344993Y-67136343D02*
G01*
X117344993Y-66961221D01*
X117519993Y-66961221D01*
X117519993Y-67136343D01*
X117344993Y-67136343D01*
G37*
G36*
X116996336Y-67484877D02*
G01*
X116996336Y-66612686D01*
X117171336Y-66612686D01*
X117171336Y-67484877D01*
X116996336Y-67484877D01*
G37*
G36*
X117696702Y-67484877D02*
G01*
X117696702Y-66612686D01*
X117871702Y-66612686D01*
X117871702Y-67484877D01*
X117696702Y-67484877D01*
G37*
G36*
X117171336Y-66608046D02*
G01*
X117171336Y-66432923D01*
X117691939Y-66432923D01*
X117691939Y-66608046D01*
X117171336Y-66608046D01*
G37*
G36*
X118220603Y-67660000D02*
G01*
X118220603Y-67484877D01*
X118741207Y-67484877D01*
X118741207Y-67660000D01*
X118220603Y-67660000D01*
G37*
G36*
X118394260Y-67136343D02*
G01*
X118394260Y-66961221D01*
X118569260Y-66961221D01*
X118569260Y-67136343D01*
X118394260Y-67136343D01*
G37*
G36*
X118045603Y-67484877D02*
G01*
X118045603Y-66612686D01*
X118220603Y-66612686D01*
X118220603Y-67484877D01*
X118045603Y-67484877D01*
G37*
G36*
X118745969Y-67484877D02*
G01*
X118745969Y-66612686D01*
X118920969Y-66612686D01*
X118920969Y-67484877D01*
X118745969Y-67484877D01*
G37*
G36*
X118220603Y-66608046D02*
G01*
X118220603Y-66432923D01*
X118741207Y-66432923D01*
X118741207Y-66608046D01*
X118220603Y-66608046D01*
G37*
G36*
X119269870Y-67660000D02*
G01*
X119269870Y-67484877D01*
X119790474Y-67484877D01*
X119790474Y-67660000D01*
X119269870Y-67660000D01*
G37*
G36*
X119094870Y-67483412D02*
G01*
X119094870Y-67308290D01*
X119269870Y-67308290D01*
X119269870Y-67483412D01*
X119094870Y-67483412D01*
G37*
G36*
X119795237Y-67483412D02*
G01*
X119795237Y-67131702D01*
X119970237Y-67131702D01*
X119970237Y-67483412D01*
X119795237Y-67483412D01*
G37*
G36*
X119269870Y-67131702D02*
G01*
X119269870Y-66961221D01*
X119443527Y-66961221D01*
X119443527Y-66784633D01*
X119618527Y-66784633D01*
X119618527Y-66961221D01*
X119790474Y-66961221D01*
X119790474Y-67131702D01*
X119269870Y-67131702D01*
G37*
G36*
X119618527Y-66784633D02*
G01*
X119618527Y-66608046D01*
X119094870Y-66608046D01*
X119094870Y-66432923D01*
X119970237Y-66432923D01*
X119970237Y-66608046D01*
X119790474Y-66608046D01*
X119790474Y-66784633D01*
X119618527Y-66784633D01*
G37*
G36*
X121193649Y-67308290D02*
G01*
X121193649Y-66956580D01*
X121367306Y-66956580D01*
X121367306Y-67308290D01*
X121193649Y-67308290D01*
G37*
G36*
X120843649Y-67660000D02*
G01*
X120843649Y-66432923D01*
X121018649Y-66432923D01*
X121018649Y-66612686D01*
X121193649Y-66612686D01*
X121193649Y-66956580D01*
X121018649Y-66956580D01*
X121018649Y-67660000D01*
X120843649Y-67660000D01*
G37*
G36*
X121544016Y-67660000D02*
G01*
X121544016Y-66956580D01*
X121367306Y-66956580D01*
X121367306Y-66612686D01*
X121544016Y-66612686D01*
X121544016Y-66432923D01*
X121719016Y-66432923D01*
X121719016Y-67660000D01*
X121544016Y-67660000D01*
G37*
G36*
X121892916Y-67660000D02*
G01*
X121892916Y-66784633D01*
X122067916Y-66784633D01*
X122067916Y-67660000D01*
X121892916Y-67660000D01*
G37*
G36*
X121892916Y-66608046D02*
G01*
X121892916Y-66432923D01*
X122067916Y-66432923D01*
X122067916Y-66608046D01*
X121892916Y-66608046D01*
G37*
G36*
X122946092Y-67660000D02*
G01*
X122946092Y-66956580D01*
X123118039Y-66956580D01*
X123118039Y-67660000D01*
X122946092Y-67660000D01*
G37*
G36*
X122242672Y-67660000D02*
G01*
X122242672Y-66784633D01*
X122417672Y-66784633D01*
X122417672Y-66956580D01*
X122594382Y-66956580D01*
X122594382Y-67131702D01*
X122417672Y-67131702D01*
X122417672Y-67660000D01*
X122242672Y-67660000D01*
G37*
G36*
X122594382Y-66959755D02*
G01*
X122594382Y-66784633D01*
X122946092Y-66784633D01*
X122946092Y-66959755D01*
X122594382Y-66959755D01*
G37*
G36*
X123291939Y-67660000D02*
G01*
X123291939Y-66784633D01*
X123466939Y-66784633D01*
X123466939Y-67660000D01*
X123291939Y-67660000D01*
G37*
G36*
X123291939Y-66608046D02*
G01*
X123291939Y-66432923D01*
X123466939Y-66432923D01*
X123466939Y-66608046D01*
X123291939Y-66608046D01*
G37*
G36*
X124516207Y-67660000D02*
G01*
X124516207Y-67484877D01*
X125041573Y-67484877D01*
X125041573Y-67136343D01*
X124863276Y-67136343D01*
X124863276Y-66961221D01*
X125216573Y-66961221D01*
X125216573Y-67660000D01*
X124516207Y-67660000D01*
G37*
G36*
X124341207Y-67484877D02*
G01*
X124341207Y-66612686D01*
X124516207Y-66612686D01*
X124516207Y-67484877D01*
X124341207Y-67484877D01*
G37*
G36*
X125041573Y-66787808D02*
G01*
X125041573Y-66612686D01*
X125216573Y-66612686D01*
X125216573Y-66787808D01*
X125041573Y-66787808D01*
G37*
G36*
X124516207Y-66608046D02*
G01*
X124516207Y-66432923D01*
X125036810Y-66432923D01*
X125036810Y-66608046D01*
X124516207Y-66608046D01*
G37*
G36*
X125390474Y-67483412D02*
G01*
X125390474Y-67308290D01*
X125565474Y-67308290D01*
X125565474Y-67483412D01*
X125390474Y-67483412D01*
G37*
G36*
X125565474Y-67660000D02*
G01*
X125565474Y-67484877D01*
X126090840Y-67484877D01*
X126090840Y-67308290D01*
X125565474Y-67308290D01*
X125565474Y-67136343D01*
X126090840Y-67136343D01*
X126090840Y-66959755D01*
X126265840Y-66959755D01*
X126265840Y-67660000D01*
X125565474Y-67660000D01*
G37*
G36*
X125565474Y-66959755D02*
G01*
X125565474Y-66784633D01*
X126086078Y-66784633D01*
X126086078Y-66959755D01*
X125565474Y-66959755D01*
G37*
G36*
X126789741Y-67660000D02*
G01*
X126789741Y-66956580D01*
X126963398Y-66956580D01*
X126963398Y-67660000D01*
X126789741Y-67660000D01*
G37*
G36*
X127140108Y-67660000D02*
G01*
X127140108Y-66956580D01*
X127315108Y-66956580D01*
X127315108Y-67660000D01*
X127140108Y-67660000D01*
G37*
G36*
X126439741Y-67660000D02*
G01*
X126439741Y-66784633D01*
X126789741Y-66784633D01*
X126789741Y-66959755D01*
X126614741Y-66959755D01*
X126614741Y-67660000D01*
X126439741Y-67660000D01*
G37*
G36*
X126963398Y-66959755D02*
G01*
X126963398Y-66784633D01*
X127138398Y-66784633D01*
X127138398Y-66959755D01*
X126963398Y-66959755D01*
G37*
G36*
X127664009Y-67660000D02*
G01*
X127664009Y-67484877D01*
X128184612Y-67484877D01*
X128184612Y-67660000D01*
X127664009Y-67660000D01*
G37*
G36*
X127489009Y-67480237D02*
G01*
X127489009Y-66956580D01*
X127664009Y-66956580D01*
X127664009Y-67136343D01*
X128189375Y-67136343D01*
X128189375Y-66956580D01*
X128364375Y-66956580D01*
X128364375Y-67311465D01*
X127664009Y-67311465D01*
X127664009Y-67480237D01*
X127489009Y-67480237D01*
G37*
G36*
X127664009Y-66959755D02*
G01*
X127664009Y-66784633D01*
X128184612Y-66784633D01*
X128184612Y-66959755D01*
X127664009Y-66959755D01*
G37*
G36*
X129412787Y-67660000D02*
G01*
X129412787Y-67484877D01*
X129933391Y-67484877D01*
X129933391Y-67660000D01*
X129412787Y-67660000D01*
G37*
G36*
X129938154Y-67483412D02*
G01*
X129938154Y-67308290D01*
X130113154Y-67308290D01*
X130113154Y-67483412D01*
X129938154Y-67483412D01*
G37*
G36*
X129237787Y-67483412D02*
G01*
X129237787Y-66609511D01*
X129412787Y-66609511D01*
X129412787Y-67483412D01*
X129237787Y-67483412D01*
G37*
G36*
X129938154Y-66784633D02*
G01*
X129938154Y-66609511D01*
X130113154Y-66609511D01*
X130113154Y-66784633D01*
X129938154Y-66784633D01*
G37*
G36*
X129412787Y-66608046D02*
G01*
X129412787Y-66432923D01*
X129933391Y-66432923D01*
X129933391Y-66608046D01*
X129412787Y-66608046D01*
G37*
G36*
X130462055Y-67660000D02*
G01*
X130462055Y-67484877D01*
X130982658Y-67484877D01*
X130982658Y-67660000D01*
X130462055Y-67660000D01*
G37*
G36*
X130287055Y-67480237D02*
G01*
X130287055Y-66956580D01*
X130462055Y-66956580D01*
X130462055Y-67480237D01*
X130287055Y-67480237D01*
G37*
G36*
X130987421Y-67480237D02*
G01*
X130987421Y-66956580D01*
X131162421Y-66956580D01*
X131162421Y-67480237D01*
X130987421Y-67480237D01*
G37*
G36*
X130462055Y-66959755D02*
G01*
X130462055Y-66784633D01*
X130982658Y-66784633D01*
X130982658Y-66959755D01*
X130462055Y-66959755D01*
G37*
G36*
X132039741Y-67660000D02*
G01*
X132039741Y-66956580D01*
X132211688Y-66956580D01*
X132211688Y-67660000D01*
X132039741Y-67660000D01*
G37*
G36*
X131336322Y-67660000D02*
G01*
X131336322Y-66784633D01*
X131511322Y-66784633D01*
X131511322Y-66956580D01*
X131688032Y-66956580D01*
X131688032Y-67131702D01*
X131511322Y-67131702D01*
X131511322Y-67660000D01*
X131336322Y-67660000D01*
G37*
G36*
X131688032Y-66959755D02*
G01*
X131688032Y-66784633D01*
X132039741Y-66784633D01*
X132039741Y-66959755D01*
X131688032Y-66959755D01*
G37*
G36*
X132385589Y-67660000D02*
G01*
X132385589Y-67484877D01*
X133081193Y-67484877D01*
X133081193Y-67660000D01*
X132385589Y-67660000D01*
G37*
G36*
X133085956Y-67483412D02*
G01*
X133085956Y-67308290D01*
X133260956Y-67308290D01*
X133260956Y-67483412D01*
X133085956Y-67483412D01*
G37*
G36*
X132560589Y-67308290D02*
G01*
X132560589Y-67136343D01*
X133081193Y-67136343D01*
X133081193Y-67308290D01*
X132560589Y-67308290D01*
G37*
G36*
X132385589Y-67136343D02*
G01*
X132385589Y-66961221D01*
X132560589Y-66961221D01*
X132560589Y-67136343D01*
X132385589Y-67136343D01*
G37*
G36*
X132560589Y-66959755D02*
G01*
X132560589Y-66784633D01*
X133260956Y-66784633D01*
X133260956Y-66959755D01*
X132560589Y-66959755D01*
G37*
G36*
X133609856Y-67660000D02*
G01*
X133609856Y-67484877D01*
X134130460Y-67484877D01*
X134130460Y-67660000D01*
X133609856Y-67660000D01*
G37*
G36*
X133434856Y-67480237D02*
G01*
X133434856Y-66956580D01*
X133609856Y-66956580D01*
X133609856Y-67480237D01*
X133434856Y-67480237D01*
G37*
G36*
X134135223Y-67480237D02*
G01*
X134135223Y-66956580D01*
X134310223Y-66956580D01*
X134310223Y-67480237D01*
X134135223Y-67480237D01*
G37*
G36*
X133609856Y-66959755D02*
G01*
X133609856Y-66784633D01*
X134130460Y-66784633D01*
X134130460Y-66959755D01*
X133609856Y-66959755D01*
G37*
G36*
X134660833Y-67660000D02*
G01*
X134660833Y-67484877D01*
X134835833Y-67484877D01*
X134835833Y-67660000D01*
X134660833Y-67660000D01*
G37*
G36*
X134484124Y-67480237D02*
G01*
X134484124Y-66432923D01*
X134659124Y-66432923D01*
X134659124Y-67480237D01*
X134484124Y-67480237D01*
G37*
G36*
X135182780Y-67660000D02*
G01*
X135182780Y-67484877D01*
X135703384Y-67484877D01*
X135703384Y-67660000D01*
X135182780Y-67660000D01*
G37*
G36*
X135007780Y-67480237D02*
G01*
X135007780Y-66956580D01*
X135182780Y-66956580D01*
X135182780Y-67136343D01*
X135708147Y-67136343D01*
X135708147Y-66956580D01*
X135883147Y-66956580D01*
X135883147Y-67311465D01*
X135182780Y-67311465D01*
X135182780Y-67480237D01*
X135007780Y-67480237D01*
G37*
G36*
X135182780Y-66959755D02*
G01*
X135182780Y-66784633D01*
X135703384Y-66784633D01*
X135703384Y-66959755D01*
X135182780Y-66959755D01*
G37*
G36*
X137108269Y-67660000D02*
G01*
X137108269Y-67484877D01*
X137280216Y-67484877D01*
X137280216Y-67660000D01*
X137108269Y-67660000D01*
G37*
G36*
X136933269Y-67484877D02*
G01*
X136933269Y-67136343D01*
X137108269Y-67136343D01*
X137108269Y-67484877D01*
X136933269Y-67484877D01*
G37*
G36*
X137280216Y-67484877D02*
G01*
X137280216Y-67136343D01*
X137455216Y-67136343D01*
X137455216Y-67484877D01*
X137280216Y-67484877D01*
G37*
G36*
X136756559Y-67136343D02*
G01*
X136756559Y-66432923D01*
X136931559Y-66432923D01*
X136931559Y-67136343D01*
X136756559Y-67136343D01*
G37*
G36*
X137456926Y-67136343D02*
G01*
X137456926Y-66432923D01*
X137631926Y-66432923D01*
X137631926Y-67136343D01*
X137456926Y-67136343D01*
G37*
G36*
X137985589Y-67660000D02*
G01*
X137985589Y-66784633D01*
X137809734Y-66784633D01*
X137809734Y-66609511D01*
X137985589Y-66609511D01*
X137985589Y-66432923D01*
X138160589Y-66432923D01*
X138160589Y-67660000D01*
X137985589Y-67660000D01*
G37*
G36*
X138329483Y-67660000D02*
G01*
X138329483Y-67308290D01*
X138681193Y-67308290D01*
X138681193Y-67660000D01*
X138329483Y-67660000D01*
G37*
G36*
X139377896Y-67660000D02*
G01*
X139377896Y-67484877D01*
X139898499Y-67484877D01*
X139898499Y-67660000D01*
X139377896Y-67660000D01*
G37*
G36*
X139551552Y-67136343D02*
G01*
X139551552Y-66961221D01*
X139726552Y-66961221D01*
X139726552Y-67136343D01*
X139551552Y-67136343D01*
G37*
G36*
X139202896Y-67484877D02*
G01*
X139202896Y-66612686D01*
X139377896Y-66612686D01*
X139377896Y-67484877D01*
X139202896Y-67484877D01*
G37*
G36*
X139903262Y-67484877D02*
G01*
X139903262Y-66612686D01*
X140078262Y-66612686D01*
X140078262Y-67484877D01*
X139903262Y-67484877D01*
G37*
G36*
X139377896Y-66608046D02*
G01*
X139377896Y-66432923D01*
X139898499Y-66432923D01*
X139898499Y-66608046D01*
X139377896Y-66608046D01*
G37*
G36*
X112277564Y-68860177D02*
G01*
X112277564Y-68467435D01*
X112406524Y-68467435D01*
X112406524Y-68860177D01*
X112277564Y-68860177D01*
G37*
G36*
X112013782Y-68469816D02*
G01*
X112013782Y-68338475D01*
X112277564Y-68338475D01*
X112277564Y-68469816D01*
X112013782Y-68469816D01*
G37*
G36*
X111750000Y-68995000D02*
G01*
X111750000Y-68074692D01*
X111881250Y-68074692D01*
X111881250Y-68467435D01*
X112013782Y-68467435D01*
X112013782Y-68598777D01*
X111881250Y-68598777D01*
X111881250Y-68863658D01*
X112277564Y-68863658D01*
X112277564Y-68995000D01*
X111750000Y-68995000D01*
G37*
G36*
X112536950Y-69258782D02*
G01*
X112536950Y-69127440D01*
X112668200Y-69127440D01*
X112668200Y-69258782D01*
X112536950Y-69258782D01*
G37*
G36*
X112669482Y-69126341D02*
G01*
X112669482Y-68995000D01*
X112800732Y-68995000D01*
X112800732Y-69126341D01*
X112669482Y-69126341D01*
G37*
G36*
X112800732Y-68995000D02*
G01*
X112800732Y-68863658D01*
X112929692Y-68863658D01*
X112929692Y-68995000D01*
X112800732Y-68995000D01*
G37*
G36*
X112669482Y-68863658D02*
G01*
X112669482Y-68734698D01*
X112800732Y-68734698D01*
X112800732Y-68863658D01*
X112669482Y-68863658D01*
G37*
G36*
X112929692Y-68863658D02*
G01*
X112929692Y-68734698D01*
X113060942Y-68734698D01*
X113060942Y-68863658D01*
X112929692Y-68863658D01*
G37*
G36*
X112536950Y-68731217D02*
G01*
X112536950Y-68338475D01*
X112668200Y-68338475D01*
X112668200Y-68731217D01*
X112536950Y-68731217D01*
G37*
G36*
X113062225Y-68731217D02*
G01*
X113062225Y-68338475D01*
X113193475Y-68338475D01*
X113193475Y-68731217D01*
X113062225Y-68731217D01*
G37*
G36*
X114111034Y-68731217D02*
G01*
X114111034Y-68467435D01*
X114241277Y-68467435D01*
X114241277Y-68731217D01*
X114111034Y-68731217D01*
G37*
G36*
X113848534Y-68995000D02*
G01*
X113848534Y-68074692D01*
X113979784Y-68074692D01*
X113979784Y-68209515D01*
X114111034Y-68209515D01*
X114111034Y-68467435D01*
X113979784Y-68467435D01*
X113979784Y-68995000D01*
X113848534Y-68995000D01*
G37*
G36*
X114373809Y-68995000D02*
G01*
X114373809Y-68467435D01*
X114241277Y-68467435D01*
X114241277Y-68209515D01*
X114373809Y-68209515D01*
X114373809Y-68074692D01*
X114505059Y-68074692D01*
X114505059Y-68995000D01*
X114373809Y-68995000D01*
G37*
G36*
X114635484Y-68862559D02*
G01*
X114635484Y-68731217D01*
X114766734Y-68731217D01*
X114766734Y-68862559D01*
X114635484Y-68862559D01*
G37*
G36*
X114766734Y-68995000D02*
G01*
X114766734Y-68863658D01*
X115160759Y-68863658D01*
X115160759Y-68731217D01*
X114766734Y-68731217D01*
X114766734Y-68602257D01*
X115160759Y-68602257D01*
X115160759Y-68469816D01*
X115292009Y-68469816D01*
X115292009Y-68995000D01*
X114766734Y-68995000D01*
G37*
G36*
X114766734Y-68469816D02*
G01*
X114766734Y-68338475D01*
X115157187Y-68338475D01*
X115157187Y-68469816D01*
X114766734Y-68469816D01*
G37*
G36*
X115815177Y-68995000D02*
G01*
X115815177Y-68863658D01*
X115946427Y-68863658D01*
X115946427Y-68995000D01*
X115815177Y-68995000D01*
G37*
G36*
X115684935Y-68862559D02*
G01*
X115684935Y-68731217D01*
X115815177Y-68731217D01*
X115815177Y-68862559D01*
X115684935Y-68862559D01*
G37*
G36*
X115684935Y-68602257D02*
G01*
X115684935Y-68470915D01*
X115815177Y-68470915D01*
X115815177Y-68602257D01*
X115684935Y-68602257D01*
G37*
G36*
X115815177Y-68469816D02*
G01*
X115815177Y-68338475D01*
X115946427Y-68338475D01*
X115946427Y-68469816D01*
X115815177Y-68469816D01*
G37*
G36*
X115422435Y-68995000D02*
G01*
X115422435Y-68074692D01*
X115553685Y-68074692D01*
X115553685Y-68602257D01*
X115684935Y-68602257D01*
X115684935Y-68731217D01*
X115553685Y-68731217D01*
X115553685Y-68995000D01*
X115422435Y-68995000D01*
G37*
G36*
X116077494Y-68995000D02*
G01*
X116077494Y-68863658D01*
X116599197Y-68863658D01*
X116599197Y-68995000D01*
X116077494Y-68995000D01*
G37*
G36*
X116602769Y-68862559D02*
G01*
X116602769Y-68731217D01*
X116734019Y-68731217D01*
X116734019Y-68862559D01*
X116602769Y-68862559D01*
G37*
G36*
X116208744Y-68731217D02*
G01*
X116208744Y-68602257D01*
X116599197Y-68602257D01*
X116599197Y-68731217D01*
X116208744Y-68731217D01*
G37*
G36*
X116077494Y-68602257D02*
G01*
X116077494Y-68470915D01*
X116208744Y-68470915D01*
X116208744Y-68602257D01*
X116077494Y-68602257D01*
G37*
G36*
X116208744Y-68469816D02*
G01*
X116208744Y-68338475D01*
X116734019Y-68338475D01*
X116734019Y-68469816D01*
X116208744Y-68469816D01*
G37*
G36*
X116864445Y-69258782D02*
G01*
X116864445Y-69127440D01*
X116995695Y-69127440D01*
X116995695Y-69258782D01*
X116864445Y-69258782D01*
G37*
G36*
X116996977Y-69126341D02*
G01*
X116996977Y-68995000D01*
X117128227Y-68995000D01*
X117128227Y-69126341D01*
X116996977Y-69126341D01*
G37*
G36*
X117128227Y-68995000D02*
G01*
X117128227Y-68863658D01*
X117257187Y-68863658D01*
X117257187Y-68995000D01*
X117128227Y-68995000D01*
G37*
G36*
X116996977Y-68863658D02*
G01*
X116996977Y-68734698D01*
X117128227Y-68734698D01*
X117128227Y-68863658D01*
X116996977Y-68863658D01*
G37*
G36*
X117257187Y-68863658D02*
G01*
X117257187Y-68734698D01*
X117388437Y-68734698D01*
X117388437Y-68863658D01*
X117257187Y-68863658D01*
G37*
G36*
X116864445Y-68731217D02*
G01*
X116864445Y-68338475D01*
X116995695Y-68338475D01*
X116995695Y-68731217D01*
X116864445Y-68731217D01*
G37*
G36*
X117389719Y-68731217D02*
G01*
X117389719Y-68338475D01*
X117520969Y-68338475D01*
X117520969Y-68731217D01*
X117389719Y-68731217D01*
G37*
G36*
X117913895Y-68995000D02*
G01*
X117913895Y-68467435D01*
X118044138Y-68467435D01*
X118044138Y-68995000D01*
X117913895Y-68995000D01*
G37*
G36*
X118176670Y-68995000D02*
G01*
X118176670Y-68467435D01*
X118307920Y-68467435D01*
X118307920Y-68995000D01*
X118176670Y-68995000D01*
G37*
G36*
X117651395Y-68995000D02*
G01*
X117651395Y-68338475D01*
X117913895Y-68338475D01*
X117913895Y-68469816D01*
X117782645Y-68469816D01*
X117782645Y-68995000D01*
X117651395Y-68995000D01*
G37*
G36*
X118044138Y-68469816D02*
G01*
X118044138Y-68338475D01*
X118175388Y-68338475D01*
X118175388Y-68469816D01*
X118044138Y-68469816D01*
G37*
G36*
X119094229Y-68995000D02*
G01*
X119094229Y-68863658D01*
X119484682Y-68863658D01*
X119484682Y-68995000D01*
X119094229Y-68995000D01*
G37*
G36*
X119488254Y-68862559D02*
G01*
X119488254Y-68731217D01*
X119619504Y-68731217D01*
X119619504Y-68862559D01*
X119488254Y-68862559D01*
G37*
G36*
X118962979Y-68862559D02*
G01*
X118962979Y-68207133D01*
X119094229Y-68207133D01*
X119094229Y-68862559D01*
X118962979Y-68862559D01*
G37*
G36*
X119488254Y-68338475D02*
G01*
X119488254Y-68207133D01*
X119619504Y-68207133D01*
X119619504Y-68338475D01*
X119488254Y-68338475D01*
G37*
G36*
X119094229Y-68206034D02*
G01*
X119094229Y-68074692D01*
X119484682Y-68074692D01*
X119484682Y-68206034D01*
X119094229Y-68206034D01*
G37*
G36*
X119881180Y-68995000D02*
G01*
X119881180Y-68863658D01*
X120142672Y-68863658D01*
X120142672Y-68995000D01*
X119881180Y-68995000D01*
G37*
G36*
X119749930Y-68866039D02*
G01*
X119749930Y-68338475D01*
X119881180Y-68338475D01*
X119881180Y-68866039D01*
X119749930Y-68866039D01*
G37*
G36*
X120275204Y-68995000D02*
G01*
X120275204Y-68866039D01*
X120142672Y-68866039D01*
X120142672Y-68734698D01*
X120275204Y-68734698D01*
X120275204Y-68338475D01*
X120406454Y-68338475D01*
X120406454Y-68995000D01*
X120275204Y-68995000D01*
G37*
G36*
X120536880Y-68995000D02*
G01*
X120536880Y-68338475D01*
X120668130Y-68338475D01*
X120668130Y-68470915D01*
X120800662Y-68470915D01*
X120800662Y-68602257D01*
X120668130Y-68602257D01*
X120668130Y-68995000D01*
X120536880Y-68995000D01*
G37*
G36*
X120800662Y-68469816D02*
G01*
X120800662Y-68338475D01*
X121064445Y-68338475D01*
X121064445Y-68469816D01*
X120800662Y-68469816D01*
G37*
G36*
X121323189Y-68995000D02*
G01*
X121323189Y-68863658D01*
X121584682Y-68863658D01*
X121584682Y-68995000D01*
X121323189Y-68995000D01*
G37*
G36*
X121191939Y-68866039D02*
G01*
X121191939Y-68338475D01*
X121323189Y-68338475D01*
X121323189Y-68866039D01*
X121191939Y-68866039D01*
G37*
G36*
X121717214Y-68995000D02*
G01*
X121717214Y-68866039D01*
X121584682Y-68866039D01*
X121584682Y-68734698D01*
X121717214Y-68734698D01*
X121717214Y-68338475D01*
X121848464Y-68338475D01*
X121848464Y-68995000D01*
X121717214Y-68995000D01*
G37*
G36*
X122111422Y-68995000D02*
G01*
X122111422Y-68863658D01*
X122242672Y-68863658D01*
X122242672Y-68995000D01*
X122111422Y-68995000D01*
G37*
G36*
X121978890Y-68860177D02*
G01*
X121978890Y-68074692D01*
X122110140Y-68074692D01*
X122110140Y-68860177D01*
X121978890Y-68860177D01*
G37*
G36*
X122896266Y-68995000D02*
G01*
X122896266Y-68863658D01*
X123028798Y-68863658D01*
X123028798Y-68732408D01*
X123160048Y-68732408D01*
X123160048Y-68863658D01*
X123552791Y-68863658D01*
X123552791Y-68995000D01*
X122896266Y-68995000D01*
G37*
G36*
X123160048Y-68732408D02*
G01*
X123160048Y-68602257D01*
X123289009Y-68602257D01*
X123289009Y-68732408D01*
X123160048Y-68732408D01*
G37*
G36*
X123289009Y-68602257D02*
G01*
X123289009Y-68470915D01*
X123420259Y-68470915D01*
X123420259Y-68602257D01*
X123289009Y-68602257D01*
G37*
G36*
X122896266Y-68470915D02*
G01*
X122896266Y-68209515D01*
X123027516Y-68209515D01*
X123027516Y-68470915D01*
X122896266Y-68470915D01*
G37*
G36*
X123421541Y-68470915D02*
G01*
X123421541Y-68209515D01*
X123552791Y-68209515D01*
X123552791Y-68470915D01*
X123421541Y-68470915D01*
G37*
G36*
X123028798Y-68206034D02*
G01*
X123028798Y-68074692D01*
X123420259Y-68074692D01*
X123420259Y-68206034D01*
X123028798Y-68206034D01*
G37*
G36*
X123814467Y-68995000D02*
G01*
X123814467Y-68863658D01*
X124204919Y-68863658D01*
X124204919Y-68995000D01*
X123814467Y-68995000D01*
G37*
G36*
X123944709Y-68602257D02*
G01*
X123944709Y-68470915D01*
X124075959Y-68470915D01*
X124075959Y-68602257D01*
X123944709Y-68602257D01*
G37*
G36*
X123683217Y-68863658D02*
G01*
X123683217Y-68209515D01*
X123814467Y-68209515D01*
X123814467Y-68863658D01*
X123683217Y-68863658D01*
G37*
G36*
X124208491Y-68863658D02*
G01*
X124208491Y-68209515D01*
X124339741Y-68209515D01*
X124339741Y-68863658D01*
X124208491Y-68863658D01*
G37*
G36*
X123814467Y-68206034D02*
G01*
X123814467Y-68074692D01*
X124204919Y-68074692D01*
X124204919Y-68206034D01*
X123814467Y-68206034D01*
G37*
G36*
X124470167Y-68995000D02*
G01*
X124470167Y-68863658D01*
X124602699Y-68863658D01*
X124602699Y-68732408D01*
X124733949Y-68732408D01*
X124733949Y-68863658D01*
X125126692Y-68863658D01*
X125126692Y-68995000D01*
X124470167Y-68995000D01*
G37*
G36*
X124733949Y-68732408D02*
G01*
X124733949Y-68602257D01*
X124862909Y-68602257D01*
X124862909Y-68732408D01*
X124733949Y-68732408D01*
G37*
G36*
X124862909Y-68602257D02*
G01*
X124862909Y-68470915D01*
X124994159Y-68470915D01*
X124994159Y-68602257D01*
X124862909Y-68602257D01*
G37*
G36*
X124470167Y-68470915D02*
G01*
X124470167Y-68209515D01*
X124601417Y-68209515D01*
X124601417Y-68470915D01*
X124470167Y-68470915D01*
G37*
G36*
X124995442Y-68470915D02*
G01*
X124995442Y-68209515D01*
X125126692Y-68209515D01*
X125126692Y-68470915D01*
X124995442Y-68470915D01*
G37*
G36*
X124602699Y-68206034D02*
G01*
X124602699Y-68074692D01*
X124994159Y-68074692D01*
X124994159Y-68206034D01*
X124602699Y-68206034D01*
G37*
G36*
X125257117Y-68995000D02*
G01*
X125257117Y-68863658D01*
X125784682Y-68863658D01*
X125784682Y-68995000D01*
X125257117Y-68995000D01*
G37*
G36*
X125784682Y-68863658D02*
G01*
X125784682Y-68602257D01*
X125913642Y-68602257D01*
X125913642Y-68863658D01*
X125784682Y-68863658D01*
G37*
G36*
X125257117Y-68602257D02*
G01*
X125257117Y-68074692D01*
X125913642Y-68074692D01*
X125913642Y-68206034D01*
X125388367Y-68206034D01*
X125388367Y-68470915D01*
X125784682Y-68470915D01*
X125784682Y-68602257D01*
X125257117Y-68602257D01*
G37*
X133833333Y-74957419D02*
X133357143Y-74957419D01*
X133357143Y-74957419D02*
X133357143Y-73957419D01*
X134738095Y-74862180D02*
X134690476Y-74909800D01*
X134690476Y-74909800D02*
X134547619Y-74957419D01*
X134547619Y-74957419D02*
X134452381Y-74957419D01*
X134452381Y-74957419D02*
X134309524Y-74909800D01*
X134309524Y-74909800D02*
X134214286Y-74814561D01*
X134214286Y-74814561D02*
X134166667Y-74719323D01*
X134166667Y-74719323D02*
X134119048Y-74528847D01*
X134119048Y-74528847D02*
X134119048Y-74385990D01*
X134119048Y-74385990D02*
X134166667Y-74195514D01*
X134166667Y-74195514D02*
X134214286Y-74100276D01*
X134214286Y-74100276D02*
X134309524Y-74005038D01*
X134309524Y-74005038D02*
X134452381Y-73957419D01*
X134452381Y-73957419D02*
X134547619Y-73957419D01*
X134547619Y-73957419D02*
X134690476Y-74005038D01*
X134690476Y-74005038D02*
X134738095Y-74052657D01*
X135166667Y-74957419D02*
X135166667Y-73957419D01*
X135166667Y-73957419D02*
X135404762Y-73957419D01*
X135404762Y-73957419D02*
X135547619Y-74005038D01*
X135547619Y-74005038D02*
X135642857Y-74100276D01*
X135642857Y-74100276D02*
X135690476Y-74195514D01*
X135690476Y-74195514D02*
X135738095Y-74385990D01*
X135738095Y-74385990D02*
X135738095Y-74528847D01*
X135738095Y-74528847D02*
X135690476Y-74719323D01*
X135690476Y-74719323D02*
X135642857Y-74814561D01*
X135642857Y-74814561D02*
X135547619Y-74909800D01*
X135547619Y-74909800D02*
X135404762Y-74957419D01*
X135404762Y-74957419D02*
X135166667Y-74957419D01*
X136690476Y-74957419D02*
X136119048Y-74957419D01*
X136404762Y-74957419D02*
X136404762Y-73957419D01*
X136404762Y-73957419D02*
X136309524Y-74100276D01*
X136309524Y-74100276D02*
X136214286Y-74195514D01*
X136214286Y-74195514D02*
X136119048Y-74243133D01*
D11*
X110130952Y-79681009D02*
X110273809Y-79728628D01*
X110273809Y-79728628D02*
X110321428Y-79776247D01*
X110321428Y-79776247D02*
X110369047Y-79871485D01*
X110369047Y-79871485D02*
X110369047Y-80014342D01*
X110369047Y-80014342D02*
X110321428Y-80109580D01*
X110321428Y-80109580D02*
X110273809Y-80157200D01*
X110273809Y-80157200D02*
X110178571Y-80204819D01*
X110178571Y-80204819D02*
X109797619Y-80204819D01*
X109797619Y-80204819D02*
X109797619Y-79204819D01*
X109797619Y-79204819D02*
X110130952Y-79204819D01*
X110130952Y-79204819D02*
X110226190Y-79252438D01*
X110226190Y-79252438D02*
X110273809Y-79300057D01*
X110273809Y-79300057D02*
X110321428Y-79395295D01*
X110321428Y-79395295D02*
X110321428Y-79490533D01*
X110321428Y-79490533D02*
X110273809Y-79585771D01*
X110273809Y-79585771D02*
X110226190Y-79633390D01*
X110226190Y-79633390D02*
X110130952Y-79681009D01*
X110130952Y-79681009D02*
X109797619Y-79681009D01*
X110654762Y-79204819D02*
X111226190Y-79204819D01*
X110940476Y-80204819D02*
X110940476Y-79204819D01*
X111559524Y-80204819D02*
X111559524Y-79204819D01*
X111559524Y-79204819D02*
X112130952Y-80204819D01*
X112130952Y-80204819D02*
X112130952Y-79204819D01*
X112369048Y-80300057D02*
X113130952Y-80300057D01*
X113845238Y-80204819D02*
X113369048Y-80204819D01*
X113369048Y-80204819D02*
X113369048Y-79204819D01*
X122535714Y-79681009D02*
X122678571Y-79728628D01*
X122678571Y-79728628D02*
X122726190Y-79776247D01*
X122726190Y-79776247D02*
X122773809Y-79871485D01*
X122773809Y-79871485D02*
X122773809Y-80014342D01*
X122773809Y-80014342D02*
X122726190Y-80109580D01*
X122726190Y-80109580D02*
X122678571Y-80157200D01*
X122678571Y-80157200D02*
X122583333Y-80204819D01*
X122583333Y-80204819D02*
X122202381Y-80204819D01*
X122202381Y-80204819D02*
X122202381Y-79204819D01*
X122202381Y-79204819D02*
X122535714Y-79204819D01*
X122535714Y-79204819D02*
X122630952Y-79252438D01*
X122630952Y-79252438D02*
X122678571Y-79300057D01*
X122678571Y-79300057D02*
X122726190Y-79395295D01*
X122726190Y-79395295D02*
X122726190Y-79490533D01*
X122726190Y-79490533D02*
X122678571Y-79585771D01*
X122678571Y-79585771D02*
X122630952Y-79633390D01*
X122630952Y-79633390D02*
X122535714Y-79681009D01*
X122535714Y-79681009D02*
X122202381Y-79681009D01*
X123059524Y-79204819D02*
X123630952Y-79204819D01*
X123345238Y-80204819D02*
X123345238Y-79204819D01*
X123964286Y-80204819D02*
X123964286Y-79204819D01*
X123964286Y-79204819D02*
X124535714Y-80204819D01*
X124535714Y-80204819D02*
X124535714Y-79204819D01*
X124773810Y-80300057D02*
X125535714Y-80300057D01*
X126345238Y-80204819D02*
X126011905Y-79728628D01*
X125773810Y-80204819D02*
X125773810Y-79204819D01*
X125773810Y-79204819D02*
X126154762Y-79204819D01*
X126154762Y-79204819D02*
X126250000Y-79252438D01*
X126250000Y-79252438D02*
X126297619Y-79300057D01*
X126297619Y-79300057D02*
X126345238Y-79395295D01*
X126345238Y-79395295D02*
X126345238Y-79538152D01*
X126345238Y-79538152D02*
X126297619Y-79633390D01*
X126297619Y-79633390D02*
X126250000Y-79681009D01*
X126250000Y-79681009D02*
X126154762Y-79728628D01*
X126154762Y-79728628D02*
X125773810Y-79728628D01*
X150202380Y-89774819D02*
X149726190Y-89774819D01*
X149726190Y-89774819D02*
X149726190Y-88774819D01*
X150535714Y-89251009D02*
X150869047Y-89251009D01*
X151011904Y-89774819D02*
X150535714Y-89774819D01*
X150535714Y-89774819D02*
X150535714Y-88774819D01*
X150535714Y-88774819D02*
X151011904Y-88774819D01*
X151440476Y-89774819D02*
X151440476Y-88774819D01*
X151440476Y-88774819D02*
X151678571Y-88774819D01*
X151678571Y-88774819D02*
X151821428Y-88822438D01*
X151821428Y-88822438D02*
X151916666Y-88917676D01*
X151916666Y-88917676D02*
X151964285Y-89012914D01*
X151964285Y-89012914D02*
X152011904Y-89203390D01*
X152011904Y-89203390D02*
X152011904Y-89346247D01*
X152011904Y-89346247D02*
X151964285Y-89536723D01*
X151964285Y-89536723D02*
X151916666Y-89631961D01*
X151916666Y-89631961D02*
X151821428Y-89727200D01*
X151821428Y-89727200D02*
X151678571Y-89774819D01*
X151678571Y-89774819D02*
X151440476Y-89774819D01*
X152202381Y-89870057D02*
X152964285Y-89870057D01*
X153773809Y-89679580D02*
X153726190Y-89727200D01*
X153726190Y-89727200D02*
X153583333Y-89774819D01*
X153583333Y-89774819D02*
X153488095Y-89774819D01*
X153488095Y-89774819D02*
X153345238Y-89727200D01*
X153345238Y-89727200D02*
X153250000Y-89631961D01*
X153250000Y-89631961D02*
X153202381Y-89536723D01*
X153202381Y-89536723D02*
X153154762Y-89346247D01*
X153154762Y-89346247D02*
X153154762Y-89203390D01*
X153154762Y-89203390D02*
X153202381Y-89012914D01*
X153202381Y-89012914D02*
X153250000Y-88917676D01*
X153250000Y-88917676D02*
X153345238Y-88822438D01*
X153345238Y-88822438D02*
X153488095Y-88774819D01*
X153488095Y-88774819D02*
X153583333Y-88774819D01*
X153583333Y-88774819D02*
X153726190Y-88822438D01*
X153726190Y-88822438D02*
X153773809Y-88870057D01*
X154202381Y-89774819D02*
X154202381Y-88774819D01*
X154202381Y-89251009D02*
X154773809Y-89251009D01*
X154773809Y-89774819D02*
X154773809Y-88774819D01*
X155821428Y-89774819D02*
X155488095Y-89298628D01*
X155250000Y-89774819D02*
X155250000Y-88774819D01*
X155250000Y-88774819D02*
X155630952Y-88774819D01*
X155630952Y-88774819D02*
X155726190Y-88822438D01*
X155726190Y-88822438D02*
X155773809Y-88870057D01*
X155773809Y-88870057D02*
X155821428Y-88965295D01*
X155821428Y-88965295D02*
X155821428Y-89108152D01*
X155821428Y-89108152D02*
X155773809Y-89203390D01*
X155773809Y-89203390D02*
X155726190Y-89251009D01*
X155726190Y-89251009D02*
X155630952Y-89298628D01*
X155630952Y-89298628D02*
X155250000Y-89298628D01*
X156773809Y-88822438D02*
X156678571Y-88774819D01*
X156678571Y-88774819D02*
X156535714Y-88774819D01*
X156535714Y-88774819D02*
X156392857Y-88822438D01*
X156392857Y-88822438D02*
X156297619Y-88917676D01*
X156297619Y-88917676D02*
X156250000Y-89012914D01*
X156250000Y-89012914D02*
X156202381Y-89203390D01*
X156202381Y-89203390D02*
X156202381Y-89346247D01*
X156202381Y-89346247D02*
X156250000Y-89536723D01*
X156250000Y-89536723D02*
X156297619Y-89631961D01*
X156297619Y-89631961D02*
X156392857Y-89727200D01*
X156392857Y-89727200D02*
X156535714Y-89774819D01*
X156535714Y-89774819D02*
X156630952Y-89774819D01*
X156630952Y-89774819D02*
X156773809Y-89727200D01*
X156773809Y-89727200D02*
X156821428Y-89679580D01*
X156821428Y-89679580D02*
X156821428Y-89346247D01*
X156821428Y-89346247D02*
X156630952Y-89346247D01*
X163011905Y-84204819D02*
X163011905Y-83204819D01*
X163011905Y-83204819D02*
X163392857Y-83204819D01*
X163392857Y-83204819D02*
X163488095Y-83252438D01*
X163488095Y-83252438D02*
X163535714Y-83300057D01*
X163535714Y-83300057D02*
X163583333Y-83395295D01*
X163583333Y-83395295D02*
X163583333Y-83538152D01*
X163583333Y-83538152D02*
X163535714Y-83633390D01*
X163535714Y-83633390D02*
X163488095Y-83681009D01*
X163488095Y-83681009D02*
X163392857Y-83728628D01*
X163392857Y-83728628D02*
X163011905Y-83728628D01*
X164011905Y-84204819D02*
X164011905Y-83204819D01*
X164011905Y-83204819D02*
X164250000Y-83204819D01*
X164250000Y-83204819D02*
X164392857Y-83252438D01*
X164392857Y-83252438D02*
X164488095Y-83347676D01*
X164488095Y-83347676D02*
X164535714Y-83442914D01*
X164535714Y-83442914D02*
X164583333Y-83633390D01*
X164583333Y-83633390D02*
X164583333Y-83776247D01*
X164583333Y-83776247D02*
X164535714Y-83966723D01*
X164535714Y-83966723D02*
X164488095Y-84061961D01*
X164488095Y-84061961D02*
X164392857Y-84157200D01*
X164392857Y-84157200D02*
X164250000Y-84204819D01*
X164250000Y-84204819D02*
X164011905Y-84204819D01*
X165440476Y-83204819D02*
X165250000Y-83204819D01*
X165250000Y-83204819D02*
X165154762Y-83252438D01*
X165154762Y-83252438D02*
X165107143Y-83300057D01*
X165107143Y-83300057D02*
X165011905Y-83442914D01*
X165011905Y-83442914D02*
X164964286Y-83633390D01*
X164964286Y-83633390D02*
X164964286Y-84014342D01*
X164964286Y-84014342D02*
X165011905Y-84109580D01*
X165011905Y-84109580D02*
X165059524Y-84157200D01*
X165059524Y-84157200D02*
X165154762Y-84204819D01*
X165154762Y-84204819D02*
X165345238Y-84204819D01*
X165345238Y-84204819D02*
X165440476Y-84157200D01*
X165440476Y-84157200D02*
X165488095Y-84109580D01*
X165488095Y-84109580D02*
X165535714Y-84014342D01*
X165535714Y-84014342D02*
X165535714Y-83776247D01*
X165535714Y-83776247D02*
X165488095Y-83681009D01*
X165488095Y-83681009D02*
X165440476Y-83633390D01*
X165440476Y-83633390D02*
X165345238Y-83585771D01*
X165345238Y-83585771D02*
X165154762Y-83585771D01*
X165154762Y-83585771D02*
X165059524Y-83633390D01*
X165059524Y-83633390D02*
X165011905Y-83681009D01*
X165011905Y-83681009D02*
X164964286Y-83776247D01*
X171357143Y-87454819D02*
X171357143Y-86454819D01*
X171357143Y-86454819D02*
X171928571Y-87454819D01*
X171928571Y-87454819D02*
X171928571Y-86454819D01*
X172976190Y-87454819D02*
X172642857Y-86978628D01*
X172404762Y-87454819D02*
X172404762Y-86454819D01*
X172404762Y-86454819D02*
X172785714Y-86454819D01*
X172785714Y-86454819D02*
X172880952Y-86502438D01*
X172880952Y-86502438D02*
X172928571Y-86550057D01*
X172928571Y-86550057D02*
X172976190Y-86645295D01*
X172976190Y-86645295D02*
X172976190Y-86788152D01*
X172976190Y-86788152D02*
X172928571Y-86883390D01*
X172928571Y-86883390D02*
X172880952Y-86931009D01*
X172880952Y-86931009D02*
X172785714Y-86978628D01*
X172785714Y-86978628D02*
X172404762Y-86978628D01*
X173357143Y-87407200D02*
X173500000Y-87454819D01*
X173500000Y-87454819D02*
X173738095Y-87454819D01*
X173738095Y-87454819D02*
X173833333Y-87407200D01*
X173833333Y-87407200D02*
X173880952Y-87359580D01*
X173880952Y-87359580D02*
X173928571Y-87264342D01*
X173928571Y-87264342D02*
X173928571Y-87169104D01*
X173928571Y-87169104D02*
X173880952Y-87073866D01*
X173880952Y-87073866D02*
X173833333Y-87026247D01*
X173833333Y-87026247D02*
X173738095Y-86978628D01*
X173738095Y-86978628D02*
X173547619Y-86931009D01*
X173547619Y-86931009D02*
X173452381Y-86883390D01*
X173452381Y-86883390D02*
X173404762Y-86835771D01*
X173404762Y-86835771D02*
X173357143Y-86740533D01*
X173357143Y-86740533D02*
X173357143Y-86645295D01*
X173357143Y-86645295D02*
X173404762Y-86550057D01*
X173404762Y-86550057D02*
X173452381Y-86502438D01*
X173452381Y-86502438D02*
X173547619Y-86454819D01*
X173547619Y-86454819D02*
X173785714Y-86454819D01*
X173785714Y-86454819D02*
X173928571Y-86502438D01*
X174214286Y-86454819D02*
X174785714Y-86454819D01*
X174500000Y-87454819D02*
X174500000Y-86454819D01*
X170057142Y-79681009D02*
X170199999Y-79728628D01*
X170199999Y-79728628D02*
X170247618Y-79776247D01*
X170247618Y-79776247D02*
X170295237Y-79871485D01*
X170295237Y-79871485D02*
X170295237Y-80014342D01*
X170295237Y-80014342D02*
X170247618Y-80109580D01*
X170247618Y-80109580D02*
X170199999Y-80157200D01*
X170199999Y-80157200D02*
X170104761Y-80204819D01*
X170104761Y-80204819D02*
X169723809Y-80204819D01*
X169723809Y-80204819D02*
X169723809Y-79204819D01*
X169723809Y-79204819D02*
X170057142Y-79204819D01*
X170057142Y-79204819D02*
X170152380Y-79252438D01*
X170152380Y-79252438D02*
X170199999Y-79300057D01*
X170199999Y-79300057D02*
X170247618Y-79395295D01*
X170247618Y-79395295D02*
X170247618Y-79490533D01*
X170247618Y-79490533D02*
X170199999Y-79585771D01*
X170199999Y-79585771D02*
X170152380Y-79633390D01*
X170152380Y-79633390D02*
X170057142Y-79681009D01*
X170057142Y-79681009D02*
X169723809Y-79681009D01*
X170580952Y-79204819D02*
X171152380Y-79204819D01*
X170866666Y-80204819D02*
X170866666Y-79204819D01*
X171485714Y-80204819D02*
X171485714Y-79204819D01*
X171485714Y-79204819D02*
X172057142Y-80204819D01*
X172057142Y-80204819D02*
X172057142Y-79204819D01*
X172295238Y-80300057D02*
X173057142Y-80300057D01*
X173247619Y-79919104D02*
X173723809Y-79919104D01*
X173152381Y-80204819D02*
X173485714Y-79204819D01*
X173485714Y-79204819D02*
X173819047Y-80204819D01*
X175488095Y-91752438D02*
X175392857Y-91704819D01*
X175392857Y-91704819D02*
X175250000Y-91704819D01*
X175250000Y-91704819D02*
X175107143Y-91752438D01*
X175107143Y-91752438D02*
X175011905Y-91847676D01*
X175011905Y-91847676D02*
X174964286Y-91942914D01*
X174964286Y-91942914D02*
X174916667Y-92133390D01*
X174916667Y-92133390D02*
X174916667Y-92276247D01*
X174916667Y-92276247D02*
X174964286Y-92466723D01*
X174964286Y-92466723D02*
X175011905Y-92561961D01*
X175011905Y-92561961D02*
X175107143Y-92657200D01*
X175107143Y-92657200D02*
X175250000Y-92704819D01*
X175250000Y-92704819D02*
X175345238Y-92704819D01*
X175345238Y-92704819D02*
X175488095Y-92657200D01*
X175488095Y-92657200D02*
X175535714Y-92609580D01*
X175535714Y-92609580D02*
X175535714Y-92276247D01*
X175535714Y-92276247D02*
X175345238Y-92276247D01*
X175964286Y-92704819D02*
X175964286Y-91704819D01*
X175964286Y-91704819D02*
X176535714Y-92704819D01*
X176535714Y-92704819D02*
X176535714Y-91704819D01*
X177011905Y-92704819D02*
X177011905Y-91704819D01*
X177011905Y-91704819D02*
X177250000Y-91704819D01*
X177250000Y-91704819D02*
X177392857Y-91752438D01*
X177392857Y-91752438D02*
X177488095Y-91847676D01*
X177488095Y-91847676D02*
X177535714Y-91942914D01*
X177535714Y-91942914D02*
X177583333Y-92133390D01*
X177583333Y-92133390D02*
X177583333Y-92276247D01*
X177583333Y-92276247D02*
X177535714Y-92466723D01*
X177535714Y-92466723D02*
X177488095Y-92561961D01*
X177488095Y-92561961D02*
X177392857Y-92657200D01*
X177392857Y-92657200D02*
X177250000Y-92704819D01*
X177250000Y-92704819D02*
X177011905Y-92704819D01*
X116261904Y-73431009D02*
X116404761Y-73478628D01*
X116404761Y-73478628D02*
X116452380Y-73526247D01*
X116452380Y-73526247D02*
X116499999Y-73621485D01*
X116499999Y-73621485D02*
X116499999Y-73764342D01*
X116499999Y-73764342D02*
X116452380Y-73859580D01*
X116452380Y-73859580D02*
X116404761Y-73907200D01*
X116404761Y-73907200D02*
X116309523Y-73954819D01*
X116309523Y-73954819D02*
X115928571Y-73954819D01*
X115928571Y-73954819D02*
X115928571Y-72954819D01*
X115928571Y-72954819D02*
X116261904Y-72954819D01*
X116261904Y-72954819D02*
X116357142Y-73002438D01*
X116357142Y-73002438D02*
X116404761Y-73050057D01*
X116404761Y-73050057D02*
X116452380Y-73145295D01*
X116452380Y-73145295D02*
X116452380Y-73240533D01*
X116452380Y-73240533D02*
X116404761Y-73335771D01*
X116404761Y-73335771D02*
X116357142Y-73383390D01*
X116357142Y-73383390D02*
X116261904Y-73431009D01*
X116261904Y-73431009D02*
X115928571Y-73431009D01*
X116785714Y-72954819D02*
X117357142Y-72954819D01*
X117071428Y-73954819D02*
X117071428Y-72954819D01*
X117690476Y-73954819D02*
X117690476Y-72954819D01*
X117690476Y-72954819D02*
X118261904Y-73954819D01*
X118261904Y-73954819D02*
X118261904Y-72954819D01*
X118500000Y-74050057D02*
X119261904Y-74050057D01*
X119500000Y-72954819D02*
X119500000Y-73764342D01*
X119500000Y-73764342D02*
X119547619Y-73859580D01*
X119547619Y-73859580D02*
X119595238Y-73907200D01*
X119595238Y-73907200D02*
X119690476Y-73954819D01*
X119690476Y-73954819D02*
X119880952Y-73954819D01*
X119880952Y-73954819D02*
X119976190Y-73907200D01*
X119976190Y-73907200D02*
X120023809Y-73859580D01*
X120023809Y-73859580D02*
X120071428Y-73764342D01*
X120071428Y-73764342D02*
X120071428Y-72954819D01*
D10*
X167433609Y-71880952D02*
X167481228Y-71738095D01*
X167481228Y-71738095D02*
X167528847Y-71690476D01*
X167528847Y-71690476D02*
X167624085Y-71642857D01*
X167624085Y-71642857D02*
X167766942Y-71642857D01*
X167766942Y-71642857D02*
X167862180Y-71690476D01*
X167862180Y-71690476D02*
X167909800Y-71738095D01*
X167909800Y-71738095D02*
X167957419Y-71833333D01*
X167957419Y-71833333D02*
X167957419Y-72214285D01*
X167957419Y-72214285D02*
X166957419Y-72214285D01*
X166957419Y-72214285D02*
X166957419Y-71880952D01*
X166957419Y-71880952D02*
X167005038Y-71785714D01*
X167005038Y-71785714D02*
X167052657Y-71738095D01*
X167052657Y-71738095D02*
X167147895Y-71690476D01*
X167147895Y-71690476D02*
X167243133Y-71690476D01*
X167243133Y-71690476D02*
X167338371Y-71738095D01*
X167338371Y-71738095D02*
X167385990Y-71785714D01*
X167385990Y-71785714D02*
X167433609Y-71880952D01*
X167433609Y-71880952D02*
X167433609Y-72214285D01*
X166957419Y-71309523D02*
X166957419Y-70642857D01*
X166957419Y-70642857D02*
X167957419Y-71309523D01*
X167957419Y-71309523D02*
X167957419Y-70642857D01*
X167957419Y-69738095D02*
X167957419Y-70309523D01*
X167957419Y-70023809D02*
X166957419Y-70023809D01*
X166957419Y-70023809D02*
X167100276Y-70119047D01*
X167100276Y-70119047D02*
X167195514Y-70214285D01*
X167195514Y-70214285D02*
X167243133Y-70309523D01*
D11*
X167523810Y-91704819D02*
X168142857Y-91704819D01*
X168142857Y-91704819D02*
X167809524Y-92085771D01*
X167809524Y-92085771D02*
X167952381Y-92085771D01*
X167952381Y-92085771D02*
X168047619Y-92133390D01*
X168047619Y-92133390D02*
X168095238Y-92181009D01*
X168095238Y-92181009D02*
X168142857Y-92276247D01*
X168142857Y-92276247D02*
X168142857Y-92514342D01*
X168142857Y-92514342D02*
X168095238Y-92609580D01*
X168095238Y-92609580D02*
X168047619Y-92657200D01*
X168047619Y-92657200D02*
X167952381Y-92704819D01*
X167952381Y-92704819D02*
X167666667Y-92704819D01*
X167666667Y-92704819D02*
X167571429Y-92657200D01*
X167571429Y-92657200D02*
X167523810Y-92609580D01*
X168571429Y-92609580D02*
X168619048Y-92657200D01*
X168619048Y-92657200D02*
X168571429Y-92704819D01*
X168571429Y-92704819D02*
X168523810Y-92657200D01*
X168523810Y-92657200D02*
X168571429Y-92609580D01*
X168571429Y-92609580D02*
X168571429Y-92704819D01*
X168952381Y-91704819D02*
X169571428Y-91704819D01*
X169571428Y-91704819D02*
X169238095Y-92085771D01*
X169238095Y-92085771D02*
X169380952Y-92085771D01*
X169380952Y-92085771D02*
X169476190Y-92133390D01*
X169476190Y-92133390D02*
X169523809Y-92181009D01*
X169523809Y-92181009D02*
X169571428Y-92276247D01*
X169571428Y-92276247D02*
X169571428Y-92514342D01*
X169571428Y-92514342D02*
X169523809Y-92609580D01*
X169523809Y-92609580D02*
X169476190Y-92657200D01*
X169476190Y-92657200D02*
X169380952Y-92704819D01*
X169380952Y-92704819D02*
X169095238Y-92704819D01*
X169095238Y-92704819D02*
X169000000Y-92657200D01*
X169000000Y-92657200D02*
X168952381Y-92609580D01*
X169857143Y-91704819D02*
X170190476Y-92704819D01*
X170190476Y-92704819D02*
X170523809Y-91704819D01*
X145738095Y-70407200D02*
X145880952Y-70454819D01*
X145880952Y-70454819D02*
X146119047Y-70454819D01*
X146119047Y-70454819D02*
X146214285Y-70407200D01*
X146214285Y-70407200D02*
X146261904Y-70359580D01*
X146261904Y-70359580D02*
X146309523Y-70264342D01*
X146309523Y-70264342D02*
X146309523Y-70169104D01*
X146309523Y-70169104D02*
X146261904Y-70073866D01*
X146261904Y-70073866D02*
X146214285Y-70026247D01*
X146214285Y-70026247D02*
X146119047Y-69978628D01*
X146119047Y-69978628D02*
X145928571Y-69931009D01*
X145928571Y-69931009D02*
X145833333Y-69883390D01*
X145833333Y-69883390D02*
X145785714Y-69835771D01*
X145785714Y-69835771D02*
X145738095Y-69740533D01*
X145738095Y-69740533D02*
X145738095Y-69645295D01*
X145738095Y-69645295D02*
X145785714Y-69550057D01*
X145785714Y-69550057D02*
X145833333Y-69502438D01*
X145833333Y-69502438D02*
X145928571Y-69454819D01*
X145928571Y-69454819D02*
X146166666Y-69454819D01*
X146166666Y-69454819D02*
X146309523Y-69502438D01*
X147261904Y-70454819D02*
X146690476Y-70454819D01*
X146976190Y-70454819D02*
X146976190Y-69454819D01*
X146976190Y-69454819D02*
X146880952Y-69597676D01*
X146880952Y-69597676D02*
X146785714Y-69692914D01*
X146785714Y-69692914D02*
X146690476Y-69740533D01*
X137279761Y-89774819D02*
X136803571Y-89774819D01*
X136803571Y-89774819D02*
X136803571Y-88774819D01*
X137613095Y-89251009D02*
X137946428Y-89251009D01*
X138089285Y-89774819D02*
X137613095Y-89774819D01*
X137613095Y-89774819D02*
X137613095Y-88774819D01*
X137613095Y-88774819D02*
X138089285Y-88774819D01*
X138517857Y-89774819D02*
X138517857Y-88774819D01*
X138517857Y-88774819D02*
X138755952Y-88774819D01*
X138755952Y-88774819D02*
X138898809Y-88822438D01*
X138898809Y-88822438D02*
X138994047Y-88917676D01*
X138994047Y-88917676D02*
X139041666Y-89012914D01*
X139041666Y-89012914D02*
X139089285Y-89203390D01*
X139089285Y-89203390D02*
X139089285Y-89346247D01*
X139089285Y-89346247D02*
X139041666Y-89536723D01*
X139041666Y-89536723D02*
X138994047Y-89631961D01*
X138994047Y-89631961D02*
X138898809Y-89727200D01*
X138898809Y-89727200D02*
X138755952Y-89774819D01*
X138755952Y-89774819D02*
X138517857Y-89774819D01*
X139279762Y-89870057D02*
X140041666Y-89870057D01*
X140279762Y-89774819D02*
X140279762Y-88774819D01*
X140279762Y-88774819D02*
X140660714Y-88774819D01*
X140660714Y-88774819D02*
X140755952Y-88822438D01*
X140755952Y-88822438D02*
X140803571Y-88870057D01*
X140803571Y-88870057D02*
X140851190Y-88965295D01*
X140851190Y-88965295D02*
X140851190Y-89108152D01*
X140851190Y-89108152D02*
X140803571Y-89203390D01*
X140803571Y-89203390D02*
X140755952Y-89251009D01*
X140755952Y-89251009D02*
X140660714Y-89298628D01*
X140660714Y-89298628D02*
X140279762Y-89298628D01*
X141184524Y-88774819D02*
X141422619Y-89774819D01*
X141422619Y-89774819D02*
X141613095Y-89060533D01*
X141613095Y-89060533D02*
X141803571Y-89774819D01*
X141803571Y-89774819D02*
X142041667Y-88774819D01*
X142994047Y-89774819D02*
X142660714Y-89298628D01*
X142422619Y-89774819D02*
X142422619Y-88774819D01*
X142422619Y-88774819D02*
X142803571Y-88774819D01*
X142803571Y-88774819D02*
X142898809Y-88822438D01*
X142898809Y-88822438D02*
X142946428Y-88870057D01*
X142946428Y-88870057D02*
X142994047Y-88965295D01*
X142994047Y-88965295D02*
X142994047Y-89108152D01*
X142994047Y-89108152D02*
X142946428Y-89203390D01*
X142946428Y-89203390D02*
X142898809Y-89251009D01*
X142898809Y-89251009D02*
X142803571Y-89298628D01*
X142803571Y-89298628D02*
X142422619Y-89298628D01*
X171011905Y-84204819D02*
X171011905Y-83204819D01*
X171011905Y-83204819D02*
X171392857Y-83204819D01*
X171392857Y-83204819D02*
X171488095Y-83252438D01*
X171488095Y-83252438D02*
X171535714Y-83300057D01*
X171535714Y-83300057D02*
X171583333Y-83395295D01*
X171583333Y-83395295D02*
X171583333Y-83538152D01*
X171583333Y-83538152D02*
X171535714Y-83633390D01*
X171535714Y-83633390D02*
X171488095Y-83681009D01*
X171488095Y-83681009D02*
X171392857Y-83728628D01*
X171392857Y-83728628D02*
X171011905Y-83728628D01*
X172011905Y-84204819D02*
X172011905Y-83204819D01*
X172011905Y-83204819D02*
X172250000Y-83204819D01*
X172250000Y-83204819D02*
X172392857Y-83252438D01*
X172392857Y-83252438D02*
X172488095Y-83347676D01*
X172488095Y-83347676D02*
X172535714Y-83442914D01*
X172535714Y-83442914D02*
X172583333Y-83633390D01*
X172583333Y-83633390D02*
X172583333Y-83776247D01*
X172583333Y-83776247D02*
X172535714Y-83966723D01*
X172535714Y-83966723D02*
X172488095Y-84061961D01*
X172488095Y-84061961D02*
X172392857Y-84157200D01*
X172392857Y-84157200D02*
X172250000Y-84204819D01*
X172250000Y-84204819D02*
X172011905Y-84204819D01*
X173488095Y-83204819D02*
X173011905Y-83204819D01*
X173011905Y-83204819D02*
X172964286Y-83681009D01*
X172964286Y-83681009D02*
X173011905Y-83633390D01*
X173011905Y-83633390D02*
X173107143Y-83585771D01*
X173107143Y-83585771D02*
X173345238Y-83585771D01*
X173345238Y-83585771D02*
X173440476Y-83633390D01*
X173440476Y-83633390D02*
X173488095Y-83681009D01*
X173488095Y-83681009D02*
X173535714Y-83776247D01*
X173535714Y-83776247D02*
X173535714Y-84014342D01*
X173535714Y-84014342D02*
X173488095Y-84109580D01*
X173488095Y-84109580D02*
X173440476Y-84157200D01*
X173440476Y-84157200D02*
X173345238Y-84204819D01*
X173345238Y-84204819D02*
X173107143Y-84204819D01*
X173107143Y-84204819D02*
X173011905Y-84157200D01*
X173011905Y-84157200D02*
X172964286Y-84109580D01*
X144583333Y-92704819D02*
X144250000Y-92228628D01*
X144011905Y-92704819D02*
X144011905Y-91704819D01*
X144011905Y-91704819D02*
X144392857Y-91704819D01*
X144392857Y-91704819D02*
X144488095Y-91752438D01*
X144488095Y-91752438D02*
X144535714Y-91800057D01*
X144535714Y-91800057D02*
X144583333Y-91895295D01*
X144583333Y-91895295D02*
X144583333Y-92038152D01*
X144583333Y-92038152D02*
X144535714Y-92133390D01*
X144535714Y-92133390D02*
X144488095Y-92181009D01*
X144488095Y-92181009D02*
X144392857Y-92228628D01*
X144392857Y-92228628D02*
X144011905Y-92228628D01*
X145440476Y-92038152D02*
X145440476Y-92704819D01*
X145202381Y-91657200D02*
X144964286Y-92371485D01*
X144964286Y-92371485D02*
X145583333Y-92371485D01*
X148083333Y-92704819D02*
X147750000Y-92228628D01*
X147511905Y-92704819D02*
X147511905Y-91704819D01*
X147511905Y-91704819D02*
X147892857Y-91704819D01*
X147892857Y-91704819D02*
X147988095Y-91752438D01*
X147988095Y-91752438D02*
X148035714Y-91800057D01*
X148035714Y-91800057D02*
X148083333Y-91895295D01*
X148083333Y-91895295D02*
X148083333Y-92038152D01*
X148083333Y-92038152D02*
X148035714Y-92133390D01*
X148035714Y-92133390D02*
X147988095Y-92181009D01*
X147988095Y-92181009D02*
X147892857Y-92228628D01*
X147892857Y-92228628D02*
X147511905Y-92228628D01*
X148940476Y-91704819D02*
X148750000Y-91704819D01*
X148750000Y-91704819D02*
X148654762Y-91752438D01*
X148654762Y-91752438D02*
X148607143Y-91800057D01*
X148607143Y-91800057D02*
X148511905Y-91942914D01*
X148511905Y-91942914D02*
X148464286Y-92133390D01*
X148464286Y-92133390D02*
X148464286Y-92514342D01*
X148464286Y-92514342D02*
X148511905Y-92609580D01*
X148511905Y-92609580D02*
X148559524Y-92657200D01*
X148559524Y-92657200D02*
X148654762Y-92704819D01*
X148654762Y-92704819D02*
X148845238Y-92704819D01*
X148845238Y-92704819D02*
X148940476Y-92657200D01*
X148940476Y-92657200D02*
X148988095Y-92609580D01*
X148988095Y-92609580D02*
X149035714Y-92514342D01*
X149035714Y-92514342D02*
X149035714Y-92276247D01*
X149035714Y-92276247D02*
X148988095Y-92181009D01*
X148988095Y-92181009D02*
X148940476Y-92133390D01*
X148940476Y-92133390D02*
X148845238Y-92085771D01*
X148845238Y-92085771D02*
X148654762Y-92085771D01*
X148654762Y-92085771D02*
X148559524Y-92133390D01*
X148559524Y-92133390D02*
X148511905Y-92181009D01*
X148511905Y-92181009D02*
X148464286Y-92276247D01*
X116285714Y-85931009D02*
X116428571Y-85978628D01*
X116428571Y-85978628D02*
X116476190Y-86026247D01*
X116476190Y-86026247D02*
X116523809Y-86121485D01*
X116523809Y-86121485D02*
X116523809Y-86264342D01*
X116523809Y-86264342D02*
X116476190Y-86359580D01*
X116476190Y-86359580D02*
X116428571Y-86407200D01*
X116428571Y-86407200D02*
X116333333Y-86454819D01*
X116333333Y-86454819D02*
X115952381Y-86454819D01*
X115952381Y-86454819D02*
X115952381Y-85454819D01*
X115952381Y-85454819D02*
X116285714Y-85454819D01*
X116285714Y-85454819D02*
X116380952Y-85502438D01*
X116380952Y-85502438D02*
X116428571Y-85550057D01*
X116428571Y-85550057D02*
X116476190Y-85645295D01*
X116476190Y-85645295D02*
X116476190Y-85740533D01*
X116476190Y-85740533D02*
X116428571Y-85835771D01*
X116428571Y-85835771D02*
X116380952Y-85883390D01*
X116380952Y-85883390D02*
X116285714Y-85931009D01*
X116285714Y-85931009D02*
X115952381Y-85931009D01*
X116809524Y-85454819D02*
X117380952Y-85454819D01*
X117095238Y-86454819D02*
X117095238Y-85454819D01*
X117714286Y-86454819D02*
X117714286Y-85454819D01*
X117714286Y-85454819D02*
X118285714Y-86454819D01*
X118285714Y-86454819D02*
X118285714Y-85454819D01*
X118523810Y-86550057D02*
X119285714Y-86550057D01*
X119523810Y-86454819D02*
X119523810Y-85454819D01*
X119523810Y-85454819D02*
X119761905Y-85454819D01*
X119761905Y-85454819D02*
X119904762Y-85502438D01*
X119904762Y-85502438D02*
X120000000Y-85597676D01*
X120000000Y-85597676D02*
X120047619Y-85692914D01*
X120047619Y-85692914D02*
X120095238Y-85883390D01*
X120095238Y-85883390D02*
X120095238Y-86026247D01*
X120095238Y-86026247D02*
X120047619Y-86216723D01*
X120047619Y-86216723D02*
X120000000Y-86311961D01*
X120000000Y-86311961D02*
X119904762Y-86407200D01*
X119904762Y-86407200D02*
X119761905Y-86454819D01*
X119761905Y-86454819D02*
X119523810Y-86454819D01*
X173583333Y-72954819D02*
X173250000Y-72478628D01*
X173011905Y-72954819D02*
X173011905Y-71954819D01*
X173011905Y-71954819D02*
X173392857Y-71954819D01*
X173392857Y-71954819D02*
X173488095Y-72002438D01*
X173488095Y-72002438D02*
X173535714Y-72050057D01*
X173535714Y-72050057D02*
X173583333Y-72145295D01*
X173583333Y-72145295D02*
X173583333Y-72288152D01*
X173583333Y-72288152D02*
X173535714Y-72383390D01*
X173535714Y-72383390D02*
X173488095Y-72431009D01*
X173488095Y-72431009D02*
X173392857Y-72478628D01*
X173392857Y-72478628D02*
X173011905Y-72478628D01*
X174535714Y-72954819D02*
X173964286Y-72954819D01*
X174250000Y-72954819D02*
X174250000Y-71954819D01*
X174250000Y-71954819D02*
X174154762Y-72097676D01*
X174154762Y-72097676D02*
X174059524Y-72192914D01*
X174059524Y-72192914D02*
X173964286Y-72240533D01*
X163380953Y-87407200D02*
X163523810Y-87454819D01*
X163523810Y-87454819D02*
X163761905Y-87454819D01*
X163761905Y-87454819D02*
X163857143Y-87407200D01*
X163857143Y-87407200D02*
X163904762Y-87359580D01*
X163904762Y-87359580D02*
X163952381Y-87264342D01*
X163952381Y-87264342D02*
X163952381Y-87169104D01*
X163952381Y-87169104D02*
X163904762Y-87073866D01*
X163904762Y-87073866D02*
X163857143Y-87026247D01*
X163857143Y-87026247D02*
X163761905Y-86978628D01*
X163761905Y-86978628D02*
X163571429Y-86931009D01*
X163571429Y-86931009D02*
X163476191Y-86883390D01*
X163476191Y-86883390D02*
X163428572Y-86835771D01*
X163428572Y-86835771D02*
X163380953Y-86740533D01*
X163380953Y-86740533D02*
X163380953Y-86645295D01*
X163380953Y-86645295D02*
X163428572Y-86550057D01*
X163428572Y-86550057D02*
X163476191Y-86502438D01*
X163476191Y-86502438D02*
X163571429Y-86454819D01*
X163571429Y-86454819D02*
X163809524Y-86454819D01*
X163809524Y-86454819D02*
X163952381Y-86502438D01*
X164285715Y-86454819D02*
X164523810Y-87454819D01*
X164523810Y-87454819D02*
X164714286Y-86740533D01*
X164714286Y-86740533D02*
X164904762Y-87454819D01*
X164904762Y-87454819D02*
X165142858Y-86454819D01*
X165523810Y-87454819D02*
X165523810Y-86454819D01*
X166190476Y-86454819D02*
X166380952Y-86454819D01*
X166380952Y-86454819D02*
X166476190Y-86502438D01*
X166476190Y-86502438D02*
X166571428Y-86597676D01*
X166571428Y-86597676D02*
X166619047Y-86788152D01*
X166619047Y-86788152D02*
X166619047Y-87121485D01*
X166619047Y-87121485D02*
X166571428Y-87311961D01*
X166571428Y-87311961D02*
X166476190Y-87407200D01*
X166476190Y-87407200D02*
X166380952Y-87454819D01*
X166380952Y-87454819D02*
X166190476Y-87454819D01*
X166190476Y-87454819D02*
X166095238Y-87407200D01*
X166095238Y-87407200D02*
X166000000Y-87311961D01*
X166000000Y-87311961D02*
X165952381Y-87121485D01*
X165952381Y-87121485D02*
X165952381Y-86788152D01*
X165952381Y-86788152D02*
X166000000Y-86597676D01*
X166000000Y-86597676D02*
X166095238Y-86502438D01*
X166095238Y-86502438D02*
X166190476Y-86454819D01*
D10*
%TO.C,LCD1*%
X157100000Y-86550000D02*
X157100000Y-73100000D01*
X160500000Y-86550000D02*
X157100000Y-86550000D01*
X160500000Y-86550000D02*
X132500000Y-86550000D01*
X132500000Y-73050000D01*
X160500000Y-73050000D01*
X160500000Y-86550000D01*
D12*
%TO.C,BTN_L*%
X109500000Y-77500000D02*
X114000000Y-77500000D01*
X109500000Y-82000000D02*
X109500000Y-77500000D01*
X114000000Y-77500000D02*
X114000000Y-82000000D01*
X114000000Y-82000000D02*
X109500000Y-82000000D01*
D13*
X106850000Y-81250000D02*
G75*
G02*
X106650000Y-81250000I-100000J0D01*
G01*
X106650000Y-81250000D02*
G75*
G02*
X106850000Y-81250000I100000J0D01*
G01*
D12*
%TO.C,BTN_R*%
X122000000Y-77500000D02*
X126500000Y-77500000D01*
X122000000Y-82000000D02*
X122000000Y-77500000D01*
X126500000Y-77500000D02*
X126500000Y-82000000D01*
X126500000Y-82000000D02*
X122000000Y-82000000D01*
D13*
X119350000Y-81250000D02*
G75*
G02*
X119150000Y-81250000I-100000J0D01*
G01*
X119150000Y-81250000D02*
G75*
G02*
X119350000Y-81250000I100000J0D01*
G01*
D14*
%TO.C,LED_CHRG*%
X151590000Y-90015000D02*
X151590000Y-91485000D01*
X151590000Y-91485000D02*
X154050000Y-91485000D01*
X154050000Y-90015000D02*
X151590000Y-90015000D01*
%TO.C,PD6*%
X165800000Y-83050000D02*
X167200000Y-83050000D01*
X165800000Y-84450000D02*
X165800000Y-83050000D01*
X167200000Y-83050000D02*
X167200000Y-84450000D01*
X167200000Y-84450000D02*
X165800000Y-84450000D01*
%TO.C,NRST*%
X169300000Y-86300000D02*
X170700000Y-86300000D01*
X169300000Y-87700000D02*
X169300000Y-86300000D01*
X170700000Y-86300000D02*
X170700000Y-87700000D01*
X170700000Y-87700000D02*
X169300000Y-87700000D01*
D12*
%TO.C,BTN_A*%
X169500000Y-77500000D02*
X174000000Y-77500000D01*
X169500000Y-82000000D02*
X169500000Y-77500000D01*
X174000000Y-77500000D02*
X174000000Y-82000000D01*
X174000000Y-82000000D02*
X169500000Y-82000000D01*
D13*
X166850000Y-81250000D02*
G75*
G02*
X166650000Y-81250000I-100000J0D01*
G01*
X166650000Y-81250000D02*
G75*
G02*
X166850000Y-81250000I100000J0D01*
G01*
D14*
%TO.C,GND*%
X173050000Y-91550000D02*
X174450000Y-91550000D01*
X173050000Y-92950000D02*
X173050000Y-91550000D01*
X174450000Y-91550000D02*
X174450000Y-92950000D01*
X174450000Y-92950000D02*
X173050000Y-92950000D01*
D12*
%TO.C,BTN_U*%
X115750000Y-71250000D02*
X120250000Y-71250000D01*
X115750000Y-75750000D02*
X115750000Y-71250000D01*
X120250000Y-71250000D02*
X120250000Y-75750000D01*
X120250000Y-75750000D02*
X115750000Y-75750000D01*
D13*
X113100000Y-75000000D02*
G75*
G02*
X112900000Y-75000000I-100000J0D01*
G01*
X112900000Y-75000000D02*
G75*
G02*
X113100000Y-75000000I100000J0D01*
G01*
D10*
%TO.C,BZ1*%
X163000000Y-66500000D02*
X165500000Y-66500000D01*
X163000000Y-76000000D02*
X163000000Y-66500000D01*
X165500000Y-76000000D02*
X163000000Y-76000000D01*
X170000000Y-66500000D02*
X172500000Y-66500000D01*
X170000000Y-76000000D02*
X172500000Y-76000000D01*
X172500000Y-76000000D02*
X172500000Y-66500000D01*
D14*
%TO.C,3.3V*%
X170800000Y-91550000D02*
X172200000Y-91550000D01*
X170800000Y-92950000D02*
X170800000Y-91550000D01*
X172200000Y-91550000D02*
X172200000Y-92950000D01*
X172200000Y-92950000D02*
X170800000Y-92950000D01*
D12*
%TO.C,S1*%
X143175000Y-66500000D02*
X143175000Y-66000000D01*
X147750000Y-67625000D02*
X146700000Y-67625000D01*
X149500000Y-64875000D02*
X143500000Y-64875000D01*
X149825000Y-66500000D02*
X149825000Y-66000000D01*
D13*
X148900000Y-69650000D02*
G75*
G02*
X148700000Y-69650000I-100000J0D01*
G01*
X148700000Y-69650000D02*
G75*
G02*
X148900000Y-69650000I100000J0D01*
G01*
D14*
%TO.C,LED_PWR*%
X138215000Y-90015000D02*
X138215000Y-91485000D01*
X138215000Y-91485000D02*
X140675000Y-91485000D01*
X140675000Y-90015000D02*
X138215000Y-90015000D01*
%TO.C,PD5*%
X169300000Y-83050000D02*
X170700000Y-83050000D01*
X169300000Y-84450000D02*
X169300000Y-83050000D01*
X170700000Y-83050000D02*
X170700000Y-84450000D01*
X170700000Y-84450000D02*
X169300000Y-84450000D01*
%TO.C,R4*%
X144987258Y-90227500D02*
X144512742Y-90227500D01*
X144987258Y-91272500D02*
X144512742Y-91272500D01*
%TO.C,R6*%
X148012742Y-90227500D02*
X148487258Y-90227500D01*
X148012742Y-91272500D02*
X148487258Y-91272500D01*
D12*
%TO.C,BTN_D*%
X115750000Y-83750000D02*
X120250000Y-83750000D01*
X115750000Y-88250000D02*
X115750000Y-83750000D01*
X120250000Y-83750000D02*
X120250000Y-88250000D01*
X120250000Y-88250000D02*
X115750000Y-88250000D01*
D13*
X113100000Y-87500000D02*
G75*
G02*
X112900000Y-87500000I-100000J0D01*
G01*
X112900000Y-87500000D02*
G75*
G02*
X113100000Y-87500000I100000J0D01*
G01*
D14*
%TO.C,R1*%
X173227500Y-74987258D02*
X173227500Y-74512742D01*
X174272500Y-74987258D02*
X174272500Y-74512742D01*
%TO.C,SWIO*%
X167050000Y-86300000D02*
X168450000Y-86300000D01*
X167050000Y-87700000D02*
X167050000Y-86300000D01*
X168450000Y-86300000D02*
X168450000Y-87700000D01*
X168450000Y-87700000D02*
X167050000Y-87700000D01*
%TD*%
%LPC*%
D15*
%TO.C,LCD1*%
X149500000Y-75650000D03*
X149500000Y-76350000D03*
X149500000Y-77050000D03*
X149500000Y-77750000D03*
X149500000Y-78450000D03*
X149500000Y-79150000D03*
X149500000Y-79850000D03*
X149500000Y-80550000D03*
X149500000Y-81250000D03*
X149500000Y-81950000D03*
X149500000Y-82650000D03*
X149500000Y-83350000D03*
X149500000Y-84050000D03*
%TD*%
D16*
%TO.C,BTN_L*%
X108150000Y-81250000D03*
X115350000Y-81250000D03*
X108150000Y-78250000D03*
X115350000Y-78250000D03*
%TD*%
%TO.C,BTN_R*%
X120650000Y-81250000D03*
X127850000Y-81250000D03*
X120650000Y-78250000D03*
X127850000Y-78250000D03*
%TD*%
D17*
%TO.C,LED_CHRG*%
X152375000Y-90750000D03*
X154125000Y-90750000D03*
%TD*%
D18*
%TO.C,PD6*%
X166500000Y-83750000D03*
%TD*%
%TO.C,NRST*%
X170000000Y-87000000D03*
%TD*%
D16*
%TO.C,BTN_A*%
X168150000Y-81250000D03*
X175350000Y-81250000D03*
X168150000Y-78250000D03*
X175350000Y-78250000D03*
%TD*%
D18*
%TO.C,GND*%
X173750000Y-92250000D03*
%TD*%
D16*
%TO.C,BTN_U*%
X114400000Y-75000000D03*
X121600000Y-75000000D03*
X114400000Y-72000000D03*
X121600000Y-72000000D03*
%TD*%
D19*
%TO.C,BZ1*%
X167750000Y-75500000D03*
X167750000Y-67000000D03*
%TD*%
D18*
%TO.C,3.3V*%
X171500000Y-92250000D03*
%TD*%
D20*
%TO.C,S1*%
X148000000Y-66250000D03*
X145000000Y-66250000D03*
D21*
X148750000Y-68325000D03*
X145750000Y-68325000D03*
X144250000Y-68325000D03*
D22*
X150300000Y-67300000D03*
X142700000Y-67300000D03*
X150300000Y-65200000D03*
X142700000Y-65200000D03*
%TD*%
D17*
%TO.C,LED_PWR*%
X139000000Y-90750000D03*
X140750000Y-90750000D03*
%TD*%
D18*
%TO.C,PD5*%
X170000000Y-83750000D03*
%TD*%
D23*
%TO.C,R4*%
X145575000Y-90750000D03*
X143925000Y-90750000D03*
%TD*%
D24*
%TO.C,R6*%
X147425000Y-90750000D03*
X149075000Y-90750000D03*
%TD*%
D16*
%TO.C,BTN_D*%
X114400000Y-87500000D03*
X121600000Y-87500000D03*
X114400000Y-84500000D03*
X121600000Y-84500000D03*
%TD*%
D25*
%TO.C,R1*%
X173750000Y-75575000D03*
X173750000Y-73925000D03*
%TD*%
D18*
%TO.C,SWIO*%
X167750000Y-87000000D03*
%TD*%
D26*
%TO.C,J1*%
X183550000Y-75480000D03*
X179750000Y-75480000D03*
X183550000Y-84120000D03*
X179750000Y-84120000D03*
%TD*%
%LPD*%
M02*
