%TF.GenerationSoftware,KiCad,Pcbnew,9.0.6*%
%TF.CreationDate,2025-11-17T13:54:39+01:00*%
%TF.ProjectId,CH32Console,43483332-436f-46e7-936f-6c652e6b6963,rev?*%
%TF.SameCoordinates,Original*%
%TF.FileFunction,Soldermask,Bot*%
%TF.FilePolarity,Negative*%
%FSLAX46Y46*%
G04 Gerber Fmt 4.6, Leading zero omitted, Abs format (unit mm)*
G04 Created by KiCad (PCBNEW 9.0.6) date 2025-11-17 13:54:39*
%MOMM*%
%LPD*%
G01*
G04 APERTURE LIST*
G04 Aperture macros list*
%AMRoundRect*
0 Rectangle with rounded corners*
0 $1 Rounding radius*
0 $2 $3 $4 $5 $6 $7 $8 $9 X,Y pos of 4 corners*
0 Add a 4 corners polygon primitive as box body*
4,1,4,$2,$3,$4,$5,$6,$7,$8,$9,$2,$3,0*
0 Add four circle primitives for the rounded corners*
1,1,$1+$1,$2,$3*
1,1,$1+$1,$4,$5*
1,1,$1+$1,$6,$7*
1,1,$1+$1,$8,$9*
0 Add four rect primitives between the rounded corners*
20,1,$1+$1,$2,$3,$4,$5,0*
20,1,$1+$1,$4,$5,$6,$7,0*
20,1,$1+$1,$6,$7,$8,$9,0*
20,1,$1+$1,$8,$9,$2,$3,0*%
G04 Aperture macros list end*
%ADD10C,0.900000*%
%ADD11RoundRect,0.150000X0.512500X0.150000X-0.512500X0.150000X-0.512500X-0.150000X0.512500X-0.150000X0*%
%ADD12RoundRect,0.102000X0.660000X0.295000X-0.660000X0.295000X-0.660000X-0.295000X0.660000X-0.295000X0*%
%ADD13RoundRect,0.225000X-0.250000X0.225000X-0.250000X-0.225000X0.250000X-0.225000X0.250000X0.225000X0*%
%ADD14RoundRect,0.225000X-0.225000X-0.250000X0.225000X-0.250000X0.225000X0.250000X-0.225000X0.250000X0*%
%ADD15R,1.700000X1.700000*%
%ADD16C,1.700000*%
%ADD17RoundRect,0.225000X0.225000X0.250000X-0.225000X0.250000X-0.225000X-0.250000X0.225000X-0.250000X0*%
%ADD18RoundRect,0.100000X0.637500X0.100000X-0.637500X0.100000X-0.637500X-0.100000X0.637500X-0.100000X0*%
%ADD19RoundRect,0.200000X-0.200000X-0.275000X0.200000X-0.275000X0.200000X0.275000X-0.200000X0.275000X0*%
%ADD20RoundRect,0.250000X0.350000X-0.450000X0.350000X0.450000X-0.350000X0.450000X-0.350000X-0.450000X0*%
%ADD21RoundRect,0.200000X0.200000X0.275000X-0.200000X0.275000X-0.200000X-0.275000X0.200000X-0.275000X0*%
%ADD22RoundRect,0.175000X-0.425000X0.175000X-0.425000X-0.175000X0.425000X-0.175000X0.425000X0.175000X0*%
%ADD23RoundRect,0.190000X0.410000X-0.190000X0.410000X0.190000X-0.410000X0.190000X-0.410000X-0.190000X0*%
%ADD24RoundRect,0.200000X0.400000X-0.200000X0.400000X0.200000X-0.400000X0.200000X-0.400000X-0.200000X0*%
%ADD25RoundRect,0.175000X0.425000X-0.175000X0.425000X0.175000X-0.425000X0.175000X-0.425000X-0.175000X0*%
%ADD26RoundRect,0.190000X-0.410000X0.190000X-0.410000X-0.190000X0.410000X-0.190000X0.410000X0.190000X0*%
%ADD27RoundRect,0.200000X-0.400000X0.200000X-0.400000X-0.200000X0.400000X-0.200000X0.400000X0.200000X0*%
%ADD28O,1.700000X1.100000*%
%ADD29RoundRect,0.200000X-0.275000X0.200000X-0.275000X-0.200000X0.275000X-0.200000X0.275000X0.200000X0*%
G04 APERTURE END LIST*
D10*
%TO.C,S1*%
X148000000Y-66250000D03*
X145000000Y-66250000D03*
%TD*%
D11*
%TO.C,U2*%
X180387500Y-69800000D03*
X180387500Y-70750000D03*
X180387500Y-71700000D03*
X178112500Y-71700000D03*
X178112500Y-69800000D03*
%TD*%
D12*
%TO.C,U3*%
X169395000Y-72800000D03*
X169395000Y-73750000D03*
X169395000Y-74700000D03*
X167105000Y-74700000D03*
X167105000Y-72800000D03*
%TD*%
D13*
%TO.C,C8*%
X165250000Y-72975000D03*
X165250000Y-74525000D03*
%TD*%
D14*
%TO.C,C1*%
X171725000Y-92500000D03*
X173275000Y-92500000D03*
%TD*%
D15*
%TO.C,+BAT-*%
X169500000Y-67250000D03*
D16*
X166960000Y-67250000D03*
%TD*%
D17*
%TO.C,C5*%
X177025000Y-86000000D03*
X175475000Y-86000000D03*
%TD*%
%TO.C,C7*%
X169000000Y-71000000D03*
X167450000Y-71000000D03*
%TD*%
D18*
%TO.C,U1*%
X171725000Y-85050000D03*
X171725000Y-85700000D03*
X171725000Y-86350000D03*
X171725000Y-87000000D03*
X171725000Y-87650000D03*
X171725000Y-88300000D03*
X171725000Y-88950000D03*
X171725000Y-89600000D03*
X171725000Y-90250000D03*
X171725000Y-90900000D03*
X166000000Y-90900000D03*
X166000000Y-90250000D03*
X166000000Y-89600000D03*
X166000000Y-88950000D03*
X166000000Y-88300000D03*
X166000000Y-87650000D03*
X166000000Y-87000000D03*
X166000000Y-86350000D03*
X166000000Y-85700000D03*
X166000000Y-85050000D03*
%TD*%
D17*
%TO.C,C6*%
X180525000Y-73500000D03*
X178975000Y-73500000D03*
%TD*%
D19*
%TO.C,R5*%
X174425000Y-70750000D03*
X176075000Y-70750000D03*
%TD*%
D20*
%TO.C,Y1*%
X175400000Y-90350000D03*
X175400000Y-88150000D03*
X177100000Y-88150000D03*
X177100000Y-90350000D03*
%TD*%
D17*
%TO.C,C2*%
X176025000Y-74500000D03*
X174475000Y-74500000D03*
%TD*%
%TO.C,C3*%
X176025000Y-73000000D03*
X174475000Y-73000000D03*
%TD*%
D14*
%TO.C,C4*%
X175475000Y-92500000D03*
X177025000Y-92500000D03*
%TD*%
D21*
%TO.C,R3*%
X176825000Y-76500000D03*
X175175000Y-76500000D03*
%TD*%
D22*
%TO.C,J1*%
X179670000Y-79300000D03*
D23*
X179670000Y-81320000D03*
D24*
X179670000Y-82550000D03*
D25*
X179670000Y-80300000D03*
D26*
X179670000Y-78280000D03*
D27*
X179670000Y-77050000D03*
D28*
X183550000Y-75480000D03*
X179750000Y-75480000D03*
X183550000Y-84120000D03*
X179750000Y-84120000D03*
%TD*%
D29*
%TO.C,R7*%
X165250000Y-77925000D03*
X165250000Y-79575000D03*
%TD*%
D21*
%TO.C,R2*%
X176825000Y-78250000D03*
X175175000Y-78250000D03*
%TD*%
M02*
