%TF.GenerationSoftware,KiCad,Pcbnew,9.0.6*%
%TF.CreationDate,2025-11-17T13:54:39+01:00*%
%TF.ProjectId,CH32Console,43483332-436f-46e7-936f-6c652e6b6963,rev?*%
%TF.SameCoordinates,Original*%
%TF.FileFunction,Copper,L2,Bot*%
%TF.FilePolarity,Positive*%
%FSLAX46Y46*%
G04 Gerber Fmt 4.6, Leading zero omitted, Abs format (unit mm)*
G04 Created by KiCad (PCBNEW 9.0.6) date 2025-11-17 13:54:39*
%MOMM*%
%LPD*%
G01*
G04 APERTURE LIST*
G04 Aperture macros list*
%AMRoundRect*
0 Rectangle with rounded corners*
0 $1 Rounding radius*
0 $2 $3 $4 $5 $6 $7 $8 $9 X,Y pos of 4 corners*
0 Add a 4 corners polygon primitive as box body*
4,1,4,$2,$3,$4,$5,$6,$7,$8,$9,$2,$3,0*
0 Add four circle primitives for the rounded corners*
1,1,$1+$1,$2,$3*
1,1,$1+$1,$4,$5*
1,1,$1+$1,$6,$7*
1,1,$1+$1,$8,$9*
0 Add four rect primitives between the rounded corners*
20,1,$1+$1,$2,$3,$4,$5,0*
20,1,$1+$1,$4,$5,$6,$7,0*
20,1,$1+$1,$6,$7,$8,$9,0*
20,1,$1+$1,$8,$9,$2,$3,0*%
G04 Aperture macros list end*
%TA.AperFunction,SMDPad,CuDef*%
%ADD10RoundRect,0.150000X0.512500X0.150000X-0.512500X0.150000X-0.512500X-0.150000X0.512500X-0.150000X0*%
%TD*%
%TA.AperFunction,SMDPad,CuDef*%
%ADD11R,1.320000X0.590000*%
%TD*%
%TA.AperFunction,SMDPad,CuDef*%
%ADD12RoundRect,0.225000X-0.250000X0.225000X-0.250000X-0.225000X0.250000X-0.225000X0.250000X0.225000X0*%
%TD*%
%TA.AperFunction,SMDPad,CuDef*%
%ADD13RoundRect,0.225000X-0.225000X-0.250000X0.225000X-0.250000X0.225000X0.250000X-0.225000X0.250000X0*%
%TD*%
%TA.AperFunction,SMDPad,CuDef*%
%ADD14R,1.700000X1.700000*%
%TD*%
%TA.AperFunction,SMDPad,CuDef*%
%ADD15C,1.700000*%
%TD*%
%TA.AperFunction,SMDPad,CuDef*%
%ADD16RoundRect,0.225000X0.225000X0.250000X-0.225000X0.250000X-0.225000X-0.250000X0.225000X-0.250000X0*%
%TD*%
%TA.AperFunction,SMDPad,CuDef*%
%ADD17RoundRect,0.100000X0.637500X0.100000X-0.637500X0.100000X-0.637500X-0.100000X0.637500X-0.100000X0*%
%TD*%
%TA.AperFunction,SMDPad,CuDef*%
%ADD18RoundRect,0.200000X-0.200000X-0.275000X0.200000X-0.275000X0.200000X0.275000X-0.200000X0.275000X0*%
%TD*%
%TA.AperFunction,SMDPad,CuDef*%
%ADD19RoundRect,0.250000X0.350000X-0.450000X0.350000X0.450000X-0.350000X0.450000X-0.350000X-0.450000X0*%
%TD*%
%TA.AperFunction,SMDPad,CuDef*%
%ADD20RoundRect,0.200000X0.200000X0.275000X-0.200000X0.275000X-0.200000X-0.275000X0.200000X-0.275000X0*%
%TD*%
%TA.AperFunction,SMDPad,CuDef*%
%ADD21RoundRect,0.175000X-0.425000X0.175000X-0.425000X-0.175000X0.425000X-0.175000X0.425000X0.175000X0*%
%TD*%
%TA.AperFunction,SMDPad,CuDef*%
%ADD22RoundRect,0.190000X0.410000X-0.190000X0.410000X0.190000X-0.410000X0.190000X-0.410000X-0.190000X0*%
%TD*%
%TA.AperFunction,SMDPad,CuDef*%
%ADD23RoundRect,0.200000X0.400000X-0.200000X0.400000X0.200000X-0.400000X0.200000X-0.400000X-0.200000X0*%
%TD*%
%TA.AperFunction,SMDPad,CuDef*%
%ADD24RoundRect,0.175000X0.425000X-0.175000X0.425000X0.175000X-0.425000X0.175000X-0.425000X-0.175000X0*%
%TD*%
%TA.AperFunction,SMDPad,CuDef*%
%ADD25RoundRect,0.190000X-0.410000X0.190000X-0.410000X-0.190000X0.410000X-0.190000X0.410000X0.190000X0*%
%TD*%
%TA.AperFunction,SMDPad,CuDef*%
%ADD26RoundRect,0.200000X-0.400000X0.200000X-0.400000X-0.200000X0.400000X-0.200000X0.400000X0.200000X0*%
%TD*%
%TA.AperFunction,HeatsinkPad*%
%ADD27O,1.700000X1.100000*%
%TD*%
%TA.AperFunction,SMDPad,CuDef*%
%ADD28RoundRect,0.200000X-0.275000X0.200000X-0.275000X-0.200000X0.275000X-0.200000X0.275000X0.200000X0*%
%TD*%
%TA.AperFunction,ViaPad*%
%ADD29C,0.800000*%
%TD*%
%TA.AperFunction,ViaPad*%
%ADD30C,0.500000*%
%TD*%
%TA.AperFunction,Conductor*%
%ADD31C,0.381000*%
%TD*%
%TA.AperFunction,Conductor*%
%ADD32C,0.254000*%
%TD*%
G04 APERTURE END LIST*
D10*
%TO.P,U2,1,STAT*%
%TO.N,Net-(U2-STAT)*%
X180387500Y-69800000D03*
%TO.P,U2,2,V_{SS}*%
%TO.N,GND*%
X180387500Y-70750000D03*
%TO.P,U2,3,V_{BAT}*%
%TO.N,Net-(BAT1-Pin_1)*%
X180387500Y-71700000D03*
%TO.P,U2,4,V_{DD}*%
%TO.N,Net-(D2-A)*%
X178112500Y-71700000D03*
%TO.P,U2,5,PROG*%
%TO.N,Net-(U2-PROG)*%
X178112500Y-69800000D03*
%TD*%
D11*
%TO.P,U3,1,VIN*%
%TO.N,Net-(U3-INHIBIT)*%
X169395000Y-72800000D03*
%TO.P,U3,2,GND*%
%TO.N,GND*%
X169395000Y-73750000D03*
%TO.P,U3,3,INHIBIT*%
%TO.N,Net-(U3-INHIBIT)*%
X169395000Y-74700000D03*
%TO.P,U3,4*%
%TO.N,N/C*%
X167105000Y-74700000D03*
%TO.P,U3,5,VOUT*%
%TO.N,+3.3V*%
X167105000Y-72800000D03*
%TD*%
D12*
%TO.P,C8,1*%
%TO.N,+3.3V*%
X165250000Y-72975000D03*
%TO.P,C8,2*%
%TO.N,GND*%
X165250000Y-74525000D03*
%TD*%
D13*
%TO.P,C1,1*%
%TO.N,+3.3V*%
X171725000Y-92500000D03*
%TO.P,C1,2*%
%TO.N,GND*%
X173275000Y-92500000D03*
%TD*%
D14*
%TO.P,+BAT-,1,Pin_1*%
%TO.N,Net-(BAT1-Pin_1)*%
X169500000Y-67250000D03*
D15*
%TO.P,+BAT-,2,Pin_2*%
%TO.N,GND*%
X166960000Y-67250000D03*
%TD*%
D16*
%TO.P,C5,1*%
%TO.N,Net-(U1-PA1)*%
X177025000Y-86000000D03*
%TO.P,C5,2*%
%TO.N,GND*%
X175475000Y-86000000D03*
%TD*%
%TO.P,C7,1*%
%TO.N,Net-(U3-INHIBIT)*%
X169000000Y-71000000D03*
%TO.P,C7,2*%
%TO.N,GND*%
X167450000Y-71000000D03*
%TD*%
D17*
%TO.P,U1,1,PD4*%
%TO.N,BTN_ACTION*%
X171725000Y-85050000D03*
%TO.P,U1,2,PD5*%
%TO.N,Net-(PD1-Pin_1)*%
X171725000Y-85700000D03*
%TO.P,U1,3,PD6*%
%TO.N,Net-(PD2-Pin_1)*%
X171725000Y-86350000D03*
%TO.P,U1,4,PD7*%
%TO.N,NRST*%
X171725000Y-87000000D03*
%TO.P,U1,5,PA1*%
%TO.N,Net-(U1-PA1)*%
X171725000Y-87650000D03*
%TO.P,U1,6,PA2*%
%TO.N,Net-(U1-PA2)*%
X171725000Y-88300000D03*
%TO.P,U1,7,VSS*%
%TO.N,GND*%
X171725000Y-88950000D03*
%TO.P,U1,8,PD0*%
%TO.N,Net-(U1-PD0)*%
X171725000Y-89600000D03*
%TO.P,U1,9,VDD*%
%TO.N,+3.3V*%
X171725000Y-90250000D03*
%TO.P,U1,10,PC0*%
%TO.N,BUZZ*%
X171725000Y-90900000D03*
%TO.P,U1,11,PC1*%
%TO.N,BTN_DOWN*%
X166000000Y-90900000D03*
%TO.P,U1,12,PC2*%
%TO.N,CS*%
X166000000Y-90250000D03*
%TO.P,U1,13,PC3*%
%TO.N,RS*%
X166000000Y-89600000D03*
%TO.P,U1,14,PC4*%
%TO.N,DC*%
X166000000Y-88950000D03*
%TO.P,U1,15,PC5*%
%TO.N,SCK*%
X166000000Y-88300000D03*
%TO.P,U1,16,PC6*%
%TO.N,MOSI*%
X166000000Y-87650000D03*
%TO.P,U1,17,PC7*%
%TO.N,BTN_LEFT*%
X166000000Y-87000000D03*
%TO.P,U1,18,PD1*%
%TO.N,SWIO*%
X166000000Y-86350000D03*
%TO.P,U1,19,PD2*%
%TO.N,BTN_UP*%
X166000000Y-85700000D03*
%TO.P,U1,20,PD3*%
%TO.N,BTN_RIGHT*%
X166000000Y-85050000D03*
%TD*%
D16*
%TO.P,C6,1*%
%TO.N,Net-(BAT1-Pin_1)*%
X180525000Y-73500000D03*
%TO.P,C6,2*%
%TO.N,GND*%
X178975000Y-73500000D03*
%TD*%
D18*
%TO.P,R5,1*%
%TO.N,GND*%
X174425000Y-70750000D03*
%TO.P,R5,2*%
%TO.N,Net-(U2-PROG)*%
X176075000Y-70750000D03*
%TD*%
D19*
%TO.P,Y1,1,1*%
%TO.N,Net-(U1-PA2)*%
X175400000Y-90350000D03*
%TO.P,Y1,2,2*%
%TO.N,GND*%
X175400000Y-88150000D03*
%TO.P,Y1,3,3*%
%TO.N,Net-(U1-PA1)*%
X177100000Y-88150000D03*
%TO.P,Y1,4,4*%
%TO.N,GND*%
X177100000Y-90350000D03*
%TD*%
D16*
%TO.P,C2,1*%
%TO.N,Net-(D2-A)*%
X176025000Y-74500000D03*
%TO.P,C2,2*%
%TO.N,GND*%
X174475000Y-74500000D03*
%TD*%
%TO.P,C3,1*%
%TO.N,Net-(D2-A)*%
X176025000Y-73000000D03*
%TO.P,C3,2*%
%TO.N,GND*%
X174475000Y-73000000D03*
%TD*%
D13*
%TO.P,C4,1*%
%TO.N,Net-(U1-PA2)*%
X175475000Y-92500000D03*
%TO.P,C4,2*%
%TO.N,GND*%
X177025000Y-92500000D03*
%TD*%
D20*
%TO.P,R3,1*%
%TO.N,Net-(J1-CC1)*%
X176825000Y-76500000D03*
%TO.P,R3,2*%
%TO.N,GND*%
X175175000Y-76500000D03*
%TD*%
D21*
%TO.P,J1,A5,CC1*%
%TO.N,Net-(J1-CC1)*%
X179670000Y-79300000D03*
D22*
%TO.P,J1,A9,VBUS*%
%TO.N,Net-(D2-A)*%
X179670000Y-81320000D03*
D23*
%TO.P,J1,A12,GND*%
%TO.N,GND*%
X179670000Y-82550000D03*
D24*
%TO.P,J1,B5,CC2*%
%TO.N,Net-(J1-CC2)*%
X179670000Y-80300000D03*
D25*
%TO.P,J1,B9,VBUS*%
%TO.N,Net-(D2-A)*%
X179670000Y-78280000D03*
D26*
%TO.P,J1,B12,GND*%
%TO.N,GND*%
X179670000Y-77050000D03*
D27*
%TO.P,J1,S1,SHIELD*%
X183550000Y-75480000D03*
X179750000Y-75480000D03*
X183550000Y-84120000D03*
X179750000Y-84120000D03*
%TD*%
D28*
%TO.P,R7,1*%
%TO.N,+3.3V*%
X165250000Y-77925000D03*
%TO.P,R7,2*%
%TO.N,Net-(LCD1-LEDA)*%
X165250000Y-79575000D03*
%TD*%
D20*
%TO.P,R2,1*%
%TO.N,Net-(J1-CC2)*%
X176825000Y-78250000D03*
%TO.P,R2,2*%
%TO.N,GND*%
X175175000Y-78250000D03*
%TD*%
D29*
%TO.N,Net-(BAT1-Pin_1)*%
X163000000Y-65750000D03*
%TO.N,GND*%
X127850000Y-81250000D03*
X167450000Y-71000000D03*
D30*
X173150000Y-89000000D03*
X173950000Y-87850000D03*
D29*
X175350000Y-81250000D03*
X180387500Y-70750000D03*
X178975000Y-73500000D03*
X173275000Y-92500000D03*
D30*
%TO.N,BTN_ACTION*%
X172250000Y-84250000D03*
%TO.N,BTN_DOWN*%
X163750000Y-92500000D03*
%TO.N,BTN_LEFT*%
X131250000Y-73500000D03*
X159750000Y-81750000D03*
X115250000Y-78000000D03*
%TO.N,BTN_RIGHT*%
X161250000Y-80250000D03*
%TO.N,BTN_UP*%
X132500000Y-72250000D03*
X121750000Y-72000000D03*
X160500000Y-81000000D03*
D29*
%TO.N,Net-(U3-INHIBIT)*%
X162750000Y-70000000D03*
%TO.N,+3.3V*%
X152250000Y-81500000D03*
D30*
X171112500Y-91887500D03*
%TO.N,Net-(D2-A)*%
X175250000Y-83250000D03*
%TO.N,DC*%
X162000000Y-87500000D03*
%TO.N,RS*%
X161250000Y-87750000D03*
%TO.N,CS*%
X160500000Y-88000000D03*
%TO.N,MOSI*%
X163500000Y-87000000D03*
%TO.N,SCK*%
X162750000Y-87250000D03*
D29*
%TO.N,Net-(LCD1-LEDA)*%
X153000000Y-82250000D03*
D30*
%TO.N,Net-(PD1-Pin_1)*%
X170000000Y-85000000D03*
%TO.N,Net-(PD2-Pin_1)*%
X168567416Y-84750000D03*
%TO.N,NRST*%
X170000000Y-87500000D03*
%TO.N,SWIO*%
X167000000Y-86250000D03*
%TO.N,BUZZ*%
X173500000Y-89750000D03*
%TO.N,Net-(U2-STAT)*%
X167750000Y-89250000D03*
%TO.N,Net-(U1-PD0)*%
X170500000Y-89250000D03*
%TD*%
D31*
%TO.N,Net-(BAT1-Pin_1)*%
X180387500Y-71700000D02*
X180387500Y-73362500D01*
X180387500Y-73362500D02*
X180525000Y-73500000D01*
X179905046Y-71700000D02*
X179333500Y-71128454D01*
X176994954Y-67250000D02*
X169500000Y-67250000D01*
X169500000Y-66250000D02*
X169500000Y-67250000D01*
X180387500Y-71700000D02*
X179905046Y-71700000D01*
X163000000Y-65750000D02*
X169000000Y-65750000D01*
X179333500Y-69588546D02*
X176994954Y-67250000D01*
X169000000Y-65750000D02*
X169500000Y-66250000D01*
X179333500Y-71128454D02*
X179333500Y-69588546D01*
D32*
%TO.N,BTN_ACTION*%
X172250000Y-84525000D02*
X172250000Y-84250000D01*
X171725000Y-85050000D02*
X172250000Y-84525000D01*
%TO.N,BTN_DOWN*%
X166000000Y-90900000D02*
X164400000Y-92500000D01*
X164400000Y-92500000D02*
X163750000Y-92500000D01*
%TO.N,BTN_LEFT*%
X131250000Y-73500000D02*
X119750000Y-73500000D01*
X165000000Y-87000000D02*
X166000000Y-87000000D01*
X119750000Y-73500000D02*
X115250000Y-78000000D01*
X159750000Y-81750000D02*
X165000000Y-87000000D01*
%TO.N,BTN_RIGHT*%
X166000000Y-85050000D02*
X161250000Y-80300000D01*
X161250000Y-80300000D02*
X161250000Y-80250000D01*
%TO.N,BTN_UP*%
X132500000Y-72250000D02*
X122000000Y-72250000D01*
X165200000Y-85700000D02*
X160500000Y-81000000D01*
X166000000Y-85700000D02*
X165200000Y-85700000D01*
X122000000Y-72250000D02*
X121750000Y-72000000D01*
D31*
%TO.N,Net-(U3-INHIBIT)*%
X169000000Y-71000000D02*
X169000000Y-72405000D01*
D32*
X168407000Y-74373000D02*
X168407000Y-73127000D01*
X168407000Y-73127000D02*
X168734000Y-72800000D01*
D31*
X168000000Y-70000000D02*
X169000000Y-71000000D01*
D32*
X168734000Y-74700000D02*
X168407000Y-74373000D01*
X169395000Y-74700000D02*
X168734000Y-74700000D01*
X168734000Y-72800000D02*
X169395000Y-72800000D01*
D31*
X169000000Y-72405000D02*
X169395000Y-72800000D01*
X162750000Y-70000000D02*
X168000000Y-70000000D01*
%TO.N,+3.3V*%
X167750000Y-87500000D02*
X170719821Y-90469821D01*
X164383500Y-73841500D02*
X164383500Y-77058500D01*
D32*
X170659500Y-91434500D02*
X171112500Y-91887500D01*
D31*
X165425000Y-72800000D02*
X165250000Y-72975000D01*
X155825000Y-77925000D02*
X165250000Y-77925000D01*
D32*
X171112500Y-91887500D02*
X171725000Y-92500000D01*
D31*
X152250000Y-81500000D02*
X155825000Y-77925000D01*
X165250000Y-72975000D02*
X164383500Y-73841500D01*
D32*
X171725000Y-90250000D02*
X171029446Y-90250000D01*
X170659500Y-90619946D02*
X170659500Y-91434500D01*
D31*
X165250000Y-77925000D02*
X167750000Y-80425000D01*
X164383500Y-77058500D02*
X165250000Y-77925000D01*
X167750000Y-80425000D02*
X167750000Y-87500000D01*
D32*
X171029446Y-90250000D02*
X170659500Y-90619946D01*
D31*
X167105000Y-72800000D02*
X165425000Y-72800000D01*
D32*
%TO.N,Net-(U1-PA2)*%
X175400000Y-90350000D02*
X173350000Y-88300000D01*
X175475000Y-92500000D02*
X175475000Y-90425000D01*
X173350000Y-88300000D02*
X171725000Y-88300000D01*
X175475000Y-90425000D02*
X175400000Y-90350000D01*
%TO.N,Net-(U1-PA1)*%
X176072000Y-87122000D02*
X172990499Y-87122000D01*
X177100000Y-88150000D02*
X176072000Y-87122000D01*
X177025000Y-86000000D02*
X177025000Y-88075000D01*
X172990499Y-87122000D02*
X172462499Y-87650000D01*
X177025000Y-88075000D02*
X177100000Y-88150000D01*
X172462499Y-87650000D02*
X171725000Y-87650000D01*
D31*
%TO.N,Net-(D2-A)*%
X176025000Y-74500000D02*
X176025000Y-73000000D01*
D32*
X175250000Y-83250000D02*
X177180000Y-81320000D01*
D31*
X176025000Y-73000000D02*
X176812500Y-73000000D01*
X180430000Y-81320000D02*
X179670000Y-81320000D01*
X176750000Y-74500000D02*
X176025000Y-74500000D01*
X180661500Y-78671500D02*
X180661500Y-81088500D01*
X178000000Y-77210000D02*
X178000000Y-75750000D01*
X178000000Y-75750000D02*
X176750000Y-74500000D01*
X179670000Y-78280000D02*
X179070000Y-78280000D01*
X180270000Y-78280000D02*
X180661500Y-78671500D01*
X179070000Y-78280000D02*
X178000000Y-77210000D01*
X176812500Y-73000000D02*
X178112500Y-71700000D01*
X180661500Y-81088500D02*
X180430000Y-81320000D01*
D32*
X177180000Y-81320000D02*
X179670000Y-81320000D01*
D31*
X179670000Y-78280000D02*
X180270000Y-78280000D01*
D32*
%TO.N,Net-(J1-CC1)*%
X176825000Y-76500000D02*
X176825000Y-77022754D01*
X179102246Y-79300000D02*
X179670000Y-79300000D01*
X176825000Y-77022754D02*
X179102246Y-79300000D01*
%TO.N,Net-(J1-CC2)*%
X178875000Y-80300000D02*
X179670000Y-80300000D01*
X176825000Y-78250000D02*
X178875000Y-80300000D01*
%TO.N,DC*%
X162250000Y-87750000D02*
X162000000Y-87500000D01*
X166000000Y-88950000D02*
X163450000Y-88950000D01*
X163450000Y-88950000D02*
X162250000Y-87750000D01*
%TO.N,RS*%
X161500000Y-88000000D02*
X161250000Y-87750000D01*
X163100000Y-89600000D02*
X161500000Y-88000000D01*
X166000000Y-89600000D02*
X163100000Y-89600000D01*
%TO.N,CS*%
X160750000Y-88250000D02*
X160500000Y-88000000D01*
X166000000Y-90250000D02*
X162750000Y-90250000D01*
X162750000Y-90250000D02*
X160750000Y-88250000D01*
%TO.N,MOSI*%
X166000000Y-87650000D02*
X164150000Y-87650000D01*
X164150000Y-87650000D02*
X163500000Y-87000000D01*
%TO.N,SCK*%
X166000000Y-88300000D02*
X163800000Y-88300000D01*
X163000000Y-87500000D02*
X162750000Y-87250000D01*
X163800000Y-88300000D02*
X163000000Y-87500000D01*
D31*
%TO.N,Net-(LCD1-LEDA)*%
X155675000Y-79575000D02*
X165250000Y-79575000D01*
X153000000Y-82250000D02*
X155675000Y-79575000D01*
D32*
%TO.N,Net-(PD1-Pin_1)*%
X171725000Y-85700000D02*
X170700000Y-85700000D01*
X170700000Y-85700000D02*
X170000000Y-85000000D01*
%TO.N,Net-(PD2-Pin_1)*%
X170167416Y-86350000D02*
X168567416Y-84750000D01*
X171725000Y-86350000D02*
X170167416Y-86350000D01*
%TO.N,NRST*%
X170500000Y-87000000D02*
X170000000Y-87500000D01*
X171725000Y-87000000D02*
X170500000Y-87000000D01*
%TO.N,SWIO*%
X166900000Y-86350000D02*
X167000000Y-86250000D01*
X166000000Y-86350000D02*
X166900000Y-86350000D01*
%TO.N,BUZZ*%
X171725000Y-90900000D02*
X172462499Y-90900000D01*
X172462499Y-90900000D02*
X173500000Y-89862499D01*
X173500000Y-89862499D02*
X173500000Y-89750000D01*
%TO.N,Net-(U2-PROG)*%
X176075000Y-70750000D02*
X177162500Y-70750000D01*
X177162500Y-70750000D02*
X178112500Y-69800000D01*
%TO.N,Net-(U2-STAT)*%
X167750000Y-89788294D02*
X171264706Y-93303000D01*
X181378000Y-89410294D02*
X181378000Y-70128001D01*
X171264706Y-93303000D02*
X177485294Y-93303000D01*
X181049999Y-69800000D02*
X180387500Y-69800000D01*
X181378000Y-70128001D02*
X181049999Y-69800000D01*
X167750000Y-89250000D02*
X167750000Y-89788294D01*
X177485294Y-93303000D02*
X181378000Y-89410294D01*
%TO.N,Net-(U1-PD0)*%
X170500000Y-89250000D02*
X170850000Y-89600000D01*
X170850000Y-89600000D02*
X171725000Y-89600000D01*
%TD*%
%TA.AperFunction,Conductor*%
%TO.N,GND*%
G36*
X178706210Y-65020643D02*
G01*
X178727871Y-65038208D01*
X179093150Y-65408525D01*
X185604318Y-72009503D01*
X185613204Y-72018511D01*
X185646801Y-72081055D01*
X185649500Y-72106994D01*
X185649500Y-87540496D01*
X185629498Y-87608617D01*
X185612595Y-87629591D01*
X178779591Y-94462595D01*
X178717279Y-94496621D01*
X178690496Y-94499500D01*
X111009503Y-94499500D01*
X110941382Y-94479498D01*
X110920408Y-94462595D01*
X104037405Y-87579591D01*
X104003379Y-87517279D01*
X104000500Y-87490496D01*
X104000500Y-78066417D01*
X114745499Y-78066417D01*
X114779881Y-78194730D01*
X114846297Y-78309766D01*
X114846305Y-78309776D01*
X114940223Y-78403694D01*
X114940228Y-78403698D01*
X114940230Y-78403700D01*
X115055270Y-78470119D01*
X115183581Y-78504500D01*
X115183583Y-78504500D01*
X115316417Y-78504500D01*
X115316419Y-78504500D01*
X115444730Y-78470119D01*
X115559770Y-78403700D01*
X115653700Y-78309770D01*
X115720119Y-78194730D01*
X115754500Y-78066419D01*
X115754500Y-78066417D01*
X115756637Y-78058442D01*
X115759620Y-78059241D01*
X115782383Y-78007759D01*
X115789492Y-78000030D01*
X119871118Y-73918405D01*
X119933430Y-73884379D01*
X119960213Y-73881500D01*
X130868527Y-73881500D01*
X130932642Y-73900325D01*
X130933078Y-73899571D01*
X130936189Y-73901367D01*
X130936648Y-73901502D01*
X130937682Y-73902229D01*
X130950272Y-73909498D01*
X131055270Y-73970119D01*
X131183581Y-74004500D01*
X131183583Y-74004500D01*
X131316417Y-74004500D01*
X131316419Y-74004500D01*
X131444730Y-73970119D01*
X131559770Y-73903700D01*
X131653700Y-73809770D01*
X131720119Y-73694730D01*
X131754500Y-73566419D01*
X131754500Y-73433581D01*
X131720119Y-73305270D01*
X131679470Y-73234865D01*
X131653702Y-73190233D01*
X131653694Y-73190223D01*
X131559776Y-73096305D01*
X131559766Y-73096297D01*
X131444730Y-73029881D01*
X131399781Y-73017837D01*
X131316419Y-72995500D01*
X131183581Y-72995500D01*
X131100219Y-73017837D01*
X131055269Y-73029881D01*
X130933078Y-73100429D01*
X130931535Y-73097757D01*
X130879004Y-73118064D01*
X130868527Y-73118500D01*
X119699775Y-73118500D01*
X119640390Y-73134412D01*
X119602741Y-73144500D01*
X119538659Y-73181499D01*
X119515756Y-73194721D01*
X119515746Y-73194729D01*
X115249981Y-77460495D01*
X115191332Y-77492520D01*
X115191558Y-77493363D01*
X115188085Y-77494293D01*
X115187669Y-77494521D01*
X115186429Y-77494737D01*
X115183581Y-77495500D01*
X115153725Y-77503500D01*
X115055269Y-77529881D01*
X114940233Y-77596297D01*
X114940223Y-77596305D01*
X114846305Y-77690223D01*
X114846297Y-77690233D01*
X114779881Y-77805269D01*
X114745500Y-77933582D01*
X114745500Y-78066417D01*
X114745499Y-78066417D01*
X104000500Y-78066417D01*
X104000500Y-72066417D01*
X121245499Y-72066417D01*
X121279881Y-72194730D01*
X121346297Y-72309766D01*
X121346305Y-72309776D01*
X121440223Y-72403694D01*
X121440228Y-72403698D01*
X121440230Y-72403700D01*
X121440231Y-72403701D01*
X121440233Y-72403702D01*
X121484865Y-72429470D01*
X121555270Y-72470119D01*
X121683581Y-72504500D01*
X121683583Y-72504500D01*
X121691558Y-72506637D01*
X121690758Y-72509619D01*
X121742252Y-72532394D01*
X121749980Y-72539504D01*
X121765746Y-72555270D01*
X121765751Y-72555274D01*
X121765753Y-72555276D01*
X121765754Y-72555277D01*
X121765756Y-72555278D01*
X121852741Y-72605499D01*
X121852743Y-72605499D01*
X121852746Y-72605501D01*
X121949775Y-72631500D01*
X122050225Y-72631500D01*
X132118527Y-72631500D01*
X132182642Y-72650325D01*
X132183078Y-72649571D01*
X132186189Y-72651367D01*
X132186648Y-72651502D01*
X132187682Y-72652229D01*
X132190230Y-72653700D01*
X132305270Y-72720119D01*
X132433581Y-72754500D01*
X132433583Y-72754500D01*
X132566417Y-72754500D01*
X132566419Y-72754500D01*
X132694730Y-72720119D01*
X132809770Y-72653700D01*
X132903700Y-72559770D01*
X132970119Y-72444730D01*
X133004500Y-72316419D01*
X133004500Y-72183581D01*
X132970119Y-72055270D01*
X132917918Y-71964856D01*
X132903702Y-71940233D01*
X132903694Y-71940223D01*
X132809776Y-71846305D01*
X132809766Y-71846297D01*
X132694730Y-71779881D01*
X132566419Y-71745500D01*
X132433581Y-71745500D01*
X132348040Y-71768420D01*
X132305269Y-71779881D01*
X132183078Y-71850429D01*
X132181535Y-71847757D01*
X132129004Y-71868064D01*
X132118527Y-71868500D01*
X122329371Y-71868500D01*
X122261250Y-71848498D01*
X122220252Y-71805500D01*
X122153702Y-71690233D01*
X122153694Y-71690223D01*
X122059776Y-71596305D01*
X122059766Y-71596297D01*
X121944730Y-71529881D01*
X121816419Y-71495500D01*
X121683581Y-71495500D01*
X121598991Y-71518166D01*
X121555269Y-71529881D01*
X121440233Y-71596297D01*
X121440223Y-71596305D01*
X121346305Y-71690223D01*
X121346297Y-71690233D01*
X121279881Y-71805269D01*
X121245500Y-71933582D01*
X121245500Y-72066417D01*
X121245499Y-72066417D01*
X104000500Y-72066417D01*
X104000500Y-72009503D01*
X104009283Y-71979587D01*
X104015912Y-71949118D01*
X104019726Y-71944022D01*
X104020502Y-71941382D01*
X104037400Y-71920413D01*
X104659499Y-71298314D01*
X166500001Y-71298314D01*
X166510143Y-71397602D01*
X166563453Y-71558483D01*
X166652427Y-71702732D01*
X166652432Y-71702738D01*
X166772261Y-71822567D01*
X166772267Y-71822572D01*
X166916516Y-71911546D01*
X167077393Y-71964855D01*
X167077399Y-71964856D01*
X167176676Y-71974999D01*
X167200000Y-71974998D01*
X167200000Y-71250000D01*
X166500001Y-71250000D01*
X166500001Y-71298314D01*
X104659499Y-71298314D01*
X107592543Y-68365269D01*
X166198282Y-68365269D01*
X166252446Y-68404622D01*
X166441778Y-68501092D01*
X166441784Y-68501095D01*
X166643870Y-68566756D01*
X166643866Y-68566756D01*
X166853756Y-68600000D01*
X167066244Y-68600000D01*
X167276131Y-68566756D01*
X167478215Y-68501095D01*
X167478221Y-68501092D01*
X167667555Y-68404621D01*
X167667557Y-68404620D01*
X167721716Y-68365270D01*
X167721717Y-68365269D01*
X166960001Y-67603553D01*
X166960000Y-67603553D01*
X166198282Y-68365269D01*
X107592543Y-68365269D01*
X109776808Y-66181004D01*
X144299500Y-66181004D01*
X144299500Y-66318995D01*
X144326420Y-66454328D01*
X144379225Y-66581811D01*
X144430447Y-66658471D01*
X144455885Y-66696541D01*
X144455890Y-66696547D01*
X144553452Y-66794109D01*
X144553458Y-66794114D01*
X144668189Y-66870775D01*
X144795672Y-66923580D01*
X144931007Y-66950500D01*
X144931008Y-66950500D01*
X145068992Y-66950500D01*
X145068993Y-66950500D01*
X145204328Y-66923580D01*
X145331811Y-66870775D01*
X145446542Y-66794114D01*
X145544114Y-66696542D01*
X145620775Y-66581811D01*
X145673580Y-66454328D01*
X145700500Y-66318993D01*
X145700500Y-66181007D01*
X145700499Y-66181004D01*
X147299500Y-66181004D01*
X147299500Y-66318995D01*
X147326420Y-66454328D01*
X147379225Y-66581811D01*
X147430447Y-66658471D01*
X147455885Y-66696541D01*
X147455890Y-66696547D01*
X147553452Y-66794109D01*
X147553458Y-66794114D01*
X147668189Y-66870775D01*
X147795672Y-66923580D01*
X147931007Y-66950500D01*
X147931008Y-66950500D01*
X148068992Y-66950500D01*
X148068993Y-66950500D01*
X148204328Y-66923580D01*
X148331811Y-66870775D01*
X148446542Y-66794114D01*
X148544114Y-66696542D01*
X148620775Y-66581811D01*
X148673580Y-66454328D01*
X148700500Y-66318993D01*
X148700500Y-66181007D01*
X148673580Y-66045672D01*
X148620775Y-65918189D01*
X148544114Y-65803458D01*
X148544109Y-65803452D01*
X148446547Y-65705890D01*
X148446541Y-65705885D01*
X148408471Y-65680447D01*
X148331811Y-65629225D01*
X148251421Y-65595926D01*
X148204331Y-65576421D01*
X148204328Y-65576420D01*
X148068995Y-65549500D01*
X148068993Y-65549500D01*
X147931007Y-65549500D01*
X147931004Y-65549500D01*
X147795671Y-65576420D01*
X147795668Y-65576421D01*
X147668189Y-65629225D01*
X147553458Y-65705885D01*
X147553452Y-65705890D01*
X147455890Y-65803452D01*
X147455885Y-65803458D01*
X147379225Y-65918189D01*
X147326421Y-66045668D01*
X147326420Y-66045671D01*
X147299500Y-66181004D01*
X145700499Y-66181004D01*
X145673580Y-66045672D01*
X145620775Y-65918189D01*
X145544114Y-65803458D01*
X145544109Y-65803452D01*
X145446547Y-65705890D01*
X145446541Y-65705885D01*
X145408471Y-65680447D01*
X145331811Y-65629225D01*
X145251421Y-65595926D01*
X145204331Y-65576421D01*
X145204328Y-65576420D01*
X145068995Y-65549500D01*
X145068993Y-65549500D01*
X144931007Y-65549500D01*
X144931004Y-65549500D01*
X144795671Y-65576420D01*
X144795668Y-65576421D01*
X144668189Y-65629225D01*
X144553458Y-65705885D01*
X144553452Y-65705890D01*
X144455890Y-65803452D01*
X144455885Y-65803458D01*
X144379225Y-65918189D01*
X144326421Y-66045668D01*
X144326420Y-66045671D01*
X144299500Y-66181004D01*
X109776808Y-66181004D01*
X110870601Y-65087211D01*
X110932911Y-65053187D01*
X110959594Y-65050308D01*
X162510197Y-65012515D01*
X162578331Y-65032467D01*
X162624863Y-65086089D01*
X162635019Y-65156355D01*
X162605573Y-65220958D01*
X162587169Y-65237208D01*
X162587565Y-65237690D01*
X162582774Y-65241621D01*
X162491621Y-65332774D01*
X162491616Y-65332780D01*
X162419989Y-65439978D01*
X162370654Y-65559083D01*
X162370652Y-65559088D01*
X162345500Y-65685534D01*
X162345500Y-65685537D01*
X162345500Y-65814463D01*
X162370652Y-65940911D01*
X162419989Y-66060022D01*
X162453845Y-66110690D01*
X162491616Y-66167219D01*
X162491621Y-66167225D01*
X162582774Y-66258378D01*
X162582780Y-66258383D01*
X162689978Y-66330011D01*
X162809089Y-66379348D01*
X162935537Y-66404500D01*
X162935538Y-66404500D01*
X163064462Y-66404500D01*
X163064463Y-66404500D01*
X163190911Y-66379348D01*
X163310022Y-66330011D01*
X163417220Y-66258383D01*
X163417225Y-66258378D01*
X163443699Y-66231905D01*
X163506011Y-66197879D01*
X163532794Y-66195000D01*
X165810522Y-66195000D01*
X165878643Y-66215002D01*
X165925136Y-66268658D01*
X165935240Y-66338932D01*
X165912458Y-66395061D01*
X165805379Y-66542442D01*
X165708907Y-66731778D01*
X165708904Y-66731784D01*
X165643243Y-66933868D01*
X165610000Y-67143756D01*
X165610000Y-67356243D01*
X165643243Y-67566131D01*
X165708904Y-67768215D01*
X165708907Y-67768221D01*
X165805377Y-67957553D01*
X165844729Y-68011716D01*
X166694126Y-67162318D01*
X166756439Y-67128293D01*
X166827254Y-67133357D01*
X166872317Y-67162318D01*
X166959999Y-67250000D01*
X167047680Y-67162318D01*
X167109992Y-67128293D01*
X167180808Y-67133357D01*
X167225872Y-67162318D01*
X168075270Y-68011716D01*
X168114620Y-67957557D01*
X168114624Y-67957551D01*
X168157233Y-67873925D01*
X168205980Y-67822310D01*
X168274895Y-67805243D01*
X168342097Y-67828143D01*
X168386250Y-67883740D01*
X168395500Y-67931126D01*
X168395500Y-68125063D01*
X168395501Y-68125073D01*
X168410265Y-68199300D01*
X168466516Y-68283484D01*
X168550697Y-68339733D01*
X168550699Y-68339734D01*
X168624933Y-68354500D01*
X170375066Y-68354499D01*
X170375069Y-68354498D01*
X170375073Y-68354498D01*
X170424326Y-68344701D01*
X170449301Y-68339734D01*
X170533484Y-68283484D01*
X170589734Y-68199301D01*
X170604500Y-68125067D01*
X170604500Y-67821000D01*
X170624502Y-67752879D01*
X170678158Y-67706386D01*
X170730500Y-67695000D01*
X176758439Y-67695000D01*
X176826560Y-67715002D01*
X176847534Y-67731905D01*
X178146034Y-69030405D01*
X178180060Y-69092717D01*
X178174995Y-69163532D01*
X178132448Y-69220368D01*
X178065928Y-69245179D01*
X178056939Y-69245500D01*
X177568166Y-69245500D01*
X177542266Y-69249602D01*
X177473446Y-69260501D01*
X177359276Y-69318673D01*
X177268673Y-69409276D01*
X177210501Y-69523446D01*
X177195500Y-69618167D01*
X177195500Y-69981832D01*
X177212053Y-70086350D01*
X177209399Y-70086770D01*
X177213557Y-70097916D01*
X177209133Y-70118251D01*
X177209708Y-70139052D01*
X177201504Y-70153324D01*
X177198466Y-70167291D01*
X177176974Y-70196001D01*
X177041382Y-70331595D01*
X176979070Y-70365620D01*
X176952286Y-70368500D01*
X176808657Y-70368500D01*
X176740536Y-70348498D01*
X176694043Y-70294842D01*
X176689732Y-70284128D01*
X176681369Y-70260227D01*
X176630215Y-70190916D01*
X176600010Y-70149989D01*
X176489774Y-70068631D01*
X176489767Y-70068628D01*
X176360453Y-70023379D01*
X176360455Y-70023379D01*
X176335889Y-70021075D01*
X176329749Y-70020500D01*
X176329748Y-70020500D01*
X175820259Y-70020500D01*
X175820244Y-70020501D01*
X175789547Y-70023379D01*
X175789544Y-70023380D01*
X175660232Y-70068628D01*
X175660225Y-70068631D01*
X175549991Y-70149988D01*
X175491609Y-70229092D01*
X175435063Y-70272024D01*
X175364283Y-70277570D01*
X175301742Y-70243968D01*
X175269934Y-70191753D01*
X175268016Y-70185598D01*
X175180074Y-70040125D01*
X175180070Y-70040120D01*
X175059879Y-69919929D01*
X175059874Y-69919925D01*
X174914399Y-69831982D01*
X174752101Y-69781408D01*
X174681573Y-69775000D01*
X174675000Y-69775000D01*
X174675000Y-71724999D01*
X174681572Y-71724999D01*
X174752101Y-71718591D01*
X174914398Y-71668017D01*
X174914399Y-71668017D01*
X175059874Y-71580074D01*
X175059879Y-71580070D01*
X175180070Y-71459879D01*
X175180074Y-71459874D01*
X175268017Y-71314399D01*
X175269934Y-71308248D01*
X175309294Y-71249161D01*
X175374351Y-71220734D01*
X175444449Y-71231991D01*
X175491609Y-71270907D01*
X175549991Y-71350011D01*
X175660225Y-71431368D01*
X175660232Y-71431371D01*
X175789546Y-71476620D01*
X175789549Y-71476621D01*
X175820251Y-71479500D01*
X176329748Y-71479499D01*
X176360451Y-71476621D01*
X176489773Y-71431369D01*
X176600010Y-71350010D01*
X176681369Y-71239773D01*
X176689729Y-71215881D01*
X176731107Y-71158192D01*
X176797108Y-71132030D01*
X176808657Y-71131500D01*
X177153642Y-71131500D01*
X177221763Y-71151502D01*
X177268256Y-71205158D01*
X177278360Y-71275432D01*
X177265909Y-71314703D01*
X177210501Y-71423446D01*
X177195500Y-71518167D01*
X177195500Y-71881834D01*
X177199928Y-71909796D01*
X177190827Y-71980207D01*
X177164574Y-72018599D01*
X176773226Y-72409947D01*
X176710914Y-72443973D01*
X176640099Y-72438908D01*
X176595041Y-72409952D01*
X176592548Y-72407459D01*
X176482167Y-72324827D01*
X176482166Y-72324826D01*
X176441788Y-72309766D01*
X176352973Y-72276640D01*
X176345834Y-72275872D01*
X176295871Y-72270500D01*
X176295864Y-72270500D01*
X175754136Y-72270500D01*
X175754128Y-72270500D01*
X175697027Y-72276640D01*
X175567833Y-72324826D01*
X175487841Y-72384709D01*
X175421321Y-72409520D01*
X175351947Y-72394429D01*
X175305091Y-72349988D01*
X175272572Y-72297267D01*
X175272567Y-72297261D01*
X175152738Y-72177432D01*
X175152732Y-72177427D01*
X175008483Y-72088453D01*
X174847606Y-72035144D01*
X174847600Y-72035143D01*
X174748323Y-72025000D01*
X174725000Y-72025000D01*
X174725000Y-75488800D01*
X174704998Y-75556921D01*
X174658459Y-75597247D01*
X174658965Y-75598084D01*
X174654096Y-75601026D01*
X174651342Y-75603414D01*
X174648325Y-75604515D01*
X174540125Y-75669925D01*
X174540120Y-75669929D01*
X174419929Y-75790120D01*
X174419925Y-75790125D01*
X174331982Y-75935600D01*
X174331982Y-75935601D01*
X174281408Y-76097896D01*
X174281408Y-76097900D01*
X174275000Y-76168427D01*
X174275000Y-76250000D01*
X174925000Y-76250000D01*
X174925000Y-75519000D01*
X174945002Y-75450879D01*
X174998658Y-75404386D01*
X175022122Y-75399281D01*
X175021697Y-75397780D01*
X175038554Y-75392999D01*
X175152730Y-75322574D01*
X175152738Y-75322567D01*
X175272567Y-75202738D01*
X175272572Y-75202732D01*
X175305091Y-75150011D01*
X175357877Y-75102533D01*
X175427951Y-75091130D01*
X175487842Y-75115291D01*
X175567832Y-75175172D01*
X175567833Y-75175173D01*
X175567835Y-75175173D01*
X175567837Y-75175175D01*
X175697027Y-75223360D01*
X175754136Y-75229500D01*
X175754141Y-75229500D01*
X176295859Y-75229500D01*
X176295864Y-75229500D01*
X176352973Y-75223360D01*
X176482163Y-75175175D01*
X176574154Y-75106310D01*
X176640673Y-75081499D01*
X176710047Y-75096590D01*
X176738758Y-75118083D01*
X177176290Y-75555615D01*
X177210316Y-75617927D01*
X177205251Y-75688742D01*
X177162704Y-75745578D01*
X177096184Y-75770389D01*
X177081321Y-75770573D01*
X177079756Y-75770500D01*
X176570259Y-75770500D01*
X176570244Y-75770501D01*
X176539547Y-75773379D01*
X176539544Y-75773380D01*
X176410232Y-75818628D01*
X176410225Y-75818631D01*
X176299991Y-75899988D01*
X176241609Y-75979092D01*
X176185063Y-76022024D01*
X176114283Y-76027570D01*
X176051742Y-75993968D01*
X176019934Y-75941753D01*
X176018016Y-75935598D01*
X175930074Y-75790125D01*
X175930070Y-75790120D01*
X175809879Y-75669929D01*
X175809874Y-75669925D01*
X175664399Y-75581982D01*
X175502101Y-75531408D01*
X175431573Y-75525000D01*
X175425000Y-75525000D01*
X175425000Y-79224999D01*
X175431572Y-79224999D01*
X175502101Y-79218591D01*
X175664398Y-79168017D01*
X175664399Y-79168017D01*
X175809874Y-79080074D01*
X175809879Y-79080070D01*
X175930070Y-78959879D01*
X175930074Y-78959874D01*
X176018017Y-78814399D01*
X176019934Y-78808248D01*
X176059294Y-78749161D01*
X176124351Y-78720734D01*
X176194449Y-78731991D01*
X176241609Y-78770907D01*
X176299991Y-78850011D01*
X176410225Y-78931368D01*
X176410232Y-78931371D01*
X176539546Y-78976620D01*
X176539549Y-78976621D01*
X176570251Y-78979500D01*
X176962786Y-78979499D01*
X177030906Y-78999501D01*
X177051881Y-79016404D01*
X178640746Y-80605270D01*
X178640751Y-80605274D01*
X178640753Y-80605276D01*
X178727747Y-80655502D01*
X178824752Y-80681495D01*
X178852255Y-80698259D01*
X178880627Y-80713502D01*
X178882346Y-80716601D01*
X178885373Y-80718446D01*
X178899444Y-80747412D01*
X178915075Y-80775581D01*
X178914846Y-80779118D01*
X178916395Y-80782307D01*
X178912570Y-80814295D01*
X178910491Y-80846430D01*
X178908223Y-80850651D01*
X178907966Y-80852801D01*
X178893518Y-80878023D01*
X178886655Y-80887322D01*
X178830110Y-80930254D01*
X178785276Y-80938500D01*
X177129775Y-80938500D01*
X177070390Y-80954412D01*
X177032741Y-80964500D01*
X176985777Y-80991616D01*
X176945756Y-81014721D01*
X176945746Y-81014729D01*
X175249981Y-82710495D01*
X175191332Y-82742520D01*
X175191558Y-82743363D01*
X175188085Y-82744293D01*
X175187669Y-82744521D01*
X175186429Y-82744737D01*
X175055269Y-82779881D01*
X174940233Y-82846297D01*
X174940223Y-82846305D01*
X174846305Y-82940223D01*
X174846297Y-82940233D01*
X174779881Y-83055269D01*
X174745500Y-83183582D01*
X174745500Y-83316417D01*
X174745499Y-83316417D01*
X174779881Y-83444730D01*
X174846297Y-83559766D01*
X174846305Y-83559776D01*
X174940223Y-83653694D01*
X174940228Y-83653698D01*
X174940230Y-83653700D01*
X175055270Y-83720119D01*
X175183581Y-83754500D01*
X175183583Y-83754500D01*
X175316417Y-83754500D01*
X175316419Y-83754500D01*
X175444730Y-83720119D01*
X175559770Y-83653700D01*
X175653700Y-83559770D01*
X175720119Y-83444730D01*
X175754500Y-83316419D01*
X175754500Y-83316417D01*
X175756637Y-83308442D01*
X175759620Y-83309241D01*
X175782383Y-83257759D01*
X175789492Y-83250030D01*
X177301118Y-81738405D01*
X177363430Y-81704379D01*
X177390213Y-81701500D01*
X178624360Y-81701500D01*
X178692481Y-81721502D01*
X178738974Y-81775158D01*
X178749078Y-81845432D01*
X178719584Y-81910012D01*
X178715469Y-81914431D01*
X178714925Y-81915125D01*
X178626982Y-82060600D01*
X178626982Y-82060601D01*
X178576408Y-82222896D01*
X178576408Y-82222900D01*
X178570000Y-82293427D01*
X178570000Y-82300000D01*
X179544000Y-82300000D01*
X179612121Y-82320002D01*
X179658614Y-82373658D01*
X179670000Y-82426000D01*
X179670000Y-82550000D01*
X179794000Y-82550000D01*
X179862121Y-82570002D01*
X179908614Y-82623658D01*
X179920000Y-82676000D01*
X179920000Y-82938001D01*
X179939119Y-82957120D01*
X179942121Y-82958002D01*
X179955881Y-82973882D01*
X179956904Y-82974905D01*
X179956830Y-82974978D01*
X179988614Y-83011658D01*
X180000000Y-83064000D01*
X180000000Y-83820000D01*
X179500000Y-83820000D01*
X179500000Y-83581999D01*
X179480880Y-83562879D01*
X179477879Y-83561998D01*
X179464118Y-83546117D01*
X179463096Y-83545095D01*
X179463169Y-83545021D01*
X179431386Y-83508342D01*
X179420000Y-83456000D01*
X179420000Y-82800000D01*
X178570001Y-82800000D01*
X178570001Y-82806571D01*
X178576408Y-82877101D01*
X178626982Y-83039398D01*
X178626982Y-83039399D01*
X178714925Y-83184874D01*
X178714929Y-83184879D01*
X178718467Y-83188417D01*
X178752493Y-83250729D01*
X178747428Y-83321544D01*
X178718468Y-83366607D01*
X178634409Y-83450666D01*
X178634408Y-83450668D01*
X178519503Y-83622636D01*
X178440348Y-83813730D01*
X178429156Y-83869999D01*
X178429157Y-83870000D01*
X179283012Y-83870000D01*
X179265795Y-83879940D01*
X179209940Y-83935795D01*
X179170444Y-84004204D01*
X179150000Y-84080504D01*
X179150000Y-84159496D01*
X179170444Y-84235796D01*
X179209940Y-84304205D01*
X179265795Y-84360060D01*
X179283012Y-84370000D01*
X178429156Y-84370000D01*
X178440348Y-84426269D01*
X178519503Y-84617363D01*
X178634408Y-84789331D01*
X178634413Y-84789338D01*
X178780661Y-84935586D01*
X178780668Y-84935591D01*
X178952636Y-85050496D01*
X179143724Y-85129648D01*
X179143727Y-85129649D01*
X179346578Y-85169999D01*
X179346585Y-85170000D01*
X179500000Y-85170000D01*
X179500000Y-84420000D01*
X180000000Y-84420000D01*
X180000000Y-85170000D01*
X180153415Y-85170000D01*
X180153421Y-85169999D01*
X180356272Y-85129649D01*
X180356275Y-85129648D01*
X180547363Y-85050496D01*
X180719331Y-84935591D01*
X180719338Y-84935586D01*
X180781405Y-84873520D01*
X180843717Y-84839494D01*
X180914532Y-84844559D01*
X180971368Y-84887106D01*
X180996179Y-84953626D01*
X180996500Y-84962615D01*
X180996500Y-89200080D01*
X180976498Y-89268201D01*
X180959595Y-89289175D01*
X178154479Y-92094290D01*
X178092167Y-92128316D01*
X178021351Y-92123251D01*
X177964516Y-92080704D01*
X177945779Y-92044827D01*
X177911546Y-91941516D01*
X177822572Y-91797267D01*
X177822567Y-91797261D01*
X177718686Y-91693380D01*
X177684660Y-91631068D01*
X177689725Y-91560253D01*
X177732272Y-91503417D01*
X177762539Y-91487609D01*
X177762470Y-91487460D01*
X177765793Y-91485910D01*
X177768149Y-91484680D01*
X177769121Y-91484357D01*
X177918344Y-91392316D01*
X177918350Y-91392311D01*
X178042311Y-91268350D01*
X178042316Y-91268344D01*
X178134357Y-91119122D01*
X178189506Y-90952691D01*
X178199999Y-90849987D01*
X178200000Y-90849987D01*
X178200000Y-90600000D01*
X177350000Y-90600000D01*
X177350000Y-91556000D01*
X177329998Y-91624121D01*
X177309066Y-91642257D01*
X177311904Y-91645095D01*
X177275000Y-91681999D01*
X177275000Y-92374000D01*
X177272408Y-92382825D01*
X177273718Y-92391932D01*
X177262562Y-92416357D01*
X177254998Y-92442121D01*
X177248044Y-92448145D01*
X177244224Y-92456512D01*
X177221638Y-92471026D01*
X177201342Y-92488614D01*
X177190655Y-92490938D01*
X177184498Y-92494896D01*
X177149000Y-92500000D01*
X176901000Y-92500000D01*
X176832879Y-92479998D01*
X176786386Y-92426342D01*
X176775000Y-92374000D01*
X176775000Y-91519000D01*
X176795002Y-91450879D01*
X176815933Y-91432742D01*
X176813096Y-91429905D01*
X176850000Y-91393001D01*
X176850000Y-90476000D01*
X176870002Y-90407879D01*
X176923658Y-90361386D01*
X176976000Y-90350000D01*
X177100000Y-90350000D01*
X177100000Y-90226000D01*
X177120002Y-90157879D01*
X177173658Y-90111386D01*
X177226000Y-90100000D01*
X178199999Y-90100000D01*
X178199999Y-89850021D01*
X178189506Y-89747308D01*
X178134357Y-89580877D01*
X178042316Y-89431655D01*
X178042311Y-89431649D01*
X177918350Y-89307688D01*
X177918344Y-89307683D01*
X177762876Y-89211790D01*
X177764546Y-89209081D01*
X177721951Y-89171612D01*
X177702458Y-89103344D01*
X177722967Y-89035375D01*
X177752947Y-89003415D01*
X177810404Y-88960404D01*
X177897342Y-88844267D01*
X177948040Y-88708342D01*
X177954500Y-88648255D01*
X177954499Y-87651746D01*
X177948040Y-87591658D01*
X177938625Y-87566417D01*
X177897342Y-87455733D01*
X177810404Y-87339596D01*
X177694267Y-87252658D01*
X177694265Y-87252657D01*
X177694266Y-87252657D01*
X177558349Y-87201962D01*
X177558342Y-87201960D01*
X177519028Y-87197733D01*
X177453437Y-87170562D01*
X177412947Y-87112243D01*
X177406500Y-87072455D01*
X177406500Y-86790879D01*
X177426502Y-86722758D01*
X177474954Y-86680773D01*
X177474255Y-86679493D01*
X177480142Y-86676278D01*
X177480158Y-86676265D01*
X177480194Y-86676249D01*
X177482160Y-86675175D01*
X177482163Y-86675175D01*
X177493295Y-86666842D01*
X177503984Y-86658840D01*
X177592544Y-86592544D01*
X177675175Y-86482163D01*
X177723360Y-86352973D01*
X177729500Y-86295864D01*
X177729500Y-85704136D01*
X177723360Y-85647027D01*
X177675175Y-85517837D01*
X177675173Y-85517835D01*
X177675173Y-85517833D01*
X177675172Y-85517832D01*
X177618041Y-85441516D01*
X177592544Y-85407456D01*
X177545137Y-85371967D01*
X177482167Y-85324827D01*
X177482166Y-85324826D01*
X177423891Y-85303091D01*
X177352973Y-85276640D01*
X177345834Y-85275872D01*
X177295871Y-85270500D01*
X177295864Y-85270500D01*
X176754136Y-85270500D01*
X176754128Y-85270500D01*
X176697027Y-85276640D01*
X176567833Y-85324826D01*
X176487841Y-85384709D01*
X176421321Y-85409520D01*
X176351947Y-85394429D01*
X176305091Y-85349988D01*
X176272572Y-85297267D01*
X176272567Y-85297261D01*
X176152738Y-85177432D01*
X176152732Y-85177427D01*
X176008483Y-85088453D01*
X175847606Y-85035144D01*
X175847600Y-85035143D01*
X175748323Y-85025000D01*
X175725000Y-85025000D01*
X175725000Y-86614500D01*
X175722408Y-86623325D01*
X175723718Y-86632432D01*
X175712562Y-86656857D01*
X175704998Y-86682621D01*
X175698044Y-86688645D01*
X175694224Y-86697012D01*
X175671638Y-86711526D01*
X175651342Y-86729114D01*
X175640655Y-86731438D01*
X175634498Y-86735396D01*
X175599000Y-86740500D01*
X175351000Y-86740500D01*
X175282879Y-86720498D01*
X175236386Y-86666842D01*
X175225000Y-86614500D01*
X175225000Y-86250000D01*
X174525001Y-86250000D01*
X174525001Y-86298314D01*
X174535143Y-86397602D01*
X174588453Y-86558484D01*
X174589744Y-86561252D01*
X174590059Y-86563332D01*
X174590762Y-86565451D01*
X174590399Y-86565570D01*
X174600404Y-86631444D01*
X174571422Y-86696256D01*
X174512002Y-86735111D01*
X174475548Y-86740500D01*
X173056877Y-86740500D01*
X173040728Y-86740500D01*
X173040724Y-86740499D01*
X172940274Y-86740499D01*
X172843246Y-86766498D01*
X172837222Y-86769975D01*
X172817428Y-86772632D01*
X172797892Y-86769635D01*
X172778243Y-86771739D01*
X172763524Y-86764363D01*
X172747252Y-86761867D01*
X172732438Y-86748785D01*
X172714770Y-86739931D01*
X172706376Y-86725769D01*
X172694036Y-86714872D01*
X172688646Y-86695857D01*
X172678570Y-86678857D01*
X172679165Y-86662404D01*
X172674676Y-86646566D01*
X172680421Y-86627656D01*
X172681136Y-86607907D01*
X172687470Y-86592417D01*
X172706961Y-86552550D01*
X172717000Y-86483646D01*
X172717000Y-86216354D01*
X172706961Y-86147450D01*
X172674151Y-86080337D01*
X172662203Y-86010356D01*
X172674150Y-85969664D01*
X172706961Y-85902550D01*
X172717000Y-85833646D01*
X172717000Y-85701676D01*
X174525000Y-85701676D01*
X174525000Y-85750000D01*
X175225000Y-85750000D01*
X175225000Y-85025000D01*
X175224999Y-85024999D01*
X175201694Y-85025000D01*
X175102397Y-85035143D01*
X174941516Y-85088453D01*
X174797267Y-85177427D01*
X174797261Y-85177432D01*
X174677432Y-85297261D01*
X174677427Y-85297267D01*
X174588453Y-85441516D01*
X174535144Y-85602393D01*
X174535143Y-85602399D01*
X174525000Y-85701676D01*
X172717000Y-85701676D01*
X172717000Y-85566354D01*
X172706961Y-85497450D01*
X172674151Y-85430337D01*
X172662203Y-85360356D01*
X172674150Y-85319664D01*
X172706961Y-85252550D01*
X172717000Y-85183646D01*
X172717000Y-84916354D01*
X172706961Y-84847450D01*
X172654999Y-84741160D01*
X172654998Y-84741158D01*
X172652839Y-84738999D01*
X172650831Y-84735322D01*
X172648934Y-84732665D01*
X172649255Y-84732435D01*
X172647007Y-84728319D01*
X172637617Y-84720573D01*
X172630304Y-84697732D01*
X172618813Y-84676687D01*
X172619139Y-84662854D01*
X172615971Y-84652957D01*
X172620212Y-84617349D01*
X172620279Y-84617099D01*
X172649303Y-84566808D01*
X172648671Y-84566323D01*
X172652352Y-84561525D01*
X172652908Y-84560561D01*
X172653700Y-84559770D01*
X172720119Y-84444730D01*
X172754500Y-84316419D01*
X172754500Y-84183581D01*
X172720119Y-84055270D01*
X172653700Y-83940230D01*
X172653697Y-83940227D01*
X172653694Y-83940223D01*
X172559776Y-83846305D01*
X172559766Y-83846297D01*
X172444730Y-83779881D01*
X172316419Y-83745500D01*
X172183581Y-83745500D01*
X172098040Y-83768420D01*
X172055269Y-83779881D01*
X171940233Y-83846297D01*
X171940223Y-83846305D01*
X171846305Y-83940223D01*
X171846297Y-83940233D01*
X171779881Y-84055269D01*
X171762690Y-84119425D01*
X171745500Y-84183581D01*
X171745500Y-84316419D01*
X171753506Y-84346297D01*
X171763349Y-84383032D01*
X171763058Y-84395225D01*
X171767321Y-84406653D01*
X171762229Y-84430060D01*
X171761659Y-84454009D01*
X171754445Y-84465844D01*
X171752230Y-84476027D01*
X171730738Y-84504738D01*
X171676882Y-84558595D01*
X171614570Y-84592620D01*
X171587786Y-84595500D01*
X171053852Y-84595500D01*
X170984949Y-84605539D01*
X170984947Y-84605540D01*
X170878660Y-84657500D01*
X170878658Y-84657501D01*
X170795001Y-84741158D01*
X170795000Y-84741160D01*
X170743040Y-84847447D01*
X170743039Y-84847449D01*
X170739039Y-84874905D01*
X170709424Y-84939431D01*
X170649626Y-84977702D01*
X170578629Y-84977568D01*
X170518975Y-84939072D01*
X170492648Y-84889350D01*
X170491333Y-84884442D01*
X170470119Y-84805270D01*
X170409538Y-84700341D01*
X170403702Y-84690233D01*
X170403694Y-84690223D01*
X170309776Y-84596305D01*
X170309766Y-84596297D01*
X170194730Y-84529881D01*
X170066419Y-84495500D01*
X169933581Y-84495500D01*
X169848040Y-84518420D01*
X169805269Y-84529881D01*
X169690233Y-84596297D01*
X169690223Y-84596305D01*
X169596305Y-84690223D01*
X169596297Y-84690233D01*
X169529881Y-84805269D01*
X169508667Y-84884442D01*
X169471715Y-84945065D01*
X169407854Y-84976086D01*
X169337360Y-84967658D01*
X169297865Y-84940926D01*
X169106920Y-84749981D01*
X169074894Y-84691332D01*
X169074053Y-84691558D01*
X169073123Y-84688089D01*
X169072894Y-84687669D01*
X169072676Y-84686422D01*
X169071916Y-84683585D01*
X169071916Y-84683581D01*
X169037535Y-84555270D01*
X168991784Y-84476027D01*
X168971118Y-84440233D01*
X168971110Y-84440223D01*
X168877192Y-84346305D01*
X168877182Y-84346297D01*
X168762146Y-84279881D01*
X168633835Y-84245500D01*
X168500997Y-84245500D01*
X168457620Y-84257123D01*
X168372681Y-84279882D01*
X168369213Y-84281319D01*
X168366053Y-84281658D01*
X168364708Y-84282019D01*
X168364651Y-84281809D01*
X168298623Y-84288905D01*
X168235138Y-84257123D01*
X168198913Y-84196064D01*
X168195000Y-84164908D01*
X168195000Y-80366416D01*
X168195000Y-80366415D01*
X168164674Y-80253236D01*
X168123183Y-80181371D01*
X168106091Y-80151767D01*
X168106087Y-80151762D01*
X168086679Y-80132354D01*
X168023236Y-80068911D01*
X166535896Y-78581571D01*
X174275001Y-78581571D01*
X174281408Y-78652101D01*
X174331982Y-78814398D01*
X174331982Y-78814399D01*
X174419925Y-78959874D01*
X174419929Y-78959879D01*
X174540120Y-79080070D01*
X174540125Y-79080074D01*
X174685600Y-79168017D01*
X174847898Y-79218591D01*
X174918411Y-79224999D01*
X174918424Y-79224999D01*
X174924999Y-79224998D01*
X174925000Y-79224998D01*
X174925000Y-78500000D01*
X174275001Y-78500000D01*
X174275001Y-78581571D01*
X166535896Y-78581571D01*
X166016404Y-78062079D01*
X166001459Y-78034710D01*
X165984603Y-78008482D01*
X165983697Y-78002183D01*
X165982378Y-77999767D01*
X165979499Y-77972984D01*
X165979499Y-77918427D01*
X174275000Y-77918427D01*
X174275000Y-78000000D01*
X174925000Y-78000000D01*
X174925000Y-76750000D01*
X174275001Y-76750000D01*
X174275001Y-76831571D01*
X174281408Y-76902101D01*
X174331982Y-77064398D01*
X174331982Y-77064399D01*
X174419925Y-77209874D01*
X174419929Y-77209879D01*
X174495955Y-77285905D01*
X174529981Y-77348217D01*
X174524916Y-77419032D01*
X174495955Y-77464095D01*
X174419929Y-77540120D01*
X174419925Y-77540125D01*
X174331982Y-77685600D01*
X174331982Y-77685601D01*
X174281408Y-77847896D01*
X174281408Y-77847900D01*
X174275000Y-77918427D01*
X165979499Y-77918427D01*
X165979499Y-77670260D01*
X165979498Y-77670244D01*
X165976621Y-77639549D01*
X165951904Y-77568911D01*
X165931371Y-77510232D01*
X165931368Y-77510225D01*
X165850010Y-77399989D01*
X165739774Y-77318631D01*
X165739767Y-77318628D01*
X165610453Y-77273379D01*
X165610455Y-77273379D01*
X165579751Y-77270500D01*
X165579749Y-77270500D01*
X165277015Y-77270500D01*
X165208894Y-77250498D01*
X165187920Y-77233595D01*
X164865405Y-76911080D01*
X164831379Y-76848768D01*
X164828500Y-76821985D01*
X164828500Y-75600999D01*
X164848502Y-75532878D01*
X164902158Y-75486385D01*
X164954499Y-75474999D01*
X165000000Y-75474998D01*
X165000000Y-74651000D01*
X165002591Y-74642174D01*
X165001282Y-74633068D01*
X165012437Y-74608642D01*
X165020002Y-74582879D01*
X165026955Y-74576854D01*
X165030776Y-74568488D01*
X165053361Y-74553973D01*
X165073658Y-74536386D01*
X165084344Y-74534061D01*
X165090502Y-74530104D01*
X165126000Y-74525000D01*
X165374000Y-74525000D01*
X165442121Y-74545002D01*
X165488614Y-74598658D01*
X165500000Y-74651000D01*
X165500000Y-75474999D01*
X165548314Y-75474999D01*
X165647602Y-75464856D01*
X165808483Y-75411546D01*
X165952732Y-75322572D01*
X165952738Y-75322567D01*
X166072567Y-75202738D01*
X166077123Y-75196977D01*
X166079106Y-75198545D01*
X166122985Y-75159045D01*
X166193055Y-75147612D01*
X166250547Y-75172563D01*
X166251198Y-75171590D01*
X166256559Y-75175172D01*
X166258183Y-75175877D01*
X166259732Y-75177292D01*
X166345697Y-75234733D01*
X166345699Y-75234734D01*
X166419933Y-75249500D01*
X167790066Y-75249499D01*
X167790069Y-75249498D01*
X167790073Y-75249498D01*
X167839326Y-75239701D01*
X167864301Y-75234734D01*
X167948484Y-75178484D01*
X168004734Y-75094301D01*
X168019500Y-75020067D01*
X168019499Y-74829211D01*
X168039501Y-74761093D01*
X168093156Y-74714600D01*
X168163430Y-74704495D01*
X168228011Y-74733988D01*
X168234594Y-74740117D01*
X168445021Y-74950544D01*
X168479045Y-75012854D01*
X168479504Y-75015057D01*
X168495266Y-75094301D01*
X168551516Y-75178484D01*
X168635697Y-75234733D01*
X168635699Y-75234734D01*
X168709933Y-75249500D01*
X170080066Y-75249499D01*
X170080069Y-75249498D01*
X170080073Y-75249498D01*
X170129326Y-75239701D01*
X170154301Y-75234734D01*
X170238484Y-75178484D01*
X170294734Y-75094301D01*
X170309500Y-75020067D01*
X170309500Y-74798314D01*
X173525001Y-74798314D01*
X173535143Y-74897602D01*
X173588453Y-75058483D01*
X173677427Y-75202732D01*
X173677432Y-75202738D01*
X173797261Y-75322567D01*
X173797267Y-75322572D01*
X173941516Y-75411546D01*
X174102393Y-75464855D01*
X174102399Y-75464856D01*
X174201676Y-75474999D01*
X174225000Y-75474998D01*
X174225000Y-74750000D01*
X173525001Y-74750000D01*
X173525001Y-74798314D01*
X170309500Y-74798314D01*
X170309499Y-74542131D01*
X170329501Y-74474011D01*
X170359991Y-74441263D01*
X170412189Y-74402188D01*
X170498352Y-74287089D01*
X170530210Y-74201676D01*
X173525000Y-74201676D01*
X173525000Y-74250000D01*
X174225000Y-74250000D01*
X174225000Y-73250000D01*
X173525001Y-73250000D01*
X173525001Y-73298314D01*
X173535143Y-73397602D01*
X173588453Y-73558483D01*
X173665782Y-73683853D01*
X173684519Y-73752332D01*
X173665782Y-73816147D01*
X173588453Y-73941516D01*
X173535144Y-74102393D01*
X173535143Y-74102399D01*
X173525000Y-74201676D01*
X170530210Y-74201676D01*
X170547826Y-74154445D01*
X170547826Y-74154444D01*
X170548598Y-74152373D01*
X170554999Y-74092840D01*
X170555000Y-74092823D01*
X170555000Y-74000000D01*
X169521000Y-74000000D01*
X169512174Y-73997408D01*
X169503068Y-73998718D01*
X169478642Y-73987562D01*
X169452879Y-73979998D01*
X169446854Y-73973044D01*
X169438488Y-73969224D01*
X169423973Y-73946638D01*
X169406386Y-73926342D01*
X169404061Y-73915655D01*
X169400104Y-73909498D01*
X169395000Y-73874000D01*
X169395000Y-73626000D01*
X169415002Y-73557879D01*
X169468658Y-73511386D01*
X169521000Y-73500000D01*
X170555000Y-73500000D01*
X170555000Y-73407176D01*
X170554999Y-73407159D01*
X170548599Y-73347628D01*
X170498352Y-73212910D01*
X170412188Y-73097810D01*
X170359989Y-73058733D01*
X170317443Y-73001897D01*
X170309499Y-72957870D01*
X170309499Y-72701676D01*
X173525000Y-72701676D01*
X173525000Y-72750000D01*
X174225000Y-72750000D01*
X174225000Y-72025000D01*
X174224999Y-72024999D01*
X174201694Y-72025000D01*
X174102397Y-72035143D01*
X173941516Y-72088453D01*
X173797267Y-72177427D01*
X173797261Y-72177432D01*
X173677432Y-72297261D01*
X173677427Y-72297267D01*
X173588453Y-72441516D01*
X173535144Y-72602393D01*
X173535143Y-72602399D01*
X173525000Y-72701676D01*
X170309499Y-72701676D01*
X170309499Y-72479934D01*
X170309497Y-72479926D01*
X170294734Y-72405699D01*
X170293394Y-72403694D01*
X170238484Y-72321516D01*
X170230853Y-72316417D01*
X170154302Y-72265266D01*
X170080069Y-72250500D01*
X170080067Y-72250500D01*
X169571000Y-72250500D01*
X169502879Y-72230498D01*
X169456386Y-72176842D01*
X169445000Y-72124500D01*
X169445000Y-71747350D01*
X169465002Y-71679229D01*
X169495488Y-71646484D01*
X169567544Y-71592544D01*
X169650175Y-71482163D01*
X169698360Y-71352973D01*
X169704500Y-71295864D01*
X169704500Y-71081571D01*
X173525001Y-71081571D01*
X173531408Y-71152101D01*
X173581982Y-71314398D01*
X173581982Y-71314399D01*
X173669925Y-71459874D01*
X173669929Y-71459879D01*
X173790120Y-71580070D01*
X173790125Y-71580074D01*
X173935600Y-71668017D01*
X174097898Y-71718591D01*
X174168411Y-71724999D01*
X174168424Y-71724999D01*
X174174999Y-71724998D01*
X174175000Y-71724998D01*
X174175000Y-71000000D01*
X173525001Y-71000000D01*
X173525001Y-71081571D01*
X169704500Y-71081571D01*
X169704500Y-70704136D01*
X169698360Y-70647027D01*
X169650175Y-70517837D01*
X169575757Y-70418427D01*
X173525000Y-70418427D01*
X173525000Y-70500000D01*
X174175000Y-70500000D01*
X174175000Y-69775000D01*
X174174999Y-69774999D01*
X174168433Y-69775000D01*
X174168422Y-69775001D01*
X174097898Y-69781408D01*
X173935601Y-69831982D01*
X173935600Y-69831982D01*
X173790125Y-69919925D01*
X173790120Y-69919929D01*
X173669929Y-70040120D01*
X173669925Y-70040125D01*
X173581982Y-70185600D01*
X173581982Y-70185601D01*
X173531408Y-70347896D01*
X173531408Y-70347900D01*
X173525000Y-70418427D01*
X169575757Y-70418427D01*
X169567544Y-70407456D01*
X169543623Y-70389549D01*
X169457167Y-70324827D01*
X169457166Y-70324826D01*
X169417472Y-70310021D01*
X169327973Y-70276640D01*
X169320834Y-70275872D01*
X169270871Y-70270500D01*
X169270864Y-70270500D01*
X168952015Y-70270500D01*
X168883894Y-70250498D01*
X168862920Y-70233595D01*
X168273237Y-69643912D01*
X168273232Y-69643908D01*
X168171768Y-69585328D01*
X168171766Y-69585327D01*
X168171764Y-69585326D01*
X168171761Y-69585325D01*
X168171756Y-69585323D01*
X168098717Y-69565752D01*
X168098717Y-69565753D01*
X168058586Y-69555000D01*
X168058585Y-69555000D01*
X163282794Y-69555000D01*
X163214673Y-69534998D01*
X163193699Y-69518095D01*
X163167225Y-69491621D01*
X163167219Y-69491616D01*
X163131649Y-69467849D01*
X163060022Y-69419989D01*
X162940911Y-69370652D01*
X162814465Y-69345500D01*
X162814463Y-69345500D01*
X162685537Y-69345500D01*
X162685534Y-69345500D01*
X162559088Y-69370652D01*
X162559083Y-69370654D01*
X162439978Y-69419989D01*
X162332780Y-69491616D01*
X162332774Y-69491621D01*
X162241621Y-69582774D01*
X162241616Y-69582780D01*
X162169989Y-69689978D01*
X162120654Y-69809083D01*
X162120652Y-69809088D01*
X162095500Y-69935534D01*
X162095500Y-70064465D01*
X162115954Y-70167291D01*
X162120652Y-70190911D01*
X162169989Y-70310022D01*
X162201632Y-70357379D01*
X162241616Y-70417219D01*
X162241621Y-70417225D01*
X162332774Y-70508378D01*
X162332780Y-70508383D01*
X162439978Y-70580011D01*
X162559089Y-70629348D01*
X162685537Y-70654500D01*
X162685538Y-70654500D01*
X162814462Y-70654500D01*
X162814463Y-70654500D01*
X162940911Y-70629348D01*
X163060022Y-70580011D01*
X163167220Y-70508383D01*
X163175603Y-70500000D01*
X163193699Y-70481905D01*
X163256011Y-70447879D01*
X163282794Y-70445000D01*
X166388010Y-70445000D01*
X166456131Y-70465002D01*
X166502624Y-70518658D01*
X166512728Y-70588932D01*
X166511219Y-70597375D01*
X166510143Y-70602400D01*
X166500000Y-70701676D01*
X166500000Y-70750000D01*
X167324000Y-70750000D01*
X167392121Y-70770002D01*
X167438614Y-70823658D01*
X167450000Y-70876000D01*
X167450000Y-71000000D01*
X167574000Y-71000000D01*
X167642121Y-71020002D01*
X167688614Y-71073658D01*
X167700000Y-71126000D01*
X167700000Y-71974999D01*
X167723314Y-71974999D01*
X167822602Y-71964856D01*
X167983483Y-71911546D01*
X168127732Y-71822572D01*
X168127738Y-71822567D01*
X168247567Y-71702738D01*
X168247572Y-71702732D01*
X168280091Y-71650011D01*
X168291124Y-71640087D01*
X168298236Y-71627063D01*
X168316989Y-71616822D01*
X168332877Y-71602533D01*
X168347524Y-71600149D01*
X168360548Y-71593038D01*
X168381860Y-71594562D01*
X168402951Y-71591130D01*
X168417836Y-71597134D01*
X168431364Y-71598102D01*
X168462835Y-71615285D01*
X168504511Y-71646484D01*
X168547055Y-71703317D01*
X168555000Y-71747350D01*
X168555000Y-72278080D01*
X168534998Y-72346201D01*
X168533764Y-72348083D01*
X168495266Y-72405697D01*
X168479503Y-72484942D01*
X168446595Y-72547852D01*
X168445020Y-72549455D01*
X168234595Y-72759881D01*
X168172283Y-72793906D01*
X168101467Y-72788842D01*
X168044631Y-72746295D01*
X168019820Y-72679775D01*
X168019499Y-72670786D01*
X168019499Y-72479936D01*
X168019498Y-72479926D01*
X168004734Y-72405699D01*
X168003394Y-72403694D01*
X167948484Y-72321516D01*
X167940853Y-72316417D01*
X167864302Y-72265266D01*
X167790067Y-72250500D01*
X166419936Y-72250500D01*
X166419926Y-72250501D01*
X166345698Y-72265266D01*
X166281346Y-72308265D01*
X166261518Y-72321515D01*
X166251199Y-72328410D01*
X166249821Y-72326348D01*
X166202625Y-72352121D01*
X166175842Y-72355000D01*
X165814409Y-72355000D01*
X165746288Y-72334998D01*
X165738898Y-72329867D01*
X165734197Y-72326348D01*
X165732163Y-72324825D01*
X165602973Y-72276640D01*
X165595834Y-72275872D01*
X165545871Y-72270500D01*
X165545864Y-72270500D01*
X164954136Y-72270500D01*
X164954128Y-72270500D01*
X164897027Y-72276640D01*
X164767833Y-72324826D01*
X164767832Y-72324827D01*
X164657456Y-72407456D01*
X164574827Y-72517832D01*
X164574826Y-72517833D01*
X164526640Y-72647027D01*
X164520500Y-72704128D01*
X164520500Y-73022985D01*
X164500498Y-73091106D01*
X164483595Y-73112080D01*
X164110264Y-73485411D01*
X164084289Y-73511386D01*
X164027412Y-73568262D01*
X164027408Y-73568267D01*
X163968825Y-73669736D01*
X163968826Y-73669737D01*
X163941827Y-73770500D01*
X163938500Y-73782915D01*
X163938500Y-77117085D01*
X163955725Y-77181369D01*
X163968825Y-77230261D01*
X163968828Y-77230268D01*
X164003892Y-77291000D01*
X164020630Y-77359996D01*
X163997409Y-77427087D01*
X163941602Y-77470974D01*
X163894773Y-77480000D01*
X155883586Y-77480000D01*
X155766414Y-77480000D01*
X155678711Y-77503500D01*
X155678710Y-77503499D01*
X155653242Y-77510324D01*
X155653237Y-77510325D01*
X155653236Y-77510326D01*
X155653235Y-77510326D01*
X155653231Y-77510328D01*
X155551767Y-77568908D01*
X152312080Y-80808595D01*
X152249768Y-80842621D01*
X152222985Y-80845500D01*
X152185534Y-80845500D01*
X152059088Y-80870652D01*
X152059083Y-80870654D01*
X151939978Y-80919989D01*
X151832780Y-80991616D01*
X151832774Y-80991621D01*
X151741621Y-81082774D01*
X151741616Y-81082780D01*
X151669989Y-81189978D01*
X151620654Y-81309083D01*
X151620652Y-81309088D01*
X151595500Y-81435534D01*
X151595500Y-81564465D01*
X151617704Y-81676089D01*
X151620652Y-81690911D01*
X151669989Y-81810022D01*
X151717849Y-81881649D01*
X151741616Y-81917219D01*
X151741621Y-81917225D01*
X151832774Y-82008378D01*
X151832780Y-82008383D01*
X151939978Y-82080011D01*
X152059089Y-82129348D01*
X152185537Y-82154500D01*
X152185538Y-82154500D01*
X152219500Y-82154500D01*
X152287621Y-82174502D01*
X152334114Y-82228158D01*
X152345500Y-82280500D01*
X152345500Y-82314465D01*
X152367686Y-82426000D01*
X152370652Y-82440911D01*
X152419989Y-82560022D01*
X152462510Y-82623658D01*
X152491616Y-82667219D01*
X152491621Y-82667225D01*
X152582774Y-82758378D01*
X152582780Y-82758383D01*
X152689978Y-82830011D01*
X152809089Y-82879348D01*
X152935537Y-82904500D01*
X152935538Y-82904500D01*
X153064462Y-82904500D01*
X153064463Y-82904500D01*
X153190911Y-82879348D01*
X153310022Y-82830011D01*
X153417220Y-82758383D01*
X153508383Y-82667220D01*
X153580011Y-82560022D01*
X153629348Y-82440911D01*
X153654500Y-82314463D01*
X153654500Y-82277015D01*
X153674502Y-82208894D01*
X153691405Y-82187920D01*
X155822420Y-80056905D01*
X155884732Y-80022879D01*
X155911515Y-80020000D01*
X160625125Y-80020000D01*
X160693246Y-80040002D01*
X160739739Y-80093658D01*
X160751058Y-80141889D01*
X160751667Y-80160563D01*
X160745500Y-80183581D01*
X160745500Y-80316419D01*
X160758316Y-80364251D01*
X160758790Y-80378746D01*
X160753387Y-80399643D01*
X160752874Y-80421223D01*
X160744679Y-80433329D01*
X160741021Y-80447483D01*
X160725178Y-80462142D01*
X160713079Y-80480019D01*
X160699640Y-80485773D01*
X160688911Y-80495702D01*
X160667657Y-80499469D01*
X160647815Y-80507966D01*
X160627797Y-80506534D01*
X160619004Y-80508093D01*
X160612686Y-80505453D01*
X160600247Y-80504564D01*
X160566419Y-80495500D01*
X160433581Y-80495500D01*
X160386584Y-80508093D01*
X160305269Y-80529881D01*
X160190233Y-80596297D01*
X160190223Y-80596305D01*
X160096305Y-80690223D01*
X160096297Y-80690233D01*
X160029881Y-80805269D01*
X160029881Y-80805270D01*
X159996392Y-80930254D01*
X159995500Y-80933582D01*
X159995500Y-81066419D01*
X160004564Y-81100247D01*
X160002874Y-81171223D01*
X159963079Y-81230019D01*
X159897815Y-81257966D01*
X159850247Y-81254564D01*
X159816419Y-81245500D01*
X159683581Y-81245500D01*
X159598040Y-81268420D01*
X159555269Y-81279881D01*
X159440233Y-81346297D01*
X159440223Y-81346305D01*
X159346305Y-81440223D01*
X159346297Y-81440233D01*
X159279881Y-81555269D01*
X159264813Y-81611505D01*
X159246989Y-81678026D01*
X159245500Y-81683582D01*
X159245500Y-81816417D01*
X159245499Y-81816417D01*
X159279881Y-81944730D01*
X159346297Y-82059766D01*
X159346305Y-82059776D01*
X159440223Y-82153694D01*
X159440228Y-82153698D01*
X159440230Y-82153700D01*
X159440231Y-82153701D01*
X159440233Y-82153702D01*
X159476260Y-82174502D01*
X159555270Y-82220119D01*
X159683581Y-82254500D01*
X159683583Y-82254500D01*
X159691558Y-82256637D01*
X159690758Y-82259619D01*
X159742246Y-82282388D01*
X159749981Y-82289504D01*
X163766057Y-86305580D01*
X163800083Y-86367892D01*
X163795018Y-86438707D01*
X163752471Y-86495543D01*
X163685951Y-86520354D01*
X163644351Y-86516382D01*
X163566419Y-86495500D01*
X163433581Y-86495500D01*
X163355649Y-86516382D01*
X163305269Y-86529881D01*
X163190233Y-86596297D01*
X163190223Y-86596305D01*
X163096305Y-86690223D01*
X163096299Y-86690230D01*
X163079509Y-86719313D01*
X163028126Y-86768306D01*
X162958412Y-86781741D01*
X162937784Y-86778020D01*
X162816419Y-86745500D01*
X162683581Y-86745500D01*
X162626750Y-86760728D01*
X162555269Y-86779881D01*
X162440233Y-86846297D01*
X162440223Y-86846305D01*
X162346305Y-86940223D01*
X162346299Y-86940230D01*
X162329509Y-86969313D01*
X162278126Y-87018306D01*
X162208412Y-87031741D01*
X162187784Y-87028020D01*
X162066419Y-86995500D01*
X161933581Y-86995500D01*
X161848468Y-87018306D01*
X161805269Y-87029881D01*
X161690233Y-87096297D01*
X161690223Y-87096305D01*
X161596305Y-87190223D01*
X161596299Y-87190230D01*
X161579509Y-87219313D01*
X161528126Y-87268306D01*
X161458412Y-87281741D01*
X161437784Y-87278020D01*
X161316419Y-87245500D01*
X161183581Y-87245500D01*
X161098942Y-87268179D01*
X161055269Y-87279881D01*
X160940233Y-87346297D01*
X160940223Y-87346305D01*
X160846305Y-87440223D01*
X160846299Y-87440230D01*
X160829509Y-87469313D01*
X160778126Y-87518306D01*
X160708412Y-87531741D01*
X160687784Y-87528020D01*
X160566419Y-87495500D01*
X160433581Y-87495500D01*
X160369909Y-87512561D01*
X160305269Y-87529881D01*
X160190233Y-87596297D01*
X160190223Y-87596305D01*
X160096305Y-87690223D01*
X160096297Y-87690233D01*
X160029881Y-87805269D01*
X159995500Y-87933582D01*
X159995500Y-88066417D01*
X159995499Y-88066417D01*
X160029881Y-88194730D01*
X160096297Y-88309766D01*
X160096305Y-88309776D01*
X160190223Y-88403694D01*
X160190228Y-88403698D01*
X160190230Y-88403700D01*
X160190231Y-88403701D01*
X160190233Y-88403702D01*
X160222058Y-88422076D01*
X160305270Y-88470119D01*
X160433581Y-88504500D01*
X160433583Y-88504500D01*
X160441558Y-88506637D01*
X160440758Y-88509619D01*
X160492246Y-88532388D01*
X160499981Y-88539504D01*
X162444724Y-90484247D01*
X162515753Y-90555276D01*
X162515754Y-90555277D01*
X162515756Y-90555278D01*
X162602741Y-90605499D01*
X162602743Y-90605499D01*
X162602746Y-90605501D01*
X162699775Y-90631500D01*
X162800225Y-90631500D01*
X164882311Y-90631500D01*
X164950432Y-90651502D01*
X164996925Y-90705158D01*
X165007117Y-90761795D01*
X165008000Y-90761795D01*
X165008000Y-91033647D01*
X165018039Y-91102550D01*
X165057295Y-91182851D01*
X165069243Y-91252835D01*
X165041458Y-91318169D01*
X165033193Y-91327284D01*
X164278880Y-92081596D01*
X164251514Y-92096539D01*
X164225285Y-92113396D01*
X164218983Y-92114302D01*
X164216570Y-92115620D01*
X164189787Y-92118500D01*
X164131473Y-92118500D01*
X164067357Y-92099674D01*
X164066922Y-92100429D01*
X164063810Y-92098632D01*
X164063352Y-92098498D01*
X164062317Y-92097770D01*
X163944730Y-92029881D01*
X163899766Y-92017833D01*
X163816419Y-91995500D01*
X163683581Y-91995500D01*
X163600237Y-92017832D01*
X163555269Y-92029881D01*
X163440233Y-92096297D01*
X163440223Y-92096305D01*
X163346305Y-92190223D01*
X163346297Y-92190233D01*
X163279881Y-92305269D01*
X163279881Y-92305270D01*
X163258479Y-92385145D01*
X163245500Y-92433582D01*
X163245500Y-92566417D01*
X163245499Y-92566417D01*
X163279881Y-92694730D01*
X163346297Y-92809766D01*
X163346305Y-92809776D01*
X163440223Y-92903694D01*
X163440228Y-92903698D01*
X163440230Y-92903700D01*
X163555270Y-92970119D01*
X163683581Y-93004500D01*
X163683583Y-93004500D01*
X163816417Y-93004500D01*
X163816419Y-93004500D01*
X163944730Y-92970119D01*
X164059770Y-92903700D01*
X164059769Y-92903700D01*
X164066922Y-92899571D01*
X164068464Y-92902242D01*
X164120996Y-92881936D01*
X164131473Y-92881500D01*
X164450223Y-92881500D01*
X164450225Y-92881500D01*
X164547254Y-92855501D01*
X164547257Y-92855499D01*
X164547258Y-92855499D01*
X164590750Y-92830388D01*
X164634247Y-92805276D01*
X164705276Y-92734247D01*
X166048118Y-91391405D01*
X166110430Y-91357379D01*
X166137213Y-91354500D01*
X166671140Y-91354500D01*
X166671146Y-91354500D01*
X166740050Y-91344461D01*
X166846340Y-91292499D01*
X166929999Y-91208840D01*
X166981961Y-91102550D01*
X166992000Y-91033646D01*
X166992000Y-90766354D01*
X166981961Y-90697450D01*
X166949151Y-90630337D01*
X166937203Y-90560356D01*
X166949150Y-90519664D01*
X166981961Y-90452550D01*
X166992000Y-90383646D01*
X166992000Y-90116354D01*
X166981961Y-90047450D01*
X166949151Y-89980337D01*
X166937203Y-89910356D01*
X166949150Y-89869664D01*
X166981961Y-89802550D01*
X166992000Y-89733646D01*
X166992000Y-89466354D01*
X166981961Y-89397450D01*
X166949151Y-89330337D01*
X166937203Y-89260356D01*
X166949150Y-89219664D01*
X166981961Y-89152550D01*
X166992000Y-89083646D01*
X166992000Y-88816354D01*
X166981961Y-88747450D01*
X166949151Y-88680337D01*
X166937203Y-88610356D01*
X166949150Y-88569664D01*
X166981961Y-88502550D01*
X166992000Y-88433646D01*
X166992000Y-88166354D01*
X166981961Y-88097450D01*
X166949151Y-88030337D01*
X166937203Y-87960356D01*
X166949150Y-87919664D01*
X166981961Y-87852550D01*
X166992000Y-87783646D01*
X166992000Y-87516354D01*
X166981961Y-87447450D01*
X166949151Y-87380337D01*
X166937203Y-87310356D01*
X166949150Y-87269664D01*
X166981961Y-87202550D01*
X166992000Y-87133646D01*
X166992000Y-86871123D01*
X166999971Y-86843974D01*
X167004664Y-86816068D01*
X167009836Y-86810378D01*
X167012002Y-86803002D01*
X167033387Y-86784471D01*
X167052421Y-86763534D01*
X167062562Y-86759190D01*
X167065658Y-86756509D01*
X167085378Y-86749419D01*
X167146392Y-86733071D01*
X167217365Y-86734761D01*
X167276161Y-86774555D01*
X167304109Y-86839819D01*
X167305000Y-86854778D01*
X167305000Y-87558587D01*
X167313861Y-87591655D01*
X167313861Y-87591658D01*
X167313862Y-87591658D01*
X167335325Y-87671761D01*
X167335328Y-87671768D01*
X167393908Y-87773232D01*
X167393912Y-87773237D01*
X170241095Y-90620420D01*
X170275121Y-90682732D01*
X170278000Y-90709515D01*
X170278000Y-91472581D01*
X170257998Y-91540702D01*
X170204342Y-91587195D01*
X170134068Y-91597299D01*
X170069488Y-91567805D01*
X170062905Y-91561676D01*
X168188134Y-89686905D01*
X168154108Y-89624593D01*
X168159173Y-89553778D01*
X168168103Y-89534821D01*
X168220119Y-89444730D01*
X168254500Y-89316419D01*
X168254500Y-89183581D01*
X168220119Y-89055270D01*
X168165348Y-88960404D01*
X168153702Y-88940233D01*
X168153694Y-88940223D01*
X168059776Y-88846305D01*
X168059766Y-88846297D01*
X167944730Y-88779881D01*
X167944723Y-88779879D01*
X167816419Y-88745500D01*
X167683581Y-88745500D01*
X167607500Y-88765886D01*
X167555269Y-88779881D01*
X167440233Y-88846297D01*
X167440223Y-88846305D01*
X167346305Y-88940223D01*
X167346297Y-88940233D01*
X167279881Y-89055269D01*
X167245500Y-89183582D01*
X167245500Y-89316417D01*
X167245499Y-89316417D01*
X167279881Y-89444730D01*
X167350429Y-89566922D01*
X167347752Y-89568467D01*
X167368060Y-89620956D01*
X167368500Y-89631472D01*
X167368500Y-89838517D01*
X167368499Y-89838517D01*
X167368500Y-89838519D01*
X167394499Y-89935548D01*
X167437340Y-90009752D01*
X167444724Y-90022541D01*
X167444727Y-90022544D01*
X167444730Y-90022548D01*
X171030452Y-93608270D01*
X171030457Y-93608274D01*
X171030459Y-93608276D01*
X171030460Y-93608277D01*
X171030462Y-93608278D01*
X171117448Y-93658500D01*
X171117450Y-93658500D01*
X171117453Y-93658502D01*
X171214481Y-93684500D01*
X171214482Y-93684500D01*
X177535517Y-93684500D01*
X177535519Y-93684500D01*
X177632548Y-93658501D01*
X177632551Y-93658499D01*
X177632552Y-93658499D01*
X177676044Y-93633388D01*
X177719541Y-93608276D01*
X177790570Y-93537247D01*
X181683276Y-89644541D01*
X181733502Y-89557547D01*
X181759501Y-89460519D01*
X181759501Y-89360069D01*
X181759501Y-89352352D01*
X181759500Y-89352334D01*
X181759500Y-83869999D01*
X182229156Y-83869999D01*
X182229157Y-83870000D01*
X183083012Y-83870000D01*
X183065795Y-83879940D01*
X183009940Y-83935795D01*
X182970444Y-84004204D01*
X182950000Y-84080504D01*
X182950000Y-84159496D01*
X182970444Y-84235796D01*
X183009940Y-84304205D01*
X183065795Y-84360060D01*
X183083012Y-84370000D01*
X182229156Y-84370000D01*
X182240348Y-84426269D01*
X182319503Y-84617363D01*
X182434408Y-84789331D01*
X182434413Y-84789338D01*
X182580661Y-84935586D01*
X182580668Y-84935591D01*
X182752636Y-85050496D01*
X182943724Y-85129648D01*
X182943727Y-85129649D01*
X183146578Y-85169999D01*
X183146585Y-85170000D01*
X183300000Y-85170000D01*
X183300000Y-84420000D01*
X183800000Y-84420000D01*
X183800000Y-85170000D01*
X183953415Y-85170000D01*
X183953421Y-85169999D01*
X184156272Y-85129649D01*
X184156275Y-85129648D01*
X184347363Y-85050496D01*
X184519331Y-84935591D01*
X184519338Y-84935586D01*
X184665586Y-84789338D01*
X184665591Y-84789331D01*
X184780496Y-84617363D01*
X184859651Y-84426269D01*
X184870843Y-84370000D01*
X184016988Y-84370000D01*
X184034205Y-84360060D01*
X184090060Y-84304205D01*
X184129556Y-84235796D01*
X184150000Y-84159496D01*
X184150000Y-84080504D01*
X184129556Y-84004204D01*
X184090060Y-83935795D01*
X184034205Y-83879940D01*
X184016988Y-83870000D01*
X184870843Y-83870000D01*
X184870843Y-83869999D01*
X184859651Y-83813730D01*
X184780496Y-83622636D01*
X184665591Y-83450668D01*
X184665586Y-83450661D01*
X184519338Y-83304413D01*
X184519331Y-83304408D01*
X184347363Y-83189503D01*
X184156275Y-83110351D01*
X184156272Y-83110350D01*
X183953421Y-83070000D01*
X183800000Y-83070000D01*
X183800000Y-83820000D01*
X183300000Y-83820000D01*
X183300000Y-83070000D01*
X183146578Y-83070000D01*
X182943727Y-83110350D01*
X182943724Y-83110351D01*
X182752636Y-83189503D01*
X182580668Y-83304408D01*
X182580661Y-83304413D01*
X182434413Y-83450661D01*
X182434408Y-83450668D01*
X182319503Y-83622636D01*
X182240348Y-83813730D01*
X182229156Y-83869999D01*
X181759500Y-83869999D01*
X181759500Y-75229999D01*
X182229156Y-75229999D01*
X182229157Y-75230000D01*
X183083012Y-75230000D01*
X183065795Y-75239940D01*
X183009940Y-75295795D01*
X182970444Y-75364204D01*
X182950000Y-75440504D01*
X182950000Y-75519496D01*
X182970444Y-75595796D01*
X183009940Y-75664205D01*
X183065795Y-75720060D01*
X183083012Y-75730000D01*
X182229156Y-75730000D01*
X182240348Y-75786269D01*
X182319503Y-75977363D01*
X182434408Y-76149331D01*
X182434413Y-76149338D01*
X182580661Y-76295586D01*
X182580668Y-76295591D01*
X182752636Y-76410496D01*
X182943724Y-76489648D01*
X182943727Y-76489649D01*
X183146578Y-76529999D01*
X183146585Y-76530000D01*
X183300000Y-76530000D01*
X183300000Y-75780000D01*
X183800000Y-75780000D01*
X183800000Y-76530000D01*
X183953415Y-76530000D01*
X183953421Y-76529999D01*
X184156272Y-76489649D01*
X184156275Y-76489648D01*
X184347363Y-76410496D01*
X184519331Y-76295591D01*
X184519338Y-76295586D01*
X184665586Y-76149338D01*
X184665591Y-76149331D01*
X184780496Y-75977363D01*
X184859651Y-75786269D01*
X184870843Y-75730000D01*
X184016988Y-75730000D01*
X184034205Y-75720060D01*
X184090060Y-75664205D01*
X184129556Y-75595796D01*
X184150000Y-75519496D01*
X184150000Y-75440504D01*
X184129556Y-75364204D01*
X184090060Y-75295795D01*
X184034205Y-75239940D01*
X184016988Y-75230000D01*
X184870843Y-75230000D01*
X184870843Y-75229999D01*
X184859651Y-75173730D01*
X184780496Y-74982636D01*
X184665591Y-74810668D01*
X184665586Y-74810661D01*
X184519338Y-74664413D01*
X184519331Y-74664408D01*
X184347363Y-74549503D01*
X184156275Y-74470351D01*
X184156272Y-74470350D01*
X183953421Y-74430000D01*
X183800000Y-74430000D01*
X183800000Y-75180000D01*
X183300000Y-75180000D01*
X183300000Y-74430000D01*
X183146578Y-74430000D01*
X182943727Y-74470350D01*
X182943724Y-74470351D01*
X182752636Y-74549503D01*
X182580668Y-74664408D01*
X182580661Y-74664413D01*
X182434413Y-74810661D01*
X182434408Y-74810668D01*
X182319503Y-74982636D01*
X182240348Y-75173730D01*
X182229156Y-75229999D01*
X181759500Y-75229999D01*
X181759500Y-70077777D01*
X181759173Y-70076555D01*
X181733501Y-69980747D01*
X181733499Y-69980744D01*
X181733499Y-69980742D01*
X181683278Y-69893757D01*
X181683274Y-69893752D01*
X181612247Y-69822725D01*
X181612245Y-69822723D01*
X181284246Y-69494724D01*
X181284245Y-69494723D01*
X181279228Y-69489706D01*
X181256057Y-69457814D01*
X181231326Y-69409276D01*
X181140723Y-69318673D01*
X181026553Y-69260501D01*
X180961836Y-69250251D01*
X180931834Y-69245500D01*
X179843166Y-69245500D01*
X179811592Y-69250500D01*
X179748441Y-69260502D01*
X179739016Y-69263565D01*
X179738003Y-69260448D01*
X179684918Y-69270410D01*
X179619137Y-69243701D01*
X179608415Y-69234136D01*
X177282805Y-66908526D01*
X177268191Y-66893912D01*
X177268190Y-66893911D01*
X177166718Y-66835326D01*
X177110128Y-66820163D01*
X177098016Y-66816917D01*
X177098011Y-66816915D01*
X177053543Y-66805000D01*
X177053540Y-66805000D01*
X177053539Y-66805000D01*
X170730499Y-66805000D01*
X170662378Y-66784998D01*
X170615885Y-66731342D01*
X170604499Y-66679000D01*
X170604499Y-66374936D01*
X170604498Y-66374927D01*
X170589734Y-66300699D01*
X170533484Y-66216516D01*
X170533483Y-66216515D01*
X170449302Y-66160266D01*
X170375069Y-66145500D01*
X170375067Y-66145500D01*
X170026255Y-66145500D01*
X170014551Y-66142063D01*
X170002409Y-66143223D01*
X169981118Y-66132246D01*
X169958134Y-66125498D01*
X169948568Y-66115465D01*
X169939305Y-66110690D01*
X169917136Y-66082500D01*
X169882920Y-66023236D01*
X169882919Y-66023235D01*
X169856089Y-65976763D01*
X169273237Y-65393912D01*
X169273236Y-65393911D01*
X169171764Y-65335326D01*
X169115174Y-65320163D01*
X169103062Y-65316917D01*
X169103057Y-65316915D01*
X169058589Y-65305000D01*
X169058586Y-65305000D01*
X169058585Y-65305000D01*
X163532794Y-65305000D01*
X163504887Y-65296805D01*
X163476270Y-65291610D01*
X163468783Y-65286204D01*
X163464673Y-65284998D01*
X163446833Y-65271124D01*
X163445248Y-65269645D01*
X163417220Y-65241617D01*
X163410141Y-65236887D01*
X163402677Y-65229922D01*
X163389586Y-65207803D01*
X163373108Y-65188086D01*
X163371812Y-65177771D01*
X163366517Y-65168824D01*
X163367462Y-65143138D01*
X163364261Y-65117643D01*
X163368747Y-65108265D01*
X163369130Y-65097875D01*
X163383811Y-65076780D01*
X163394902Y-65053599D01*
X163403747Y-65048134D01*
X163409686Y-65039602D01*
X163433438Y-65029794D01*
X163455304Y-65016287D01*
X163471419Y-65014110D01*
X163475308Y-65012505D01*
X163478721Y-65013124D01*
X163488544Y-65011798D01*
X178638077Y-65000691D01*
X178706210Y-65020643D01*
G37*
%TD.AperFunction*%
%TA.AperFunction,Conductor*%
G36*
X174213012Y-89702989D02*
G01*
X174219595Y-89709118D01*
X174508595Y-89998118D01*
X174542621Y-90060430D01*
X174545500Y-90087213D01*
X174545500Y-90848246D01*
X174545502Y-90848270D01*
X174551959Y-90908339D01*
X174551959Y-90908341D01*
X174602657Y-91044266D01*
X174602658Y-91044267D01*
X174689596Y-91160404D01*
X174805733Y-91247342D01*
X174941658Y-91298040D01*
X174980970Y-91302266D01*
X175046561Y-91329435D01*
X175087052Y-91387753D01*
X175093500Y-91427544D01*
X175093500Y-91709121D01*
X175073498Y-91777242D01*
X175025047Y-91819224D01*
X175025747Y-91820506D01*
X175019856Y-91823722D01*
X175019842Y-91823735D01*
X175019807Y-91823749D01*
X175017841Y-91824822D01*
X175017837Y-91824825D01*
X174907456Y-91907456D01*
X174907455Y-91907457D01*
X174907454Y-91907458D01*
X174824827Y-92017832D01*
X174824826Y-92017833D01*
X174776640Y-92147027D01*
X174770500Y-92204128D01*
X174770500Y-92795500D01*
X174750498Y-92863621D01*
X174696842Y-92910114D01*
X174644500Y-92921500D01*
X174351000Y-92921500D01*
X174282879Y-92901498D01*
X174236386Y-92847842D01*
X174225000Y-92795500D01*
X174225000Y-92750000D01*
X173401000Y-92750000D01*
X173332879Y-92729998D01*
X173286386Y-92676342D01*
X173275000Y-92624000D01*
X173275000Y-92500000D01*
X173151000Y-92500000D01*
X173082879Y-92479998D01*
X173036386Y-92426342D01*
X173025000Y-92374000D01*
X173025000Y-92250000D01*
X173525000Y-92250000D01*
X174224999Y-92250000D01*
X174224999Y-92201685D01*
X174214856Y-92102397D01*
X174161546Y-91941516D01*
X174072572Y-91797267D01*
X174072567Y-91797261D01*
X173952738Y-91677432D01*
X173952732Y-91677427D01*
X173808483Y-91588453D01*
X173647606Y-91535144D01*
X173647600Y-91535143D01*
X173548323Y-91525000D01*
X173525000Y-91525000D01*
X173525000Y-92250000D01*
X173025000Y-92250000D01*
X173025000Y-91525000D01*
X173024999Y-91524999D01*
X173001694Y-91525000D01*
X172902397Y-91535143D01*
X172741516Y-91588453D01*
X172597267Y-91677427D01*
X172597261Y-91677432D01*
X172477432Y-91797261D01*
X172477428Y-91797266D01*
X172444907Y-91849990D01*
X172392120Y-91897467D01*
X172322045Y-91908869D01*
X172262158Y-91884709D01*
X172215779Y-91849990D01*
X172182164Y-91824825D01*
X172117568Y-91800732D01*
X172052973Y-91776640D01*
X172045834Y-91775872D01*
X171995871Y-91770500D01*
X171995864Y-91770500D01*
X171699006Y-91770500D01*
X171630885Y-91750498D01*
X171591967Y-91710972D01*
X171584103Y-91698308D01*
X171582619Y-91692770D01*
X171516200Y-91577730D01*
X171497790Y-91559320D01*
X171490122Y-91546972D01*
X171484370Y-91526201D01*
X171474040Y-91507283D01*
X171475085Y-91492668D01*
X171471176Y-91478550D01*
X171477567Y-91457967D01*
X171479105Y-91436468D01*
X171487885Y-91424738D01*
X171492230Y-91410747D01*
X171508735Y-91396886D01*
X171521652Y-91379632D01*
X171535379Y-91374511D01*
X171546599Y-91365090D01*
X171567977Y-91362353D01*
X171588172Y-91354821D01*
X171597161Y-91354500D01*
X172396140Y-91354500D01*
X172396146Y-91354500D01*
X172465050Y-91344461D01*
X172571340Y-91292499D01*
X172594675Y-91269163D01*
X172606311Y-91258881D01*
X172613203Y-91253508D01*
X172696746Y-91205276D01*
X172767775Y-91134247D01*
X173655110Y-90246910D01*
X173687981Y-90224948D01*
X173687577Y-90224249D01*
X173703631Y-90214979D01*
X173809770Y-90153700D01*
X173903700Y-90059770D01*
X173970119Y-89944730D01*
X174004500Y-89816419D01*
X174004500Y-89798213D01*
X174024502Y-89730092D01*
X174078158Y-89683599D01*
X174148432Y-89673495D01*
X174213012Y-89702989D01*
G37*
%TD.AperFunction*%
%TA.AperFunction,Conductor*%
G36*
X173207908Y-88701502D02*
G01*
X173228882Y-88718405D01*
X173540882Y-89030405D01*
X173574908Y-89092717D01*
X173569843Y-89163532D01*
X173527296Y-89220368D01*
X173460776Y-89245179D01*
X173451787Y-89245500D01*
X173433581Y-89245500D01*
X173348860Y-89268201D01*
X173305269Y-89279881D01*
X173190233Y-89346297D01*
X173190227Y-89346302D01*
X173124258Y-89412271D01*
X173061945Y-89446296D01*
X172991130Y-89441230D01*
X172934294Y-89398683D01*
X172909484Y-89332163D01*
X172918754Y-89274957D01*
X172947056Y-89206629D01*
X172954512Y-89150000D01*
X172436165Y-89150000D01*
X172427339Y-89147408D01*
X172418233Y-89148718D01*
X172418000Y-89148684D01*
X172396149Y-89145500D01*
X172396146Y-89145500D01*
X171851000Y-89145500D01*
X171842174Y-89142908D01*
X171833068Y-89144218D01*
X171808642Y-89133062D01*
X171782879Y-89125498D01*
X171776854Y-89118544D01*
X171768488Y-89114724D01*
X171753973Y-89092138D01*
X171736386Y-89071842D01*
X171734061Y-89061155D01*
X171730104Y-89054998D01*
X171725000Y-89019500D01*
X171725000Y-88880500D01*
X171745002Y-88812379D01*
X171798658Y-88765886D01*
X171851000Y-88754500D01*
X172396140Y-88754500D01*
X172396146Y-88754500D01*
X172418000Y-88751316D01*
X172436165Y-88750000D01*
X172954511Y-88750000D01*
X172976943Y-88724422D01*
X173036897Y-88686394D01*
X173071674Y-88681500D01*
X173139787Y-88681500D01*
X173207908Y-88701502D01*
G37*
%TD.AperFunction*%
%TA.AperFunction,Conductor*%
G36*
X174243561Y-87523502D02*
G01*
X174290054Y-87577158D01*
X174300788Y-87642304D01*
X174300000Y-87650018D01*
X174300000Y-87900000D01*
X175150000Y-87900000D01*
X175150000Y-87629500D01*
X175152591Y-87620674D01*
X175151282Y-87611568D01*
X175162437Y-87587142D01*
X175170002Y-87561379D01*
X175176955Y-87555354D01*
X175180776Y-87546988D01*
X175203361Y-87532473D01*
X175223658Y-87514886D01*
X175234344Y-87512561D01*
X175240502Y-87508604D01*
X175276000Y-87503500D01*
X175524000Y-87503500D01*
X175592121Y-87523502D01*
X175638614Y-87577158D01*
X175650000Y-87629500D01*
X175650000Y-88024000D01*
X175629998Y-88092121D01*
X175576342Y-88138614D01*
X175524000Y-88150000D01*
X175400000Y-88150000D01*
X175400000Y-88274000D01*
X175379998Y-88342121D01*
X175326342Y-88388614D01*
X175274000Y-88400000D01*
X174300001Y-88400000D01*
X174300001Y-88406287D01*
X174279999Y-88474408D01*
X174226343Y-88520901D01*
X174156069Y-88531005D01*
X174091489Y-88501511D01*
X174084906Y-88495382D01*
X173584254Y-87994730D01*
X173584249Y-87994726D01*
X173584247Y-87994724D01*
X173584244Y-87994722D01*
X173566100Y-87984246D01*
X173566098Y-87984246D01*
X173497254Y-87944499D01*
X173400225Y-87918500D01*
X173400223Y-87918500D01*
X173037712Y-87918500D01*
X173016124Y-87912161D01*
X172993680Y-87910556D01*
X172982723Y-87902354D01*
X172969591Y-87898498D01*
X172954855Y-87881492D01*
X172936844Y-87868009D01*
X172932061Y-87855186D01*
X172923098Y-87844842D01*
X172919895Y-87822569D01*
X172912033Y-87801489D01*
X172914941Y-87788116D01*
X172912994Y-87774568D01*
X172922341Y-87754101D01*
X172927124Y-87732115D01*
X172940609Y-87714101D01*
X172942488Y-87709988D01*
X172948617Y-87703405D01*
X173111617Y-87540405D01*
X173173929Y-87506379D01*
X173200712Y-87503500D01*
X174175440Y-87503500D01*
X174243561Y-87523502D01*
G37*
%TD.AperFunction*%
%TA.AperFunction,Conductor*%
G36*
X180000000Y-76536000D02*
G01*
X179979998Y-76604121D01*
X179956388Y-76624579D01*
X179956904Y-76625095D01*
X179920000Y-76661999D01*
X179920000Y-76924000D01*
X179917408Y-76932825D01*
X179918718Y-76941932D01*
X179907562Y-76966357D01*
X179899998Y-76992121D01*
X179893044Y-76998145D01*
X179889224Y-77006512D01*
X179866638Y-77021026D01*
X179846342Y-77038614D01*
X179835655Y-77040938D01*
X179829498Y-77044896D01*
X179794000Y-77050000D01*
X179546000Y-77050000D01*
X179477879Y-77029998D01*
X179431386Y-76976342D01*
X179420000Y-76924000D01*
X179420000Y-76144000D01*
X179440002Y-76075879D01*
X179463611Y-76055420D01*
X179463096Y-76054905D01*
X179500000Y-76018001D01*
X179500000Y-75780000D01*
X180000000Y-75780000D01*
X180000000Y-76536000D01*
G37*
%TD.AperFunction*%
%TA.AperFunction,Conductor*%
G36*
X179238012Y-71662745D02*
G01*
X179244595Y-71668874D01*
X179443986Y-71868265D01*
X179478012Y-71930577D01*
X179479340Y-71937650D01*
X179485501Y-71976553D01*
X179543673Y-72090723D01*
X179634276Y-72181326D01*
X179691361Y-72210412D01*
X179748445Y-72239498D01*
X179836210Y-72253398D01*
X179900363Y-72283810D01*
X179937890Y-72344077D01*
X179942500Y-72377847D01*
X179942500Y-72663004D01*
X179922498Y-72731125D01*
X179868842Y-72777618D01*
X179798568Y-72787722D01*
X179733988Y-72758228D01*
X179727405Y-72752099D01*
X179652738Y-72677432D01*
X179652732Y-72677427D01*
X179508483Y-72588453D01*
X179347606Y-72535144D01*
X179347600Y-72535143D01*
X179248323Y-72525000D01*
X179225000Y-72525000D01*
X179225000Y-73374000D01*
X179204998Y-73442121D01*
X179151342Y-73488614D01*
X179099000Y-73500000D01*
X178975000Y-73500000D01*
X178975000Y-73624000D01*
X178954998Y-73692121D01*
X178901342Y-73738614D01*
X178849000Y-73750000D01*
X178025001Y-73750000D01*
X178025001Y-73798314D01*
X178035143Y-73897602D01*
X178088453Y-74058483D01*
X178177427Y-74202732D01*
X178177432Y-74202738D01*
X178297261Y-74322567D01*
X178297267Y-74322572D01*
X178441516Y-74411546D01*
X178602392Y-74464854D01*
X178681414Y-74472928D01*
X178747149Y-74499750D01*
X178787948Y-74557853D01*
X178790857Y-74628790D01*
X178757704Y-74687371D01*
X178634409Y-74810666D01*
X178634408Y-74810668D01*
X178519503Y-74982636D01*
X178440351Y-75173724D01*
X178440350Y-75173725D01*
X178422081Y-75265569D01*
X178389173Y-75328479D01*
X178327477Y-75363610D01*
X178256583Y-75359809D01*
X178209407Y-75330082D01*
X177038194Y-74158869D01*
X177023237Y-74143912D01*
X177023236Y-74143911D01*
X176921764Y-74085326D01*
X176856072Y-74067724D01*
X176844419Y-74064601D01*
X176844414Y-74064599D01*
X176808586Y-74055000D01*
X176808585Y-74055000D01*
X176766066Y-74055000D01*
X176697945Y-74034998D01*
X176665199Y-74004510D01*
X176638783Y-73969224D01*
X176592544Y-73907456D01*
X176549923Y-73875550D01*
X176520490Y-73853516D01*
X176517708Y-73849800D01*
X176513488Y-73847873D01*
X176496631Y-73821644D01*
X176477944Y-73796680D01*
X176476912Y-73790960D01*
X176475104Y-73788147D01*
X176470000Y-73752649D01*
X176470000Y-73747350D01*
X176490002Y-73679229D01*
X176520488Y-73646484D01*
X176592544Y-73592544D01*
X176653299Y-73511386D01*
X176665199Y-73495490D01*
X176722035Y-73452944D01*
X176766066Y-73445000D01*
X176871085Y-73445000D01*
X176871086Y-73445000D01*
X176938912Y-73426826D01*
X176984264Y-73414674D01*
X177085736Y-73356089D01*
X177168589Y-73273236D01*
X177240149Y-73201676D01*
X178025000Y-73201676D01*
X178025000Y-73250000D01*
X178725000Y-73250000D01*
X178725000Y-72525000D01*
X178724999Y-72524999D01*
X178701694Y-72525000D01*
X178602397Y-72535143D01*
X178441516Y-72588453D01*
X178297267Y-72677427D01*
X178297261Y-72677432D01*
X178177432Y-72797261D01*
X178177427Y-72797267D01*
X178088453Y-72941516D01*
X178035144Y-73102393D01*
X178035143Y-73102399D01*
X178025000Y-73201676D01*
X177240149Y-73201676D01*
X178150420Y-72291405D01*
X178212732Y-72257379D01*
X178239515Y-72254500D01*
X178656832Y-72254500D01*
X178656834Y-72254500D01*
X178751555Y-72239498D01*
X178865723Y-72181326D01*
X178956326Y-72090723D01*
X179014498Y-71976555D01*
X179029500Y-71881834D01*
X179029500Y-71757969D01*
X179049502Y-71689848D01*
X179103158Y-71643355D01*
X179173432Y-71633251D01*
X179238012Y-71662745D01*
G37*
%TD.AperFunction*%
%TA.AperFunction,Conductor*%
G36*
X179937427Y-74094953D02*
G01*
X179946382Y-74094846D01*
X179979180Y-74109353D01*
X179983633Y-74112140D01*
X180067837Y-74175175D01*
X180108690Y-74190412D01*
X180119527Y-74197195D01*
X180166659Y-74250291D01*
X180177602Y-74320439D01*
X180148883Y-74385368D01*
X180089620Y-74424463D01*
X180052679Y-74430000D01*
X180000000Y-74430000D01*
X180000000Y-75180000D01*
X179500000Y-75180000D01*
X179500000Y-74424000D01*
X179520002Y-74355879D01*
X179573658Y-74309386D01*
X179626000Y-74298000D01*
X179677305Y-74298000D01*
X179772567Y-74202738D01*
X179772572Y-74202732D01*
X179805091Y-74150011D01*
X179812239Y-74143581D01*
X179816128Y-74134790D01*
X179838208Y-74120224D01*
X179857877Y-74102533D01*
X179867366Y-74100988D01*
X179875391Y-74095695D01*
X179901841Y-74095378D01*
X179927951Y-74091130D01*
X179937427Y-74094953D01*
G37*
%TD.AperFunction*%
%TD*%
M02*
