%TF.GenerationSoftware,KiCad,Pcbnew,9.0.6*%
%TF.CreationDate,2025-11-17T13:56:23+01:00*%
%TF.ProjectId,CH32Console,43483332-436f-46e7-936f-6c652e6b6963,rev?*%
%TF.SameCoordinates,Original*%
%TF.FileFunction,Drillmap*%
%TF.FilePolarity,Positive*%
%FSLAX45Y45*%
G04 Gerber Fmt 4.5, Leading zero omitted, Abs format (unit mm)*
G04 Created by KiCad (PCBNEW 9.0.6) date 2025-11-17 13:56:23*
%MOMM*%
%LPD*%
G01*
G04 APERTURE LIST*
%ADD10C,0.050000*%
%ADD11C,0.200000*%
%ADD12C,0.100000*%
G04 APERTURE END LIST*
D10*
X18615000Y-7185000D02*
X18615000Y-8780000D01*
X17895000Y-9500000D01*
X11075000Y-9500000D01*
X10350000Y-8775000D01*
X10350000Y-7175000D01*
X11070000Y-6455000D01*
X17890000Y-6450000D01*
X18615000Y-7185000D01*
D11*
D12*
X11510000Y-7785000D02*
X11540000Y-7815000D01*
X11540000Y-7785000D02*
X11510000Y-7815000D01*
X12160000Y-7185000D02*
X12190000Y-7215000D01*
X12190000Y-7185000D02*
X12160000Y-7215000D01*
X13110000Y-7335000D02*
X13140000Y-7365000D01*
X13140000Y-7335000D02*
X13110000Y-7365000D01*
X13235000Y-7210000D02*
X13265000Y-7240000D01*
X13265000Y-7210000D02*
X13235000Y-7240000D01*
X15960000Y-8160000D02*
X15990000Y-8190000D01*
X15990000Y-8160000D02*
X15960000Y-8190000D01*
X16035000Y-8085000D02*
X16065000Y-8115000D01*
X16065000Y-8085000D02*
X16035000Y-8115000D01*
X16035000Y-8785000D02*
X16065000Y-8815000D01*
X16065000Y-8785000D02*
X16035000Y-8815000D01*
X16110000Y-8010000D02*
X16140000Y-8040000D01*
X16140000Y-8010000D02*
X16110000Y-8040000D01*
X16110000Y-8760000D02*
X16140000Y-8790000D01*
X16140000Y-8760000D02*
X16110000Y-8790000D01*
X16185000Y-8735000D02*
X16215000Y-8765000D01*
X16215000Y-8735000D02*
X16185000Y-8765000D01*
X16260000Y-8710000D02*
X16290000Y-8740000D01*
X16290000Y-8710000D02*
X16260000Y-8740000D01*
X16335000Y-8685000D02*
X16365000Y-8715000D01*
X16365000Y-8685000D02*
X16335000Y-8715000D01*
X16360000Y-9235000D02*
X16390000Y-9265000D01*
X16390000Y-9235000D02*
X16360000Y-9265000D01*
X16685000Y-8610000D02*
X16715000Y-8640000D01*
X16715000Y-8610000D02*
X16685000Y-8640000D01*
X16760000Y-8910000D02*
X16790000Y-8940000D01*
X16790000Y-8910000D02*
X16760000Y-8940000D01*
X16841742Y-8460000D02*
X16871742Y-8490000D01*
X16871742Y-8460000D02*
X16841742Y-8490000D01*
X16985000Y-8485000D02*
X17015000Y-8515000D01*
X17015000Y-8485000D02*
X16985000Y-8515000D01*
X16985000Y-8735000D02*
X17015000Y-8765000D01*
X17015000Y-8735000D02*
X16985000Y-8765000D01*
X17035000Y-8910000D02*
X17065000Y-8940000D01*
X17065000Y-8910000D02*
X17035000Y-8940000D01*
X17096250Y-9173750D02*
X17126250Y-9203750D01*
X17126250Y-9173750D02*
X17096250Y-9203750D01*
X17210000Y-8410000D02*
X17240000Y-8440000D01*
X17240000Y-8410000D02*
X17210000Y-8440000D01*
X17300000Y-8885000D02*
X17330000Y-8915000D01*
X17330000Y-8885000D02*
X17300000Y-8915000D01*
X17335000Y-8960000D02*
X17365000Y-8990000D01*
X17365000Y-8960000D02*
X17335000Y-8990000D01*
X17380000Y-8770000D02*
X17410000Y-8800000D01*
X17410000Y-8770000D02*
X17380000Y-8800000D01*
X17510000Y-8310000D02*
X17540000Y-8340000D01*
X17540000Y-8310000D02*
X17510000Y-8340000D01*
X12805000Y-8125000D02*
G75*
G02*
X12765000Y-8125000I-20000J0D01*
G01*
X12765000Y-8125000D02*
G75*
G02*
X12805000Y-8125000I20000J0D01*
G01*
X15245000Y-8150000D02*
G75*
G02*
X15205000Y-8150000I-20000J0D01*
G01*
X15205000Y-8150000D02*
G75*
G02*
X15245000Y-8150000I20000J0D01*
G01*
X15320000Y-8225000D02*
G75*
G02*
X15280000Y-8225000I-20000J0D01*
G01*
X15280000Y-8225000D02*
G75*
G02*
X15320000Y-8225000I20000J0D01*
G01*
X16295000Y-7000000D02*
G75*
G02*
X16255000Y-7000000I-20000J0D01*
G01*
X16255000Y-7000000D02*
G75*
G02*
X16295000Y-7000000I20000J0D01*
G01*
X16320000Y-6575000D02*
G75*
G02*
X16280000Y-6575000I-20000J0D01*
G01*
X16280000Y-6575000D02*
G75*
G02*
X16320000Y-6575000I20000J0D01*
G01*
X16765000Y-7100000D02*
G75*
G02*
X16725000Y-7100000I-20000J0D01*
G01*
X16725000Y-7100000D02*
G75*
G02*
X16765000Y-7100000I20000J0D01*
G01*
X17347500Y-9250000D02*
G75*
G02*
X17307500Y-9250000I-20000J0D01*
G01*
X17307500Y-9250000D02*
G75*
G02*
X17347500Y-9250000I20000J0D01*
G01*
X17555000Y-8125000D02*
G75*
G02*
X17515000Y-8125000I-20000J0D01*
G01*
X17515000Y-8125000D02*
G75*
G02*
X17555000Y-8125000I20000J0D01*
G01*
X17917500Y-7350000D02*
G75*
G02*
X17877500Y-7350000I-20000J0D01*
G01*
X17877500Y-7350000D02*
G75*
G02*
X17917500Y-7350000I20000J0D01*
G01*
X18058750Y-7075000D02*
G75*
G02*
X18018750Y-7075000I-20000J0D01*
G01*
X18018750Y-7075000D02*
G75*
G02*
X18058750Y-7075000I20000J0D01*
G01*
X17975000Y-7518000D02*
X17975000Y-7578000D01*
X17945000Y-7548000D02*
X18005000Y-7548000D01*
X18005000Y-7518000D02*
X17945000Y-7518000D01*
X17945000Y-7578000D02*
G75*
G02*
X17945000Y-7518000I0J30000D01*
G01*
X17945000Y-7578000D02*
X18005000Y-7578000D01*
X18005000Y-7578000D02*
G75*
G03*
X18005000Y-7518000I0J30000D01*
G01*
X17975000Y-8382000D02*
X17975000Y-8442000D01*
X17945000Y-8412000D02*
X18005000Y-8412000D01*
X18005000Y-8382000D02*
X17945000Y-8382000D01*
X17945000Y-8442000D02*
G75*
G02*
X17945000Y-8382000I0J30000D01*
G01*
X17945000Y-8442000D02*
X18005000Y-8442000D01*
X18005000Y-8442000D02*
G75*
G03*
X18005000Y-8382000I0J30000D01*
G01*
X18355000Y-7518000D02*
X18355000Y-7578000D01*
X18325000Y-7548000D02*
X18385000Y-7548000D01*
X18385000Y-7518000D02*
X18325000Y-7518000D01*
X18325000Y-7578000D02*
G75*
G02*
X18325000Y-7518000I0J30000D01*
G01*
X18325000Y-7578000D02*
X18385000Y-7578000D01*
X18385000Y-7578000D02*
G75*
G03*
X18385000Y-7518000I0J30000D01*
G01*
X18355000Y-8382000D02*
X18355000Y-8442000D01*
X18325000Y-8412000D02*
X18385000Y-8412000D01*
X18385000Y-8382000D02*
X18325000Y-8382000D01*
X18325000Y-8442000D02*
G75*
G02*
X18325000Y-8382000I0J30000D01*
G01*
X18325000Y-8442000D02*
X18385000Y-8442000D01*
X18385000Y-8442000D02*
G75*
G03*
X18385000Y-8382000I0J30000D01*
G01*
D11*
X10608277Y-9813984D02*
X10608277Y-9613984D01*
X10608277Y-9613984D02*
X10655896Y-9613984D01*
X10655896Y-9613984D02*
X10684467Y-9623508D01*
X10684467Y-9623508D02*
X10703515Y-9642555D01*
X10703515Y-9642555D02*
X10713039Y-9661603D01*
X10713039Y-9661603D02*
X10722563Y-9699698D01*
X10722563Y-9699698D02*
X10722563Y-9728270D01*
X10722563Y-9728270D02*
X10713039Y-9766365D01*
X10713039Y-9766365D02*
X10703515Y-9785412D01*
X10703515Y-9785412D02*
X10684467Y-9804460D01*
X10684467Y-9804460D02*
X10655896Y-9813984D01*
X10655896Y-9813984D02*
X10608277Y-9813984D01*
X10808277Y-9813984D02*
X10808277Y-9680650D01*
X10808277Y-9718746D02*
X10817801Y-9699698D01*
X10817801Y-9699698D02*
X10827324Y-9690174D01*
X10827324Y-9690174D02*
X10846372Y-9680650D01*
X10846372Y-9680650D02*
X10865420Y-9680650D01*
X10932086Y-9813984D02*
X10932086Y-9680650D01*
X10932086Y-9613984D02*
X10922563Y-9623508D01*
X10922563Y-9623508D02*
X10932086Y-9633031D01*
X10932086Y-9633031D02*
X10941610Y-9623508D01*
X10941610Y-9623508D02*
X10932086Y-9613984D01*
X10932086Y-9613984D02*
X10932086Y-9633031D01*
X11055896Y-9813984D02*
X11036848Y-9804460D01*
X11036848Y-9804460D02*
X11027324Y-9785412D01*
X11027324Y-9785412D02*
X11027324Y-9613984D01*
X11160658Y-9813984D02*
X11141610Y-9804460D01*
X11141610Y-9804460D02*
X11132086Y-9785412D01*
X11132086Y-9785412D02*
X11132086Y-9613984D01*
X11389229Y-9813984D02*
X11389229Y-9613984D01*
X11389229Y-9613984D02*
X11455896Y-9756841D01*
X11455896Y-9756841D02*
X11522562Y-9613984D01*
X11522562Y-9613984D02*
X11522562Y-9813984D01*
X11703515Y-9813984D02*
X11703515Y-9709222D01*
X11703515Y-9709222D02*
X11693991Y-9690174D01*
X11693991Y-9690174D02*
X11674943Y-9680650D01*
X11674943Y-9680650D02*
X11636848Y-9680650D01*
X11636848Y-9680650D02*
X11617801Y-9690174D01*
X11703515Y-9804460D02*
X11684467Y-9813984D01*
X11684467Y-9813984D02*
X11636848Y-9813984D01*
X11636848Y-9813984D02*
X11617801Y-9804460D01*
X11617801Y-9804460D02*
X11608277Y-9785412D01*
X11608277Y-9785412D02*
X11608277Y-9766365D01*
X11608277Y-9766365D02*
X11617801Y-9747317D01*
X11617801Y-9747317D02*
X11636848Y-9737793D01*
X11636848Y-9737793D02*
X11684467Y-9737793D01*
X11684467Y-9737793D02*
X11703515Y-9728270D01*
X11798753Y-9680650D02*
X11798753Y-9880650D01*
X11798753Y-9690174D02*
X11817801Y-9680650D01*
X11817801Y-9680650D02*
X11855896Y-9680650D01*
X11855896Y-9680650D02*
X11874943Y-9690174D01*
X11874943Y-9690174D02*
X11884467Y-9699698D01*
X11884467Y-9699698D02*
X11893991Y-9718746D01*
X11893991Y-9718746D02*
X11893991Y-9775889D01*
X11893991Y-9775889D02*
X11884467Y-9794936D01*
X11884467Y-9794936D02*
X11874943Y-9804460D01*
X11874943Y-9804460D02*
X11855896Y-9813984D01*
X11855896Y-9813984D02*
X11817801Y-9813984D01*
X11817801Y-9813984D02*
X11798753Y-9804460D01*
X11979705Y-9794936D02*
X11989229Y-9804460D01*
X11989229Y-9804460D02*
X11979705Y-9813984D01*
X11979705Y-9813984D02*
X11970182Y-9804460D01*
X11970182Y-9804460D02*
X11979705Y-9794936D01*
X11979705Y-9794936D02*
X11979705Y-9813984D01*
X11979705Y-9690174D02*
X11989229Y-9699698D01*
X11989229Y-9699698D02*
X11979705Y-9709222D01*
X11979705Y-9709222D02*
X11970182Y-9699698D01*
X11970182Y-9699698D02*
X11979705Y-9690174D01*
X11979705Y-9690174D02*
X11979705Y-9709222D01*
D12*
X10317500Y-10127500D02*
X10347500Y-10157500D01*
X10347500Y-10127500D02*
X10317500Y-10157500D01*
D11*
X10646372Y-10033984D02*
X10665420Y-10033984D01*
X10665420Y-10033984D02*
X10684467Y-10043508D01*
X10684467Y-10043508D02*
X10693991Y-10053031D01*
X10693991Y-10053031D02*
X10703515Y-10072079D01*
X10703515Y-10072079D02*
X10713039Y-10110174D01*
X10713039Y-10110174D02*
X10713039Y-10157793D01*
X10713039Y-10157793D02*
X10703515Y-10195889D01*
X10703515Y-10195889D02*
X10693991Y-10214936D01*
X10693991Y-10214936D02*
X10684467Y-10224460D01*
X10684467Y-10224460D02*
X10665420Y-10233984D01*
X10665420Y-10233984D02*
X10646372Y-10233984D01*
X10646372Y-10233984D02*
X10627324Y-10224460D01*
X10627324Y-10224460D02*
X10617801Y-10214936D01*
X10617801Y-10214936D02*
X10608277Y-10195889D01*
X10608277Y-10195889D02*
X10598753Y-10157793D01*
X10598753Y-10157793D02*
X10598753Y-10110174D01*
X10598753Y-10110174D02*
X10608277Y-10072079D01*
X10608277Y-10072079D02*
X10617801Y-10053031D01*
X10617801Y-10053031D02*
X10627324Y-10043508D01*
X10627324Y-10043508D02*
X10646372Y-10033984D01*
X10798753Y-10214936D02*
X10808277Y-10224460D01*
X10808277Y-10224460D02*
X10798753Y-10233984D01*
X10798753Y-10233984D02*
X10789229Y-10224460D01*
X10789229Y-10224460D02*
X10798753Y-10214936D01*
X10798753Y-10214936D02*
X10798753Y-10233984D01*
X10874944Y-10033984D02*
X10998753Y-10033984D01*
X10998753Y-10033984D02*
X10932086Y-10110174D01*
X10932086Y-10110174D02*
X10960658Y-10110174D01*
X10960658Y-10110174D02*
X10979705Y-10119698D01*
X10979705Y-10119698D02*
X10989229Y-10129222D01*
X10989229Y-10129222D02*
X10998753Y-10148270D01*
X10998753Y-10148270D02*
X10998753Y-10195889D01*
X10998753Y-10195889D02*
X10989229Y-10214936D01*
X10989229Y-10214936D02*
X10979705Y-10224460D01*
X10979705Y-10224460D02*
X10960658Y-10233984D01*
X10960658Y-10233984D02*
X10903515Y-10233984D01*
X10903515Y-10233984D02*
X10884467Y-10224460D01*
X10884467Y-10224460D02*
X10874944Y-10214936D01*
X11122563Y-10033984D02*
X11141610Y-10033984D01*
X11141610Y-10033984D02*
X11160658Y-10043508D01*
X11160658Y-10043508D02*
X11170182Y-10053031D01*
X11170182Y-10053031D02*
X11179705Y-10072079D01*
X11179705Y-10072079D02*
X11189229Y-10110174D01*
X11189229Y-10110174D02*
X11189229Y-10157793D01*
X11189229Y-10157793D02*
X11179705Y-10195889D01*
X11179705Y-10195889D02*
X11170182Y-10214936D01*
X11170182Y-10214936D02*
X11160658Y-10224460D01*
X11160658Y-10224460D02*
X11141610Y-10233984D01*
X11141610Y-10233984D02*
X11122563Y-10233984D01*
X11122563Y-10233984D02*
X11103515Y-10224460D01*
X11103515Y-10224460D02*
X11093991Y-10214936D01*
X11093991Y-10214936D02*
X11084467Y-10195889D01*
X11084467Y-10195889D02*
X11074944Y-10157793D01*
X11074944Y-10157793D02*
X11074944Y-10110174D01*
X11074944Y-10110174D02*
X11084467Y-10072079D01*
X11084467Y-10072079D02*
X11093991Y-10053031D01*
X11093991Y-10053031D02*
X11103515Y-10043508D01*
X11103515Y-10043508D02*
X11122563Y-10033984D01*
X11313039Y-10033984D02*
X11332086Y-10033984D01*
X11332086Y-10033984D02*
X11351134Y-10043508D01*
X11351134Y-10043508D02*
X11360658Y-10053031D01*
X11360658Y-10053031D02*
X11370182Y-10072079D01*
X11370182Y-10072079D02*
X11379705Y-10110174D01*
X11379705Y-10110174D02*
X11379705Y-10157793D01*
X11379705Y-10157793D02*
X11370182Y-10195889D01*
X11370182Y-10195889D02*
X11360658Y-10214936D01*
X11360658Y-10214936D02*
X11351134Y-10224460D01*
X11351134Y-10224460D02*
X11332086Y-10233984D01*
X11332086Y-10233984D02*
X11313039Y-10233984D01*
X11313039Y-10233984D02*
X11293991Y-10224460D01*
X11293991Y-10224460D02*
X11284467Y-10214936D01*
X11284467Y-10214936D02*
X11274943Y-10195889D01*
X11274943Y-10195889D02*
X11265420Y-10157793D01*
X11265420Y-10157793D02*
X11265420Y-10110174D01*
X11265420Y-10110174D02*
X11274943Y-10072079D01*
X11274943Y-10072079D02*
X11284467Y-10053031D01*
X11284467Y-10053031D02*
X11293991Y-10043508D01*
X11293991Y-10043508D02*
X11313039Y-10033984D01*
X11465420Y-10233984D02*
X11465420Y-10100650D01*
X11465420Y-10119698D02*
X11474943Y-10110174D01*
X11474943Y-10110174D02*
X11493991Y-10100650D01*
X11493991Y-10100650D02*
X11522563Y-10100650D01*
X11522563Y-10100650D02*
X11541610Y-10110174D01*
X11541610Y-10110174D02*
X11551134Y-10129222D01*
X11551134Y-10129222D02*
X11551134Y-10233984D01*
X11551134Y-10129222D02*
X11560658Y-10110174D01*
X11560658Y-10110174D02*
X11579705Y-10100650D01*
X11579705Y-10100650D02*
X11608277Y-10100650D01*
X11608277Y-10100650D02*
X11627324Y-10110174D01*
X11627324Y-10110174D02*
X11636848Y-10129222D01*
X11636848Y-10129222D02*
X11636848Y-10233984D01*
X11732086Y-10233984D02*
X11732086Y-10100650D01*
X11732086Y-10119698D02*
X11741610Y-10110174D01*
X11741610Y-10110174D02*
X11760658Y-10100650D01*
X11760658Y-10100650D02*
X11789229Y-10100650D01*
X11789229Y-10100650D02*
X11808277Y-10110174D01*
X11808277Y-10110174D02*
X11817801Y-10129222D01*
X11817801Y-10129222D02*
X11817801Y-10233984D01*
X11817801Y-10129222D02*
X11827324Y-10110174D01*
X11827324Y-10110174D02*
X11846372Y-10100650D01*
X11846372Y-10100650D02*
X11874943Y-10100650D01*
X11874943Y-10100650D02*
X11893991Y-10110174D01*
X11893991Y-10110174D02*
X11903515Y-10129222D01*
X11903515Y-10129222D02*
X11903515Y-10233984D01*
X12293991Y-10024460D02*
X12122563Y-10281603D01*
X12551134Y-10033984D02*
X12570182Y-10033984D01*
X12570182Y-10033984D02*
X12589229Y-10043508D01*
X12589229Y-10043508D02*
X12598753Y-10053031D01*
X12598753Y-10053031D02*
X12608277Y-10072079D01*
X12608277Y-10072079D02*
X12617801Y-10110174D01*
X12617801Y-10110174D02*
X12617801Y-10157793D01*
X12617801Y-10157793D02*
X12608277Y-10195889D01*
X12608277Y-10195889D02*
X12598753Y-10214936D01*
X12598753Y-10214936D02*
X12589229Y-10224460D01*
X12589229Y-10224460D02*
X12570182Y-10233984D01*
X12570182Y-10233984D02*
X12551134Y-10233984D01*
X12551134Y-10233984D02*
X12532086Y-10224460D01*
X12532086Y-10224460D02*
X12522563Y-10214936D01*
X12522563Y-10214936D02*
X12513039Y-10195889D01*
X12513039Y-10195889D02*
X12503515Y-10157793D01*
X12503515Y-10157793D02*
X12503515Y-10110174D01*
X12503515Y-10110174D02*
X12513039Y-10072079D01*
X12513039Y-10072079D02*
X12522563Y-10053031D01*
X12522563Y-10053031D02*
X12532086Y-10043508D01*
X12532086Y-10043508D02*
X12551134Y-10033984D01*
X12703515Y-10214936D02*
X12713039Y-10224460D01*
X12713039Y-10224460D02*
X12703515Y-10233984D01*
X12703515Y-10233984D02*
X12693991Y-10224460D01*
X12693991Y-10224460D02*
X12703515Y-10214936D01*
X12703515Y-10214936D02*
X12703515Y-10233984D01*
X12836848Y-10033984D02*
X12855896Y-10033984D01*
X12855896Y-10033984D02*
X12874944Y-10043508D01*
X12874944Y-10043508D02*
X12884467Y-10053031D01*
X12884467Y-10053031D02*
X12893991Y-10072079D01*
X12893991Y-10072079D02*
X12903515Y-10110174D01*
X12903515Y-10110174D02*
X12903515Y-10157793D01*
X12903515Y-10157793D02*
X12893991Y-10195889D01*
X12893991Y-10195889D02*
X12884467Y-10214936D01*
X12884467Y-10214936D02*
X12874944Y-10224460D01*
X12874944Y-10224460D02*
X12855896Y-10233984D01*
X12855896Y-10233984D02*
X12836848Y-10233984D01*
X12836848Y-10233984D02*
X12817801Y-10224460D01*
X12817801Y-10224460D02*
X12808277Y-10214936D01*
X12808277Y-10214936D02*
X12798753Y-10195889D01*
X12798753Y-10195889D02*
X12789229Y-10157793D01*
X12789229Y-10157793D02*
X12789229Y-10110174D01*
X12789229Y-10110174D02*
X12798753Y-10072079D01*
X12798753Y-10072079D02*
X12808277Y-10053031D01*
X12808277Y-10053031D02*
X12817801Y-10043508D01*
X12817801Y-10043508D02*
X12836848Y-10033984D01*
X13093991Y-10233984D02*
X12979706Y-10233984D01*
X13036848Y-10233984D02*
X13036848Y-10033984D01*
X13036848Y-10033984D02*
X13017801Y-10062555D01*
X13017801Y-10062555D02*
X12998753Y-10081603D01*
X12998753Y-10081603D02*
X12979706Y-10091127D01*
X13284467Y-10233984D02*
X13170182Y-10233984D01*
X13227325Y-10233984D02*
X13227325Y-10033984D01*
X13227325Y-10033984D02*
X13208277Y-10062555D01*
X13208277Y-10062555D02*
X13189229Y-10081603D01*
X13189229Y-10081603D02*
X13170182Y-10091127D01*
X13398753Y-10119698D02*
X13379706Y-10110174D01*
X13379706Y-10110174D02*
X13370182Y-10100650D01*
X13370182Y-10100650D02*
X13360658Y-10081603D01*
X13360658Y-10081603D02*
X13360658Y-10072079D01*
X13360658Y-10072079D02*
X13370182Y-10053031D01*
X13370182Y-10053031D02*
X13379706Y-10043508D01*
X13379706Y-10043508D02*
X13398753Y-10033984D01*
X13398753Y-10033984D02*
X13436848Y-10033984D01*
X13436848Y-10033984D02*
X13455896Y-10043508D01*
X13455896Y-10043508D02*
X13465420Y-10053031D01*
X13465420Y-10053031D02*
X13474944Y-10072079D01*
X13474944Y-10072079D02*
X13474944Y-10081603D01*
X13474944Y-10081603D02*
X13465420Y-10100650D01*
X13465420Y-10100650D02*
X13455896Y-10110174D01*
X13455896Y-10110174D02*
X13436848Y-10119698D01*
X13436848Y-10119698D02*
X13398753Y-10119698D01*
X13398753Y-10119698D02*
X13379706Y-10129222D01*
X13379706Y-10129222D02*
X13370182Y-10138746D01*
X13370182Y-10138746D02*
X13360658Y-10157793D01*
X13360658Y-10157793D02*
X13360658Y-10195889D01*
X13360658Y-10195889D02*
X13370182Y-10214936D01*
X13370182Y-10214936D02*
X13379706Y-10224460D01*
X13379706Y-10224460D02*
X13398753Y-10233984D01*
X13398753Y-10233984D02*
X13436848Y-10233984D01*
X13436848Y-10233984D02*
X13455896Y-10224460D01*
X13455896Y-10224460D02*
X13465420Y-10214936D01*
X13465420Y-10214936D02*
X13474944Y-10195889D01*
X13474944Y-10195889D02*
X13474944Y-10157793D01*
X13474944Y-10157793D02*
X13465420Y-10138746D01*
X13465420Y-10138746D02*
X13455896Y-10129222D01*
X13455896Y-10129222D02*
X13436848Y-10119698D01*
X13551134Y-10033984D02*
X13551134Y-10072079D01*
X13627325Y-10033984D02*
X13627325Y-10072079D01*
X13922563Y-10310174D02*
X13913039Y-10300650D01*
X13913039Y-10300650D02*
X13893991Y-10272079D01*
X13893991Y-10272079D02*
X13884468Y-10253031D01*
X13884468Y-10253031D02*
X13874944Y-10224460D01*
X13874944Y-10224460D02*
X13865420Y-10176841D01*
X13865420Y-10176841D02*
X13865420Y-10138746D01*
X13865420Y-10138746D02*
X13874944Y-10091127D01*
X13874944Y-10091127D02*
X13884468Y-10062555D01*
X13884468Y-10062555D02*
X13893991Y-10043508D01*
X13893991Y-10043508D02*
X13913039Y-10014936D01*
X13913039Y-10014936D02*
X13922563Y-10005412D01*
X13989229Y-10053031D02*
X13998753Y-10043508D01*
X13998753Y-10043508D02*
X14017801Y-10033984D01*
X14017801Y-10033984D02*
X14065420Y-10033984D01*
X14065420Y-10033984D02*
X14084468Y-10043508D01*
X14084468Y-10043508D02*
X14093991Y-10053031D01*
X14093991Y-10053031D02*
X14103515Y-10072079D01*
X14103515Y-10072079D02*
X14103515Y-10091127D01*
X14103515Y-10091127D02*
X14093991Y-10119698D01*
X14093991Y-10119698D02*
X13979706Y-10233984D01*
X13979706Y-10233984D02*
X14103515Y-10233984D01*
X14284468Y-10033984D02*
X14189229Y-10033984D01*
X14189229Y-10033984D02*
X14179706Y-10129222D01*
X14179706Y-10129222D02*
X14189229Y-10119698D01*
X14189229Y-10119698D02*
X14208277Y-10110174D01*
X14208277Y-10110174D02*
X14255896Y-10110174D01*
X14255896Y-10110174D02*
X14274944Y-10119698D01*
X14274944Y-10119698D02*
X14284468Y-10129222D01*
X14284468Y-10129222D02*
X14293991Y-10148270D01*
X14293991Y-10148270D02*
X14293991Y-10195889D01*
X14293991Y-10195889D02*
X14284468Y-10214936D01*
X14284468Y-10214936D02*
X14274944Y-10224460D01*
X14274944Y-10224460D02*
X14255896Y-10233984D01*
X14255896Y-10233984D02*
X14208277Y-10233984D01*
X14208277Y-10233984D02*
X14189229Y-10224460D01*
X14189229Y-10224460D02*
X14179706Y-10214936D01*
X14532087Y-10233984D02*
X14532087Y-10033984D01*
X14617801Y-10233984D02*
X14617801Y-10129222D01*
X14617801Y-10129222D02*
X14608277Y-10110174D01*
X14608277Y-10110174D02*
X14589230Y-10100650D01*
X14589230Y-10100650D02*
X14560658Y-10100650D01*
X14560658Y-10100650D02*
X14541610Y-10110174D01*
X14541610Y-10110174D02*
X14532087Y-10119698D01*
X14741610Y-10233984D02*
X14722563Y-10224460D01*
X14722563Y-10224460D02*
X14713039Y-10214936D01*
X14713039Y-10214936D02*
X14703515Y-10195889D01*
X14703515Y-10195889D02*
X14703515Y-10138746D01*
X14703515Y-10138746D02*
X14713039Y-10119698D01*
X14713039Y-10119698D02*
X14722563Y-10110174D01*
X14722563Y-10110174D02*
X14741610Y-10100650D01*
X14741610Y-10100650D02*
X14770182Y-10100650D01*
X14770182Y-10100650D02*
X14789230Y-10110174D01*
X14789230Y-10110174D02*
X14798753Y-10119698D01*
X14798753Y-10119698D02*
X14808277Y-10138746D01*
X14808277Y-10138746D02*
X14808277Y-10195889D01*
X14808277Y-10195889D02*
X14798753Y-10214936D01*
X14798753Y-10214936D02*
X14789230Y-10224460D01*
X14789230Y-10224460D02*
X14770182Y-10233984D01*
X14770182Y-10233984D02*
X14741610Y-10233984D01*
X14922563Y-10233984D02*
X14903515Y-10224460D01*
X14903515Y-10224460D02*
X14893991Y-10205412D01*
X14893991Y-10205412D02*
X14893991Y-10033984D01*
X15074944Y-10224460D02*
X15055896Y-10233984D01*
X15055896Y-10233984D02*
X15017801Y-10233984D01*
X15017801Y-10233984D02*
X14998753Y-10224460D01*
X14998753Y-10224460D02*
X14989230Y-10205412D01*
X14989230Y-10205412D02*
X14989230Y-10129222D01*
X14989230Y-10129222D02*
X14998753Y-10110174D01*
X14998753Y-10110174D02*
X15017801Y-10100650D01*
X15017801Y-10100650D02*
X15055896Y-10100650D01*
X15055896Y-10100650D02*
X15074944Y-10110174D01*
X15074944Y-10110174D02*
X15084468Y-10129222D01*
X15084468Y-10129222D02*
X15084468Y-10148270D01*
X15084468Y-10148270D02*
X14989230Y-10167317D01*
X15160658Y-10224460D02*
X15179706Y-10233984D01*
X15179706Y-10233984D02*
X15217801Y-10233984D01*
X15217801Y-10233984D02*
X15236849Y-10224460D01*
X15236849Y-10224460D02*
X15246372Y-10205412D01*
X15246372Y-10205412D02*
X15246372Y-10195889D01*
X15246372Y-10195889D02*
X15236849Y-10176841D01*
X15236849Y-10176841D02*
X15217801Y-10167317D01*
X15217801Y-10167317D02*
X15189230Y-10167317D01*
X15189230Y-10167317D02*
X15170182Y-10157793D01*
X15170182Y-10157793D02*
X15160658Y-10138746D01*
X15160658Y-10138746D02*
X15160658Y-10129222D01*
X15160658Y-10129222D02*
X15170182Y-10110174D01*
X15170182Y-10110174D02*
X15189230Y-10100650D01*
X15189230Y-10100650D02*
X15217801Y-10100650D01*
X15217801Y-10100650D02*
X15236849Y-10110174D01*
X15313039Y-10310174D02*
X15322563Y-10300650D01*
X15322563Y-10300650D02*
X15341611Y-10272079D01*
X15341611Y-10272079D02*
X15351134Y-10253031D01*
X15351134Y-10253031D02*
X15360658Y-10224460D01*
X15360658Y-10224460D02*
X15370182Y-10176841D01*
X15370182Y-10176841D02*
X15370182Y-10138746D01*
X15370182Y-10138746D02*
X15360658Y-10091127D01*
X15360658Y-10091127D02*
X15351134Y-10062555D01*
X15351134Y-10062555D02*
X15341611Y-10043508D01*
X15341611Y-10043508D02*
X15322563Y-10014936D01*
X15322563Y-10014936D02*
X15313039Y-10005412D01*
D12*
X10347500Y-10406500D02*
G75*
G02*
X10307500Y-10406500I-20000J0D01*
G01*
X10307500Y-10406500D02*
G75*
G02*
X10347500Y-10406500I20000J0D01*
G01*
D11*
X10646372Y-10297984D02*
X10665420Y-10297984D01*
X10665420Y-10297984D02*
X10684467Y-10307508D01*
X10684467Y-10307508D02*
X10693991Y-10317031D01*
X10693991Y-10317031D02*
X10703515Y-10336079D01*
X10703515Y-10336079D02*
X10713039Y-10374174D01*
X10713039Y-10374174D02*
X10713039Y-10421793D01*
X10713039Y-10421793D02*
X10703515Y-10459889D01*
X10703515Y-10459889D02*
X10693991Y-10478936D01*
X10693991Y-10478936D02*
X10684467Y-10488460D01*
X10684467Y-10488460D02*
X10665420Y-10497984D01*
X10665420Y-10497984D02*
X10646372Y-10497984D01*
X10646372Y-10497984D02*
X10627324Y-10488460D01*
X10627324Y-10488460D02*
X10617801Y-10478936D01*
X10617801Y-10478936D02*
X10608277Y-10459889D01*
X10608277Y-10459889D02*
X10598753Y-10421793D01*
X10598753Y-10421793D02*
X10598753Y-10374174D01*
X10598753Y-10374174D02*
X10608277Y-10336079D01*
X10608277Y-10336079D02*
X10617801Y-10317031D01*
X10617801Y-10317031D02*
X10627324Y-10307508D01*
X10627324Y-10307508D02*
X10646372Y-10297984D01*
X10798753Y-10478936D02*
X10808277Y-10488460D01*
X10808277Y-10488460D02*
X10798753Y-10497984D01*
X10798753Y-10497984D02*
X10789229Y-10488460D01*
X10789229Y-10488460D02*
X10798753Y-10478936D01*
X10798753Y-10478936D02*
X10798753Y-10497984D01*
X10979705Y-10364650D02*
X10979705Y-10497984D01*
X10932086Y-10288460D02*
X10884467Y-10431317D01*
X10884467Y-10431317D02*
X11008277Y-10431317D01*
X11122563Y-10297984D02*
X11141610Y-10297984D01*
X11141610Y-10297984D02*
X11160658Y-10307508D01*
X11160658Y-10307508D02*
X11170182Y-10317031D01*
X11170182Y-10317031D02*
X11179705Y-10336079D01*
X11179705Y-10336079D02*
X11189229Y-10374174D01*
X11189229Y-10374174D02*
X11189229Y-10421793D01*
X11189229Y-10421793D02*
X11179705Y-10459889D01*
X11179705Y-10459889D02*
X11170182Y-10478936D01*
X11170182Y-10478936D02*
X11160658Y-10488460D01*
X11160658Y-10488460D02*
X11141610Y-10497984D01*
X11141610Y-10497984D02*
X11122563Y-10497984D01*
X11122563Y-10497984D02*
X11103515Y-10488460D01*
X11103515Y-10488460D02*
X11093991Y-10478936D01*
X11093991Y-10478936D02*
X11084467Y-10459889D01*
X11084467Y-10459889D02*
X11074944Y-10421793D01*
X11074944Y-10421793D02*
X11074944Y-10374174D01*
X11074944Y-10374174D02*
X11084467Y-10336079D01*
X11084467Y-10336079D02*
X11093991Y-10317031D01*
X11093991Y-10317031D02*
X11103515Y-10307508D01*
X11103515Y-10307508D02*
X11122563Y-10297984D01*
X11313039Y-10297984D02*
X11332086Y-10297984D01*
X11332086Y-10297984D02*
X11351134Y-10307508D01*
X11351134Y-10307508D02*
X11360658Y-10317031D01*
X11360658Y-10317031D02*
X11370182Y-10336079D01*
X11370182Y-10336079D02*
X11379705Y-10374174D01*
X11379705Y-10374174D02*
X11379705Y-10421793D01*
X11379705Y-10421793D02*
X11370182Y-10459889D01*
X11370182Y-10459889D02*
X11360658Y-10478936D01*
X11360658Y-10478936D02*
X11351134Y-10488460D01*
X11351134Y-10488460D02*
X11332086Y-10497984D01*
X11332086Y-10497984D02*
X11313039Y-10497984D01*
X11313039Y-10497984D02*
X11293991Y-10488460D01*
X11293991Y-10488460D02*
X11284467Y-10478936D01*
X11284467Y-10478936D02*
X11274943Y-10459889D01*
X11274943Y-10459889D02*
X11265420Y-10421793D01*
X11265420Y-10421793D02*
X11265420Y-10374174D01*
X11265420Y-10374174D02*
X11274943Y-10336079D01*
X11274943Y-10336079D02*
X11284467Y-10317031D01*
X11284467Y-10317031D02*
X11293991Y-10307508D01*
X11293991Y-10307508D02*
X11313039Y-10297984D01*
X11465420Y-10497984D02*
X11465420Y-10364650D01*
X11465420Y-10383698D02*
X11474943Y-10374174D01*
X11474943Y-10374174D02*
X11493991Y-10364650D01*
X11493991Y-10364650D02*
X11522563Y-10364650D01*
X11522563Y-10364650D02*
X11541610Y-10374174D01*
X11541610Y-10374174D02*
X11551134Y-10393222D01*
X11551134Y-10393222D02*
X11551134Y-10497984D01*
X11551134Y-10393222D02*
X11560658Y-10374174D01*
X11560658Y-10374174D02*
X11579705Y-10364650D01*
X11579705Y-10364650D02*
X11608277Y-10364650D01*
X11608277Y-10364650D02*
X11627324Y-10374174D01*
X11627324Y-10374174D02*
X11636848Y-10393222D01*
X11636848Y-10393222D02*
X11636848Y-10497984D01*
X11732086Y-10497984D02*
X11732086Y-10364650D01*
X11732086Y-10383698D02*
X11741610Y-10374174D01*
X11741610Y-10374174D02*
X11760658Y-10364650D01*
X11760658Y-10364650D02*
X11789229Y-10364650D01*
X11789229Y-10364650D02*
X11808277Y-10374174D01*
X11808277Y-10374174D02*
X11817801Y-10393222D01*
X11817801Y-10393222D02*
X11817801Y-10497984D01*
X11817801Y-10393222D02*
X11827324Y-10374174D01*
X11827324Y-10374174D02*
X11846372Y-10364650D01*
X11846372Y-10364650D02*
X11874943Y-10364650D01*
X11874943Y-10364650D02*
X11893991Y-10374174D01*
X11893991Y-10374174D02*
X11903515Y-10393222D01*
X11903515Y-10393222D02*
X11903515Y-10497984D01*
X12293991Y-10288460D02*
X12122563Y-10545603D01*
X12551134Y-10297984D02*
X12570182Y-10297984D01*
X12570182Y-10297984D02*
X12589229Y-10307508D01*
X12589229Y-10307508D02*
X12598753Y-10317031D01*
X12598753Y-10317031D02*
X12608277Y-10336079D01*
X12608277Y-10336079D02*
X12617801Y-10374174D01*
X12617801Y-10374174D02*
X12617801Y-10421793D01*
X12617801Y-10421793D02*
X12608277Y-10459889D01*
X12608277Y-10459889D02*
X12598753Y-10478936D01*
X12598753Y-10478936D02*
X12589229Y-10488460D01*
X12589229Y-10488460D02*
X12570182Y-10497984D01*
X12570182Y-10497984D02*
X12551134Y-10497984D01*
X12551134Y-10497984D02*
X12532086Y-10488460D01*
X12532086Y-10488460D02*
X12522563Y-10478936D01*
X12522563Y-10478936D02*
X12513039Y-10459889D01*
X12513039Y-10459889D02*
X12503515Y-10421793D01*
X12503515Y-10421793D02*
X12503515Y-10374174D01*
X12503515Y-10374174D02*
X12513039Y-10336079D01*
X12513039Y-10336079D02*
X12522563Y-10317031D01*
X12522563Y-10317031D02*
X12532086Y-10307508D01*
X12532086Y-10307508D02*
X12551134Y-10297984D01*
X12703515Y-10478936D02*
X12713039Y-10488460D01*
X12713039Y-10488460D02*
X12703515Y-10497984D01*
X12703515Y-10497984D02*
X12693991Y-10488460D01*
X12693991Y-10488460D02*
X12703515Y-10478936D01*
X12703515Y-10478936D02*
X12703515Y-10497984D01*
X12836848Y-10297984D02*
X12855896Y-10297984D01*
X12855896Y-10297984D02*
X12874944Y-10307508D01*
X12874944Y-10307508D02*
X12884467Y-10317031D01*
X12884467Y-10317031D02*
X12893991Y-10336079D01*
X12893991Y-10336079D02*
X12903515Y-10374174D01*
X12903515Y-10374174D02*
X12903515Y-10421793D01*
X12903515Y-10421793D02*
X12893991Y-10459889D01*
X12893991Y-10459889D02*
X12884467Y-10478936D01*
X12884467Y-10478936D02*
X12874944Y-10488460D01*
X12874944Y-10488460D02*
X12855896Y-10497984D01*
X12855896Y-10497984D02*
X12836848Y-10497984D01*
X12836848Y-10497984D02*
X12817801Y-10488460D01*
X12817801Y-10488460D02*
X12808277Y-10478936D01*
X12808277Y-10478936D02*
X12798753Y-10459889D01*
X12798753Y-10459889D02*
X12789229Y-10421793D01*
X12789229Y-10421793D02*
X12789229Y-10374174D01*
X12789229Y-10374174D02*
X12798753Y-10336079D01*
X12798753Y-10336079D02*
X12808277Y-10317031D01*
X12808277Y-10317031D02*
X12817801Y-10307508D01*
X12817801Y-10307508D02*
X12836848Y-10297984D01*
X13093991Y-10497984D02*
X12979706Y-10497984D01*
X13036848Y-10497984D02*
X13036848Y-10297984D01*
X13036848Y-10297984D02*
X13017801Y-10326555D01*
X13017801Y-10326555D02*
X12998753Y-10345603D01*
X12998753Y-10345603D02*
X12979706Y-10355127D01*
X13274944Y-10297984D02*
X13179706Y-10297984D01*
X13179706Y-10297984D02*
X13170182Y-10393222D01*
X13170182Y-10393222D02*
X13179706Y-10383698D01*
X13179706Y-10383698D02*
X13198753Y-10374174D01*
X13198753Y-10374174D02*
X13246372Y-10374174D01*
X13246372Y-10374174D02*
X13265420Y-10383698D01*
X13265420Y-10383698D02*
X13274944Y-10393222D01*
X13274944Y-10393222D02*
X13284467Y-10412270D01*
X13284467Y-10412270D02*
X13284467Y-10459889D01*
X13284467Y-10459889D02*
X13274944Y-10478936D01*
X13274944Y-10478936D02*
X13265420Y-10488460D01*
X13265420Y-10488460D02*
X13246372Y-10497984D01*
X13246372Y-10497984D02*
X13198753Y-10497984D01*
X13198753Y-10497984D02*
X13179706Y-10488460D01*
X13179706Y-10488460D02*
X13170182Y-10478936D01*
X13351134Y-10297984D02*
X13484467Y-10297984D01*
X13484467Y-10297984D02*
X13398753Y-10497984D01*
X13551134Y-10297984D02*
X13551134Y-10336079D01*
X13627325Y-10297984D02*
X13627325Y-10336079D01*
X13922563Y-10574174D02*
X13913039Y-10564650D01*
X13913039Y-10564650D02*
X13893991Y-10536079D01*
X13893991Y-10536079D02*
X13884468Y-10517031D01*
X13884468Y-10517031D02*
X13874944Y-10488460D01*
X13874944Y-10488460D02*
X13865420Y-10440841D01*
X13865420Y-10440841D02*
X13865420Y-10402746D01*
X13865420Y-10402746D02*
X13874944Y-10355127D01*
X13874944Y-10355127D02*
X13884468Y-10326555D01*
X13884468Y-10326555D02*
X13893991Y-10307508D01*
X13893991Y-10307508D02*
X13913039Y-10278936D01*
X13913039Y-10278936D02*
X13922563Y-10269412D01*
X14103515Y-10497984D02*
X13989229Y-10497984D01*
X14046372Y-10497984D02*
X14046372Y-10297984D01*
X14046372Y-10297984D02*
X14027325Y-10326555D01*
X14027325Y-10326555D02*
X14008277Y-10345603D01*
X14008277Y-10345603D02*
X13989229Y-10355127D01*
X14227325Y-10297984D02*
X14246372Y-10297984D01*
X14246372Y-10297984D02*
X14265420Y-10307508D01*
X14265420Y-10307508D02*
X14274944Y-10317031D01*
X14274944Y-10317031D02*
X14284468Y-10336079D01*
X14284468Y-10336079D02*
X14293991Y-10374174D01*
X14293991Y-10374174D02*
X14293991Y-10421793D01*
X14293991Y-10421793D02*
X14284468Y-10459889D01*
X14284468Y-10459889D02*
X14274944Y-10478936D01*
X14274944Y-10478936D02*
X14265420Y-10488460D01*
X14265420Y-10488460D02*
X14246372Y-10497984D01*
X14246372Y-10497984D02*
X14227325Y-10497984D01*
X14227325Y-10497984D02*
X14208277Y-10488460D01*
X14208277Y-10488460D02*
X14198753Y-10478936D01*
X14198753Y-10478936D02*
X14189229Y-10459889D01*
X14189229Y-10459889D02*
X14179706Y-10421793D01*
X14179706Y-10421793D02*
X14179706Y-10374174D01*
X14179706Y-10374174D02*
X14189229Y-10336079D01*
X14189229Y-10336079D02*
X14198753Y-10317031D01*
X14198753Y-10317031D02*
X14208277Y-10307508D01*
X14208277Y-10307508D02*
X14227325Y-10297984D01*
X14532087Y-10497984D02*
X14532087Y-10297984D01*
X14617801Y-10497984D02*
X14617801Y-10393222D01*
X14617801Y-10393222D02*
X14608277Y-10374174D01*
X14608277Y-10374174D02*
X14589230Y-10364650D01*
X14589230Y-10364650D02*
X14560658Y-10364650D01*
X14560658Y-10364650D02*
X14541610Y-10374174D01*
X14541610Y-10374174D02*
X14532087Y-10383698D01*
X14741610Y-10497984D02*
X14722563Y-10488460D01*
X14722563Y-10488460D02*
X14713039Y-10478936D01*
X14713039Y-10478936D02*
X14703515Y-10459889D01*
X14703515Y-10459889D02*
X14703515Y-10402746D01*
X14703515Y-10402746D02*
X14713039Y-10383698D01*
X14713039Y-10383698D02*
X14722563Y-10374174D01*
X14722563Y-10374174D02*
X14741610Y-10364650D01*
X14741610Y-10364650D02*
X14770182Y-10364650D01*
X14770182Y-10364650D02*
X14789230Y-10374174D01*
X14789230Y-10374174D02*
X14798753Y-10383698D01*
X14798753Y-10383698D02*
X14808277Y-10402746D01*
X14808277Y-10402746D02*
X14808277Y-10459889D01*
X14808277Y-10459889D02*
X14798753Y-10478936D01*
X14798753Y-10478936D02*
X14789230Y-10488460D01*
X14789230Y-10488460D02*
X14770182Y-10497984D01*
X14770182Y-10497984D02*
X14741610Y-10497984D01*
X14922563Y-10497984D02*
X14903515Y-10488460D01*
X14903515Y-10488460D02*
X14893991Y-10469412D01*
X14893991Y-10469412D02*
X14893991Y-10297984D01*
X15074944Y-10488460D02*
X15055896Y-10497984D01*
X15055896Y-10497984D02*
X15017801Y-10497984D01*
X15017801Y-10497984D02*
X14998753Y-10488460D01*
X14998753Y-10488460D02*
X14989230Y-10469412D01*
X14989230Y-10469412D02*
X14989230Y-10393222D01*
X14989230Y-10393222D02*
X14998753Y-10374174D01*
X14998753Y-10374174D02*
X15017801Y-10364650D01*
X15017801Y-10364650D02*
X15055896Y-10364650D01*
X15055896Y-10364650D02*
X15074944Y-10374174D01*
X15074944Y-10374174D02*
X15084468Y-10393222D01*
X15084468Y-10393222D02*
X15084468Y-10412270D01*
X15084468Y-10412270D02*
X14989230Y-10431317D01*
X15160658Y-10488460D02*
X15179706Y-10497984D01*
X15179706Y-10497984D02*
X15217801Y-10497984D01*
X15217801Y-10497984D02*
X15236849Y-10488460D01*
X15236849Y-10488460D02*
X15246372Y-10469412D01*
X15246372Y-10469412D02*
X15246372Y-10459889D01*
X15246372Y-10459889D02*
X15236849Y-10440841D01*
X15236849Y-10440841D02*
X15217801Y-10431317D01*
X15217801Y-10431317D02*
X15189230Y-10431317D01*
X15189230Y-10431317D02*
X15170182Y-10421793D01*
X15170182Y-10421793D02*
X15160658Y-10402746D01*
X15160658Y-10402746D02*
X15160658Y-10393222D01*
X15160658Y-10393222D02*
X15170182Y-10374174D01*
X15170182Y-10374174D02*
X15189230Y-10364650D01*
X15189230Y-10364650D02*
X15217801Y-10364650D01*
X15217801Y-10364650D02*
X15236849Y-10374174D01*
X15313039Y-10574174D02*
X15322563Y-10564650D01*
X15322563Y-10564650D02*
X15341611Y-10536079D01*
X15341611Y-10536079D02*
X15351134Y-10517031D01*
X15351134Y-10517031D02*
X15360658Y-10488460D01*
X15360658Y-10488460D02*
X15370182Y-10440841D01*
X15370182Y-10440841D02*
X15370182Y-10402746D01*
X15370182Y-10402746D02*
X15360658Y-10355127D01*
X15360658Y-10355127D02*
X15351134Y-10326555D01*
X15351134Y-10326555D02*
X15341611Y-10307508D01*
X15341611Y-10307508D02*
X15322563Y-10278936D01*
X15322563Y-10278936D02*
X15313039Y-10269412D01*
D12*
X10317500Y-10640500D02*
X10317500Y-10700500D01*
X10287500Y-10670500D02*
X10347500Y-10670500D01*
D11*
X10646372Y-10561984D02*
X10665420Y-10561984D01*
X10665420Y-10561984D02*
X10684467Y-10571508D01*
X10684467Y-10571508D02*
X10693991Y-10581031D01*
X10693991Y-10581031D02*
X10703515Y-10600079D01*
X10703515Y-10600079D02*
X10713039Y-10638174D01*
X10713039Y-10638174D02*
X10713039Y-10685793D01*
X10713039Y-10685793D02*
X10703515Y-10723889D01*
X10703515Y-10723889D02*
X10693991Y-10742936D01*
X10693991Y-10742936D02*
X10684467Y-10752460D01*
X10684467Y-10752460D02*
X10665420Y-10761984D01*
X10665420Y-10761984D02*
X10646372Y-10761984D01*
X10646372Y-10761984D02*
X10627324Y-10752460D01*
X10627324Y-10752460D02*
X10617801Y-10742936D01*
X10617801Y-10742936D02*
X10608277Y-10723889D01*
X10608277Y-10723889D02*
X10598753Y-10685793D01*
X10598753Y-10685793D02*
X10598753Y-10638174D01*
X10598753Y-10638174D02*
X10608277Y-10600079D01*
X10608277Y-10600079D02*
X10617801Y-10581031D01*
X10617801Y-10581031D02*
X10627324Y-10571508D01*
X10627324Y-10571508D02*
X10646372Y-10561984D01*
X10798753Y-10742936D02*
X10808277Y-10752460D01*
X10808277Y-10752460D02*
X10798753Y-10761984D01*
X10798753Y-10761984D02*
X10789229Y-10752460D01*
X10789229Y-10752460D02*
X10798753Y-10742936D01*
X10798753Y-10742936D02*
X10798753Y-10761984D01*
X10979705Y-10561984D02*
X10941610Y-10561984D01*
X10941610Y-10561984D02*
X10922563Y-10571508D01*
X10922563Y-10571508D02*
X10913039Y-10581031D01*
X10913039Y-10581031D02*
X10893991Y-10609603D01*
X10893991Y-10609603D02*
X10884467Y-10647698D01*
X10884467Y-10647698D02*
X10884467Y-10723889D01*
X10884467Y-10723889D02*
X10893991Y-10742936D01*
X10893991Y-10742936D02*
X10903515Y-10752460D01*
X10903515Y-10752460D02*
X10922563Y-10761984D01*
X10922563Y-10761984D02*
X10960658Y-10761984D01*
X10960658Y-10761984D02*
X10979705Y-10752460D01*
X10979705Y-10752460D02*
X10989229Y-10742936D01*
X10989229Y-10742936D02*
X10998753Y-10723889D01*
X10998753Y-10723889D02*
X10998753Y-10676270D01*
X10998753Y-10676270D02*
X10989229Y-10657222D01*
X10989229Y-10657222D02*
X10979705Y-10647698D01*
X10979705Y-10647698D02*
X10960658Y-10638174D01*
X10960658Y-10638174D02*
X10922563Y-10638174D01*
X10922563Y-10638174D02*
X10903515Y-10647698D01*
X10903515Y-10647698D02*
X10893991Y-10657222D01*
X10893991Y-10657222D02*
X10884467Y-10676270D01*
X11122563Y-10561984D02*
X11141610Y-10561984D01*
X11141610Y-10561984D02*
X11160658Y-10571508D01*
X11160658Y-10571508D02*
X11170182Y-10581031D01*
X11170182Y-10581031D02*
X11179705Y-10600079D01*
X11179705Y-10600079D02*
X11189229Y-10638174D01*
X11189229Y-10638174D02*
X11189229Y-10685793D01*
X11189229Y-10685793D02*
X11179705Y-10723889D01*
X11179705Y-10723889D02*
X11170182Y-10742936D01*
X11170182Y-10742936D02*
X11160658Y-10752460D01*
X11160658Y-10752460D02*
X11141610Y-10761984D01*
X11141610Y-10761984D02*
X11122563Y-10761984D01*
X11122563Y-10761984D02*
X11103515Y-10752460D01*
X11103515Y-10752460D02*
X11093991Y-10742936D01*
X11093991Y-10742936D02*
X11084467Y-10723889D01*
X11084467Y-10723889D02*
X11074944Y-10685793D01*
X11074944Y-10685793D02*
X11074944Y-10638174D01*
X11074944Y-10638174D02*
X11084467Y-10600079D01*
X11084467Y-10600079D02*
X11093991Y-10581031D01*
X11093991Y-10581031D02*
X11103515Y-10571508D01*
X11103515Y-10571508D02*
X11122563Y-10561984D01*
X11313039Y-10561984D02*
X11332086Y-10561984D01*
X11332086Y-10561984D02*
X11351134Y-10571508D01*
X11351134Y-10571508D02*
X11360658Y-10581031D01*
X11360658Y-10581031D02*
X11370182Y-10600079D01*
X11370182Y-10600079D02*
X11379705Y-10638174D01*
X11379705Y-10638174D02*
X11379705Y-10685793D01*
X11379705Y-10685793D02*
X11370182Y-10723889D01*
X11370182Y-10723889D02*
X11360658Y-10742936D01*
X11360658Y-10742936D02*
X11351134Y-10752460D01*
X11351134Y-10752460D02*
X11332086Y-10761984D01*
X11332086Y-10761984D02*
X11313039Y-10761984D01*
X11313039Y-10761984D02*
X11293991Y-10752460D01*
X11293991Y-10752460D02*
X11284467Y-10742936D01*
X11284467Y-10742936D02*
X11274943Y-10723889D01*
X11274943Y-10723889D02*
X11265420Y-10685793D01*
X11265420Y-10685793D02*
X11265420Y-10638174D01*
X11265420Y-10638174D02*
X11274943Y-10600079D01*
X11274943Y-10600079D02*
X11284467Y-10581031D01*
X11284467Y-10581031D02*
X11293991Y-10571508D01*
X11293991Y-10571508D02*
X11313039Y-10561984D01*
X11465420Y-10761984D02*
X11465420Y-10628650D01*
X11465420Y-10647698D02*
X11474943Y-10638174D01*
X11474943Y-10638174D02*
X11493991Y-10628650D01*
X11493991Y-10628650D02*
X11522563Y-10628650D01*
X11522563Y-10628650D02*
X11541610Y-10638174D01*
X11541610Y-10638174D02*
X11551134Y-10657222D01*
X11551134Y-10657222D02*
X11551134Y-10761984D01*
X11551134Y-10657222D02*
X11560658Y-10638174D01*
X11560658Y-10638174D02*
X11579705Y-10628650D01*
X11579705Y-10628650D02*
X11608277Y-10628650D01*
X11608277Y-10628650D02*
X11627324Y-10638174D01*
X11627324Y-10638174D02*
X11636848Y-10657222D01*
X11636848Y-10657222D02*
X11636848Y-10761984D01*
X11732086Y-10761984D02*
X11732086Y-10628650D01*
X11732086Y-10647698D02*
X11741610Y-10638174D01*
X11741610Y-10638174D02*
X11760658Y-10628650D01*
X11760658Y-10628650D02*
X11789229Y-10628650D01*
X11789229Y-10628650D02*
X11808277Y-10638174D01*
X11808277Y-10638174D02*
X11817801Y-10657222D01*
X11817801Y-10657222D02*
X11817801Y-10761984D01*
X11817801Y-10657222D02*
X11827324Y-10638174D01*
X11827324Y-10638174D02*
X11846372Y-10628650D01*
X11846372Y-10628650D02*
X11874943Y-10628650D01*
X11874943Y-10628650D02*
X11893991Y-10638174D01*
X11893991Y-10638174D02*
X11903515Y-10657222D01*
X11903515Y-10657222D02*
X11903515Y-10761984D01*
X12293991Y-10552460D02*
X12122563Y-10809603D01*
X12551134Y-10561984D02*
X12570182Y-10561984D01*
X12570182Y-10561984D02*
X12589229Y-10571508D01*
X12589229Y-10571508D02*
X12598753Y-10581031D01*
X12598753Y-10581031D02*
X12608277Y-10600079D01*
X12608277Y-10600079D02*
X12617801Y-10638174D01*
X12617801Y-10638174D02*
X12617801Y-10685793D01*
X12617801Y-10685793D02*
X12608277Y-10723889D01*
X12608277Y-10723889D02*
X12598753Y-10742936D01*
X12598753Y-10742936D02*
X12589229Y-10752460D01*
X12589229Y-10752460D02*
X12570182Y-10761984D01*
X12570182Y-10761984D02*
X12551134Y-10761984D01*
X12551134Y-10761984D02*
X12532086Y-10752460D01*
X12532086Y-10752460D02*
X12522563Y-10742936D01*
X12522563Y-10742936D02*
X12513039Y-10723889D01*
X12513039Y-10723889D02*
X12503515Y-10685793D01*
X12503515Y-10685793D02*
X12503515Y-10638174D01*
X12503515Y-10638174D02*
X12513039Y-10600079D01*
X12513039Y-10600079D02*
X12522563Y-10581031D01*
X12522563Y-10581031D02*
X12532086Y-10571508D01*
X12532086Y-10571508D02*
X12551134Y-10561984D01*
X12703515Y-10742936D02*
X12713039Y-10752460D01*
X12713039Y-10752460D02*
X12703515Y-10761984D01*
X12703515Y-10761984D02*
X12693991Y-10752460D01*
X12693991Y-10752460D02*
X12703515Y-10742936D01*
X12703515Y-10742936D02*
X12703515Y-10761984D01*
X12836848Y-10561984D02*
X12855896Y-10561984D01*
X12855896Y-10561984D02*
X12874944Y-10571508D01*
X12874944Y-10571508D02*
X12884467Y-10581031D01*
X12884467Y-10581031D02*
X12893991Y-10600079D01*
X12893991Y-10600079D02*
X12903515Y-10638174D01*
X12903515Y-10638174D02*
X12903515Y-10685793D01*
X12903515Y-10685793D02*
X12893991Y-10723889D01*
X12893991Y-10723889D02*
X12884467Y-10742936D01*
X12884467Y-10742936D02*
X12874944Y-10752460D01*
X12874944Y-10752460D02*
X12855896Y-10761984D01*
X12855896Y-10761984D02*
X12836848Y-10761984D01*
X12836848Y-10761984D02*
X12817801Y-10752460D01*
X12817801Y-10752460D02*
X12808277Y-10742936D01*
X12808277Y-10742936D02*
X12798753Y-10723889D01*
X12798753Y-10723889D02*
X12789229Y-10685793D01*
X12789229Y-10685793D02*
X12789229Y-10638174D01*
X12789229Y-10638174D02*
X12798753Y-10600079D01*
X12798753Y-10600079D02*
X12808277Y-10581031D01*
X12808277Y-10581031D02*
X12817801Y-10571508D01*
X12817801Y-10571508D02*
X12836848Y-10561984D01*
X12979706Y-10581031D02*
X12989229Y-10571508D01*
X12989229Y-10571508D02*
X13008277Y-10561984D01*
X13008277Y-10561984D02*
X13055896Y-10561984D01*
X13055896Y-10561984D02*
X13074944Y-10571508D01*
X13074944Y-10571508D02*
X13084467Y-10581031D01*
X13084467Y-10581031D02*
X13093991Y-10600079D01*
X13093991Y-10600079D02*
X13093991Y-10619127D01*
X13093991Y-10619127D02*
X13084467Y-10647698D01*
X13084467Y-10647698D02*
X12970182Y-10761984D01*
X12970182Y-10761984D02*
X13093991Y-10761984D01*
X13160658Y-10561984D02*
X13284467Y-10561984D01*
X13284467Y-10561984D02*
X13217801Y-10638174D01*
X13217801Y-10638174D02*
X13246372Y-10638174D01*
X13246372Y-10638174D02*
X13265420Y-10647698D01*
X13265420Y-10647698D02*
X13274944Y-10657222D01*
X13274944Y-10657222D02*
X13284467Y-10676270D01*
X13284467Y-10676270D02*
X13284467Y-10723889D01*
X13284467Y-10723889D02*
X13274944Y-10742936D01*
X13274944Y-10742936D02*
X13265420Y-10752460D01*
X13265420Y-10752460D02*
X13246372Y-10761984D01*
X13246372Y-10761984D02*
X13189229Y-10761984D01*
X13189229Y-10761984D02*
X13170182Y-10752460D01*
X13170182Y-10752460D02*
X13160658Y-10742936D01*
X13455896Y-10561984D02*
X13417801Y-10561984D01*
X13417801Y-10561984D02*
X13398753Y-10571508D01*
X13398753Y-10571508D02*
X13389229Y-10581031D01*
X13389229Y-10581031D02*
X13370182Y-10609603D01*
X13370182Y-10609603D02*
X13360658Y-10647698D01*
X13360658Y-10647698D02*
X13360658Y-10723889D01*
X13360658Y-10723889D02*
X13370182Y-10742936D01*
X13370182Y-10742936D02*
X13379706Y-10752460D01*
X13379706Y-10752460D02*
X13398753Y-10761984D01*
X13398753Y-10761984D02*
X13436848Y-10761984D01*
X13436848Y-10761984D02*
X13455896Y-10752460D01*
X13455896Y-10752460D02*
X13465420Y-10742936D01*
X13465420Y-10742936D02*
X13474944Y-10723889D01*
X13474944Y-10723889D02*
X13474944Y-10676270D01*
X13474944Y-10676270D02*
X13465420Y-10657222D01*
X13465420Y-10657222D02*
X13455896Y-10647698D01*
X13455896Y-10647698D02*
X13436848Y-10638174D01*
X13436848Y-10638174D02*
X13398753Y-10638174D01*
X13398753Y-10638174D02*
X13379706Y-10647698D01*
X13379706Y-10647698D02*
X13370182Y-10657222D01*
X13370182Y-10657222D02*
X13360658Y-10676270D01*
X13551134Y-10561984D02*
X13551134Y-10600079D01*
X13627325Y-10561984D02*
X13627325Y-10600079D01*
X13922563Y-10838174D02*
X13913039Y-10828650D01*
X13913039Y-10828650D02*
X13893991Y-10800079D01*
X13893991Y-10800079D02*
X13884468Y-10781031D01*
X13884468Y-10781031D02*
X13874944Y-10752460D01*
X13874944Y-10752460D02*
X13865420Y-10704841D01*
X13865420Y-10704841D02*
X13865420Y-10666746D01*
X13865420Y-10666746D02*
X13874944Y-10619127D01*
X13874944Y-10619127D02*
X13884468Y-10590555D01*
X13884468Y-10590555D02*
X13893991Y-10571508D01*
X13893991Y-10571508D02*
X13913039Y-10542936D01*
X13913039Y-10542936D02*
X13922563Y-10533412D01*
X14036848Y-10561984D02*
X14055896Y-10561984D01*
X14055896Y-10561984D02*
X14074944Y-10571508D01*
X14074944Y-10571508D02*
X14084468Y-10581031D01*
X14084468Y-10581031D02*
X14093991Y-10600079D01*
X14093991Y-10600079D02*
X14103515Y-10638174D01*
X14103515Y-10638174D02*
X14103515Y-10685793D01*
X14103515Y-10685793D02*
X14093991Y-10723889D01*
X14093991Y-10723889D02*
X14084468Y-10742936D01*
X14084468Y-10742936D02*
X14074944Y-10752460D01*
X14074944Y-10752460D02*
X14055896Y-10761984D01*
X14055896Y-10761984D02*
X14036848Y-10761984D01*
X14036848Y-10761984D02*
X14017801Y-10752460D01*
X14017801Y-10752460D02*
X14008277Y-10742936D01*
X14008277Y-10742936D02*
X13998753Y-10723889D01*
X13998753Y-10723889D02*
X13989229Y-10685793D01*
X13989229Y-10685793D02*
X13989229Y-10638174D01*
X13989229Y-10638174D02*
X13998753Y-10600079D01*
X13998753Y-10600079D02*
X14008277Y-10581031D01*
X14008277Y-10581031D02*
X14017801Y-10571508D01*
X14017801Y-10571508D02*
X14036848Y-10561984D01*
X14341610Y-10761984D02*
X14341610Y-10561984D01*
X14427325Y-10761984D02*
X14427325Y-10657222D01*
X14427325Y-10657222D02*
X14417801Y-10638174D01*
X14417801Y-10638174D02*
X14398753Y-10628650D01*
X14398753Y-10628650D02*
X14370182Y-10628650D01*
X14370182Y-10628650D02*
X14351134Y-10638174D01*
X14351134Y-10638174D02*
X14341610Y-10647698D01*
X14551134Y-10761984D02*
X14532087Y-10752460D01*
X14532087Y-10752460D02*
X14522563Y-10742936D01*
X14522563Y-10742936D02*
X14513039Y-10723889D01*
X14513039Y-10723889D02*
X14513039Y-10666746D01*
X14513039Y-10666746D02*
X14522563Y-10647698D01*
X14522563Y-10647698D02*
X14532087Y-10638174D01*
X14532087Y-10638174D02*
X14551134Y-10628650D01*
X14551134Y-10628650D02*
X14579706Y-10628650D01*
X14579706Y-10628650D02*
X14598753Y-10638174D01*
X14598753Y-10638174D02*
X14608277Y-10647698D01*
X14608277Y-10647698D02*
X14617801Y-10666746D01*
X14617801Y-10666746D02*
X14617801Y-10723889D01*
X14617801Y-10723889D02*
X14608277Y-10742936D01*
X14608277Y-10742936D02*
X14598753Y-10752460D01*
X14598753Y-10752460D02*
X14579706Y-10761984D01*
X14579706Y-10761984D02*
X14551134Y-10761984D01*
X14732087Y-10761984D02*
X14713039Y-10752460D01*
X14713039Y-10752460D02*
X14703515Y-10733412D01*
X14703515Y-10733412D02*
X14703515Y-10561984D01*
X14884468Y-10752460D02*
X14865420Y-10761984D01*
X14865420Y-10761984D02*
X14827325Y-10761984D01*
X14827325Y-10761984D02*
X14808277Y-10752460D01*
X14808277Y-10752460D02*
X14798753Y-10733412D01*
X14798753Y-10733412D02*
X14798753Y-10657222D01*
X14798753Y-10657222D02*
X14808277Y-10638174D01*
X14808277Y-10638174D02*
X14827325Y-10628650D01*
X14827325Y-10628650D02*
X14865420Y-10628650D01*
X14865420Y-10628650D02*
X14884468Y-10638174D01*
X14884468Y-10638174D02*
X14893991Y-10657222D01*
X14893991Y-10657222D02*
X14893991Y-10676270D01*
X14893991Y-10676270D02*
X14798753Y-10695317D01*
X14970182Y-10752460D02*
X14989230Y-10761984D01*
X14989230Y-10761984D02*
X15027325Y-10761984D01*
X15027325Y-10761984D02*
X15046372Y-10752460D01*
X15046372Y-10752460D02*
X15055896Y-10733412D01*
X15055896Y-10733412D02*
X15055896Y-10723889D01*
X15055896Y-10723889D02*
X15046372Y-10704841D01*
X15046372Y-10704841D02*
X15027325Y-10695317D01*
X15027325Y-10695317D02*
X14998753Y-10695317D01*
X14998753Y-10695317D02*
X14979706Y-10685793D01*
X14979706Y-10685793D02*
X14970182Y-10666746D01*
X14970182Y-10666746D02*
X14970182Y-10657222D01*
X14970182Y-10657222D02*
X14979706Y-10638174D01*
X14979706Y-10638174D02*
X14998753Y-10628650D01*
X14998753Y-10628650D02*
X15027325Y-10628650D01*
X15027325Y-10628650D02*
X15046372Y-10638174D01*
X15293992Y-10685793D02*
X15446373Y-10685793D01*
X15370182Y-10761984D02*
X15370182Y-10609603D01*
X15779706Y-10628650D02*
X15779706Y-10761984D01*
X15732087Y-10552460D02*
X15684468Y-10695317D01*
X15684468Y-10695317D02*
X15808277Y-10695317D01*
X16027325Y-10752460D02*
X16046373Y-10761984D01*
X16046373Y-10761984D02*
X16084468Y-10761984D01*
X16084468Y-10761984D02*
X16103515Y-10752460D01*
X16103515Y-10752460D02*
X16113039Y-10733412D01*
X16113039Y-10733412D02*
X16113039Y-10723889D01*
X16113039Y-10723889D02*
X16103515Y-10704841D01*
X16103515Y-10704841D02*
X16084468Y-10695317D01*
X16084468Y-10695317D02*
X16055896Y-10695317D01*
X16055896Y-10695317D02*
X16036849Y-10685793D01*
X16036849Y-10685793D02*
X16027325Y-10666746D01*
X16027325Y-10666746D02*
X16027325Y-10657222D01*
X16027325Y-10657222D02*
X16036849Y-10638174D01*
X16036849Y-10638174D02*
X16055896Y-10628650D01*
X16055896Y-10628650D02*
X16084468Y-10628650D01*
X16084468Y-10628650D02*
X16103515Y-10638174D01*
X16227325Y-10761984D02*
X16208277Y-10752460D01*
X16208277Y-10752460D02*
X16198754Y-10733412D01*
X16198754Y-10733412D02*
X16198754Y-10561984D01*
X16332087Y-10761984D02*
X16313039Y-10752460D01*
X16313039Y-10752460D02*
X16303515Y-10742936D01*
X16303515Y-10742936D02*
X16293992Y-10723889D01*
X16293992Y-10723889D02*
X16293992Y-10666746D01*
X16293992Y-10666746D02*
X16303515Y-10647698D01*
X16303515Y-10647698D02*
X16313039Y-10638174D01*
X16313039Y-10638174D02*
X16332087Y-10628650D01*
X16332087Y-10628650D02*
X16360658Y-10628650D01*
X16360658Y-10628650D02*
X16379706Y-10638174D01*
X16379706Y-10638174D02*
X16389230Y-10647698D01*
X16389230Y-10647698D02*
X16398754Y-10666746D01*
X16398754Y-10666746D02*
X16398754Y-10723889D01*
X16398754Y-10723889D02*
X16389230Y-10742936D01*
X16389230Y-10742936D02*
X16379706Y-10752460D01*
X16379706Y-10752460D02*
X16360658Y-10761984D01*
X16360658Y-10761984D02*
X16332087Y-10761984D01*
X16455896Y-10628650D02*
X16532087Y-10628650D01*
X16484468Y-10561984D02*
X16484468Y-10733412D01*
X16484468Y-10733412D02*
X16493992Y-10752460D01*
X16493992Y-10752460D02*
X16513039Y-10761984D01*
X16513039Y-10761984D02*
X16532087Y-10761984D01*
X16589230Y-10752460D02*
X16608277Y-10761984D01*
X16608277Y-10761984D02*
X16646373Y-10761984D01*
X16646373Y-10761984D02*
X16665420Y-10752460D01*
X16665420Y-10752460D02*
X16674944Y-10733412D01*
X16674944Y-10733412D02*
X16674944Y-10723889D01*
X16674944Y-10723889D02*
X16665420Y-10704841D01*
X16665420Y-10704841D02*
X16646373Y-10695317D01*
X16646373Y-10695317D02*
X16617801Y-10695317D01*
X16617801Y-10695317D02*
X16598754Y-10685793D01*
X16598754Y-10685793D02*
X16589230Y-10666746D01*
X16589230Y-10666746D02*
X16589230Y-10657222D01*
X16589230Y-10657222D02*
X16598754Y-10638174D01*
X16598754Y-10638174D02*
X16617801Y-10628650D01*
X16617801Y-10628650D02*
X16646373Y-10628650D01*
X16646373Y-10628650D02*
X16665420Y-10638174D01*
X16741611Y-10838174D02*
X16751135Y-10828650D01*
X16751135Y-10828650D02*
X16770182Y-10800079D01*
X16770182Y-10800079D02*
X16779706Y-10781031D01*
X16779706Y-10781031D02*
X16789230Y-10752460D01*
X16789230Y-10752460D02*
X16798754Y-10704841D01*
X16798754Y-10704841D02*
X16798754Y-10666746D01*
X16798754Y-10666746D02*
X16789230Y-10619127D01*
X16789230Y-10619127D02*
X16779706Y-10590555D01*
X16779706Y-10590555D02*
X16770182Y-10571508D01*
X16770182Y-10571508D02*
X16751135Y-10542936D01*
X16751135Y-10542936D02*
X16741611Y-10533412D01*
M02*
