%TF.GenerationSoftware,KiCad,Pcbnew,9.0.6*%
%TF.CreationDate,2025-11-17T13:54:39+01:00*%
%TF.ProjectId,CH32Console,43483332-436f-46e7-936f-6c652e6b6963,rev?*%
%TF.SameCoordinates,Original*%
%TF.FileFunction,Paste,Top*%
%TF.FilePolarity,Positive*%
%FSLAX46Y46*%
G04 Gerber Fmt 4.6, Leading zero omitted, Abs format (unit mm)*
G04 Created by KiCad (PCBNEW 9.0.6) date 2025-11-17 13:54:39*
%MOMM*%
%LPD*%
G01*
G04 APERTURE LIST*
G04 Aperture macros list*
%AMRoundRect*
0 Rectangle with rounded corners*
0 $1 Rounding radius*
0 $2 $3 $4 $5 $6 $7 $8 $9 X,Y pos of 4 corners*
0 Add a 4 corners polygon primitive as box body*
4,1,4,$2,$3,$4,$5,$6,$7,$8,$9,$2,$3,0*
0 Add four circle primitives for the rounded corners*
1,1,$1+$1,$2,$3*
1,1,$1+$1,$4,$5*
1,1,$1+$1,$6,$7*
1,1,$1+$1,$8,$9*
0 Add four rect primitives between the rounded corners*
20,1,$1+$1,$2,$3,$4,$5,0*
20,1,$1+$1,$4,$5,$6,$7,0*
20,1,$1+$1,$6,$7,$8,$9,0*
20,1,$1+$1,$8,$9,$2,$3,0*%
G04 Aperture macros list end*
%ADD10RoundRect,0.052500X1.447500X0.122500X-1.447500X0.122500X-1.447500X-0.122500X1.447500X-0.122500X0*%
%ADD11R,1.600000X1.400000*%
%ADD12RoundRect,0.237500X-0.287500X-0.237500X0.287500X-0.237500X0.287500X0.237500X-0.287500X0.237500X0*%
%ADD13RoundRect,0.315000X1.885000X-0.735000X1.885000X0.735000X-1.885000X0.735000X-1.885000X-0.735000X0*%
%ADD14R,0.900000X1.250000*%
%ADD15R,0.800000X0.900000*%
%ADD16RoundRect,0.200000X0.200000X0.275000X-0.200000X0.275000X-0.200000X-0.275000X0.200000X-0.275000X0*%
%ADD17RoundRect,0.200000X-0.200000X-0.275000X0.200000X-0.275000X0.200000X0.275000X-0.200000X0.275000X0*%
%ADD18RoundRect,0.200000X0.275000X-0.200000X0.275000X0.200000X-0.275000X0.200000X-0.275000X-0.200000X0*%
G04 APERTURE END LIST*
D10*
%TO.C,LCD1*%
X149500000Y-75650000D03*
X149500000Y-76350000D03*
X149500000Y-77050000D03*
X149500000Y-77750000D03*
X149500000Y-78450000D03*
X149500000Y-79150000D03*
X149500000Y-79850000D03*
X149500000Y-80550000D03*
X149500000Y-81250000D03*
X149500000Y-81950000D03*
X149500000Y-82650000D03*
X149500000Y-83350000D03*
X149500000Y-84050000D03*
%TD*%
D11*
%TO.C,BTN_L*%
X108150000Y-81250000D03*
X115350000Y-81250000D03*
X108150000Y-78250000D03*
X115350000Y-78250000D03*
%TD*%
%TO.C,BTN_R*%
X120650000Y-81250000D03*
X127850000Y-81250000D03*
X120650000Y-78250000D03*
X127850000Y-78250000D03*
%TD*%
D12*
%TO.C,LED_CHRG*%
X152375000Y-90750000D03*
X154125000Y-90750000D03*
%TD*%
D11*
%TO.C,BTN_A*%
X168150000Y-81250000D03*
X175350000Y-81250000D03*
X168150000Y-78250000D03*
X175350000Y-78250000D03*
%TD*%
%TO.C,BTN_U*%
X114400000Y-75000000D03*
X121600000Y-75000000D03*
X114400000Y-72000000D03*
X121600000Y-72000000D03*
%TD*%
D13*
%TO.C,BZ1*%
X167750000Y-75500000D03*
X167750000Y-67000000D03*
%TD*%
D14*
%TO.C,S1*%
X148750000Y-68325000D03*
X145750000Y-68325000D03*
X144250000Y-68325000D03*
D15*
X150300000Y-67300000D03*
X142700000Y-67300000D03*
X150300000Y-65200000D03*
X142700000Y-65200000D03*
%TD*%
D12*
%TO.C,LED_PWR*%
X139000000Y-90750000D03*
X140750000Y-90750000D03*
%TD*%
D16*
%TO.C,R4*%
X145575000Y-90750000D03*
X143925000Y-90750000D03*
%TD*%
D17*
%TO.C,R6*%
X147425000Y-90750000D03*
X149075000Y-90750000D03*
%TD*%
D11*
%TO.C,BTN_D*%
X114400000Y-87500000D03*
X121600000Y-87500000D03*
X114400000Y-84500000D03*
X121600000Y-84500000D03*
%TD*%
D18*
%TO.C,R1*%
X173750000Y-75575000D03*
X173750000Y-73925000D03*
%TD*%
M02*
